<svg width="33" height="61" viewBox="0 0 33 61" fill="none" xmlns="http://www.w3.org/2000/svg">
<path d="M23.0617 19.7827C23.0617 22.973 23.088 26.1652 23.0547 29.3538C23.023 32.3193 22.2377 35.1143 20.957 37.7706C20.4493 38.823 19.7958 39.8033 19.014 40.6729C16.6581 43.2976 13.7857 45.0913 10.3933 46.0962C7.81782 46.8586 5.21599 47.217 2.52982 47.1292C1.27897 47.0888 0.122989 46.0277 0.063257 44.5994C0.0193368 43.5488 0.0175799 42.5 0.0158231 41.4494C0.00703907 33.0782 -0.0175563 24.7052 0.0210936 16.334C0.0281208 14.637 0.952204 13.3791 2.44022 12.5516C3.37836 12.0281 4.37447 11.7558 5.45491 11.7593C9.11435 11.7681 12.7738 11.7628 16.4332 11.7646C16.579 11.7646 16.7266 11.7646 16.8724 11.7646C17.7298 11.7575 17.7262 11.7575 17.7368 10.8932C17.7491 9.80396 17.6138 8.73934 17.2396 7.70985C16.7108 6.24818 15.9079 5.63505 14.3602 5.62802C10.3494 5.61221 6.33859 5.61924 2.32954 5.62275C1.1437 5.62275 1.23154 5.64384 1.23154 4.52123C1.23154 3.29146 1.22627 2.0617 1.23154 0.833685C1.23505 0.0202812 1.24208 0.00974043 2.07305 0.00798362C5.32315 0.00446999 8.5715 0.00798362 11.8216 0.00798362C12.6122 0.00798362 13.4027 -0.0130981 14.1933 0.0132541C15.8851 0.0712288 17.4979 0.45597 18.9226 1.39762C20.9781 2.75564 22.1499 4.72327 22.7261 7.08618C23.0336 8.34581 23.1056 9.62126 23.0968 10.9125C23.0792 13.8692 23.0915 16.8259 23.0915 19.7827C23.0828 19.7827 23.0722 19.7827 23.0634 19.7827H23.0617ZM13.8736 38.1097C15.4108 36.8378 16.3788 35.2057 16.8847 33.2943C17.1588 32.2595 17.5787 31.2599 17.5787 30.1584C17.5769 26.0896 17.5945 22.0191 17.5962 17.9503C17.5962 17.2669 17.5787 17.2493 16.9181 17.2476C13.3465 17.2423 9.77491 17.2423 6.20331 17.2476C5.5164 17.2476 5.5164 17.2634 5.49708 17.9169C5.49356 18.0346 5.49708 18.1506 5.49708 18.2683C5.49708 25.6469 5.49708 33.0237 5.49708 40.4024C5.49708 40.6079 5.50762 40.8117 5.49708 41.0172C5.48302 41.3704 5.671 41.4582 5.99074 41.46C6.49494 41.46 6.9728 41.3089 7.45768 41.2175C8.24297 41.0717 8.2377 41.0453 8.24473 40.2513C8.24473 40.1055 8.24473 39.9579 8.24473 39.8121C8.24473 34.6593 8.24473 29.5066 8.24473 24.3539C8.24473 24.1483 8.25527 23.9428 8.24473 23.739C8.22189 23.3455 8.36419 23.1417 8.79285 23.1452C10.2861 23.1557 11.7794 23.1522 13.2727 23.1487C13.5889 23.1487 13.7717 23.2734 13.7664 23.6107C13.7629 23.8444 13.7699 24.0798 13.7699 24.3135C13.7699 28.2066 13.7699 32.1014 13.7717 35.9945C13.7717 36.6972 13.7963 37.3982 13.8086 38.1009C13.8156 38.2274 13.8437 38.1905 13.8753 38.108L13.8736 38.1097Z" fill="#FAFAFA"/>
<path d="M32.0265 32.1473C32.0265 35.6891 32.0757 39.2308 32.0124 42.7708C31.9527 46.1403 30.8002 49.1779 28.8589 51.9079C27.255 54.1654 25.1134 55.7922 22.7118 57.1485C20.7126 58.2781 18.5693 58.9492 16.375 59.4745C14.5936 59.9014 12.7736 60.1263 10.9236 60.0999C9.56387 60.0806 8.19707 58.9791 8.23923 57.3751C8.31126 54.6556 8.25504 51.9325 8.25856 49.2112C8.25856 48.4699 8.2691 48.4593 9.00872 48.2801C10.2912 47.9709 11.5297 47.537 12.7419 47.024C12.9299 46.9449 13.1249 46.8782 13.3147 46.8062C13.5659 46.7113 13.7135 46.7903 13.7275 47.0662C13.7381 47.27 13.7381 47.4755 13.7381 47.681C13.7381 49.6417 13.7345 51.6023 13.7416 53.5629C13.7433 54.2726 13.8171 54.378 14.49 54.241C16.9284 53.7438 19.2597 53.027 21.3749 51.5864C22.4114 50.8802 23.1352 49.9104 24.0857 49.1497C24.5741 48.7597 24.7937 48.0307 25.1239 47.4491C25.3242 47.096 25.4613 46.7095 25.7142 46.3792C25.8917 46.1474 26.0287 45.8627 26.0006 45.5658C25.9637 45.1969 26.092 44.8526 26.2114 44.5504C26.6647 43.4085 26.6805 42.2174 26.684 41.0315C26.6998 35.0021 26.7016 28.9745 26.684 22.9451C26.6805 21.9578 26.5997 20.9705 26.3766 19.9955C26.2079 19.2594 25.8513 18.6374 25.3699 18.0823C25.1503 17.8293 24.9816 17.5939 24.9834 17.2373C24.9957 15.7159 24.9799 14.1945 24.9939 12.6713C24.9975 12.1513 25.1837 12.0125 25.6211 12.1197C27.717 12.6379 29.263 13.9274 30.3751 15.7053C31.4608 17.4393 32.0177 19.3771 32.0335 21.4325C32.0598 25.0024 32.0405 28.5722 32.0405 32.1438C32.037 32.1438 32.0335 32.1438 32.03 32.1438L32.0265 32.1473Z" fill="#FAFAFA"/>
</svg>
