<svg width="204" height="61" viewBox="0 0 204 61" fill="none" xmlns="http://www.w3.org/2000/svg">
<path d="M23.0617 19.7827C23.0617 22.973 23.088 26.1652 23.0547 29.3538C23.023 32.3193 22.2377 35.1144 20.957 37.7707C20.4493 38.823 19.7958 39.8033 19.014 40.6729C16.6581 43.2976 13.7857 45.0913 10.3933 46.0962C7.81782 46.8586 5.21599 47.217 2.52982 47.1292C1.27897 47.0888 0.122989 46.0277 0.063257 44.5994C0.0193368 43.5488 0.0175799 42.5 0.0158231 41.4494C0.00703907 33.0782 -0.0175563 24.7052 0.0210936 16.334C0.0281208 14.637 0.952204 13.3791 2.44022 12.5516C3.37836 12.0281 4.37447 11.7558 5.45491 11.7593C9.11435 11.7681 12.7738 11.7628 16.4332 11.7646C16.579 11.7646 16.7266 11.7646 16.8724 11.7646C17.7298 11.7575 17.7262 11.7575 17.7368 10.8932C17.7491 9.80397 17.6138 8.73934 17.2396 7.70985C16.7108 6.24818 15.9079 5.63505 14.3602 5.62802C10.3494 5.61221 6.33859 5.61924 2.32954 5.62275C1.1437 5.62275 1.23154 5.64384 1.23154 4.52123C1.23154 3.29146 1.22627 2.0617 1.23154 0.833685C1.23505 0.0202812 1.24208 0.00974043 2.07305 0.00798362C5.32315 0.00446999 8.5715 0.00798362 11.8216 0.00798362C12.6122 0.00798362 13.4027 -0.0130981 14.1933 0.0132541C15.8851 0.0712288 17.4979 0.45597 18.9226 1.39762C20.9781 2.75564 22.1499 4.72327 22.7261 7.08618C23.0336 8.34581 23.1056 9.62126 23.0968 10.9125C23.0792 13.8692 23.0915 16.8259 23.0915 19.7827C23.0828 19.7827 23.0722 19.7827 23.0634 19.7827H23.0617ZM13.8736 38.1097C15.4108 36.8378 16.3788 35.2057 16.8847 33.2943C17.1588 32.2595 17.5787 31.2599 17.5787 30.1584C17.5769 26.0896 17.5945 22.0191 17.5962 17.9503C17.5962 17.2669 17.5787 17.2493 16.9181 17.2476C13.3465 17.2423 9.77491 17.2423 6.20331 17.2476C5.5164 17.2476 5.5164 17.2634 5.49708 17.9169C5.49356 18.0346 5.49708 18.1506 5.49708 18.2683C5.49708 25.6469 5.49708 33.0237 5.49708 40.4024C5.49708 40.6079 5.50762 40.8117 5.49708 41.0172C5.48302 41.3704 5.671 41.4582 5.99074 41.46C6.49494 41.46 6.9728 41.3089 7.45768 41.2175C8.24297 41.0717 8.2377 41.0453 8.24473 40.2513C8.24473 40.1055 8.24473 39.9579 8.24473 39.8121C8.24473 34.6593 8.24473 29.5066 8.24473 24.3539C8.24473 24.1483 8.25527 23.9428 8.24473 23.739C8.22189 23.3455 8.36419 23.1417 8.79285 23.1452C10.2861 23.1557 11.7794 23.1522 13.2727 23.1487C13.5889 23.1487 13.7717 23.2734 13.7664 23.6107C13.7629 23.8444 13.7699 24.0798 13.7699 24.3135C13.7699 28.2066 13.7699 32.1014 13.7717 35.9945C13.7717 36.6972 13.7963 37.3982 13.8086 38.1009C13.8156 38.2274 13.8437 38.1905 13.8753 38.108L13.8736 38.1097Z" fill="#FAFAFA"/>
<path d="M32.0265 32.1473C32.0265 35.6891 32.0757 39.2308 32.0124 42.7708C31.9527 46.1403 30.8002 49.1779 28.8589 51.9079C27.255 54.1654 25.1134 55.7922 22.7118 57.1485C20.7126 58.2781 18.5693 58.9492 16.375 59.4745C14.5936 59.9014 12.7736 60.1263 10.9236 60.0999C9.56387 60.0806 8.19707 58.9791 8.23923 57.3751C8.31126 54.6556 8.25504 51.9325 8.25856 49.2112C8.25856 48.4699 8.2691 48.4593 9.00872 48.2801C10.2912 47.9709 11.5297 47.537 12.7419 47.024C12.9299 46.9449 13.1249 46.8782 13.3147 46.8062C13.5659 46.7113 13.7135 46.7903 13.7275 47.0662C13.7381 47.27 13.7381 47.4755 13.7381 47.681C13.7381 49.6416 13.7345 51.6023 13.7416 53.5629C13.7433 54.2726 13.8171 54.378 14.49 54.241C16.9284 53.7438 19.2597 53.027 21.3749 51.5864C22.4114 50.8802 23.1352 49.9104 24.0857 49.1497C24.5741 48.7597 24.7937 48.0307 25.1239 47.4491C25.3242 47.096 25.4613 46.7095 25.7142 46.3793C25.8917 46.1474 26.0287 45.8627 26.0006 45.5658C25.9637 45.1969 26.092 44.8526 26.2114 44.5504C26.6647 43.4085 26.6805 42.2174 26.684 41.0315C26.6998 35.0021 26.7016 28.9745 26.684 22.9451C26.6805 21.9578 26.5997 20.9705 26.3766 19.9955C26.2079 19.2594 25.8513 18.6374 25.3699 18.0823C25.1503 17.8293 24.9816 17.5939 24.9834 17.2373C24.9957 15.7159 24.9799 14.1945 24.9939 12.6713C24.9975 12.1513 25.1837 12.0125 25.6211 12.1197C27.717 12.6379 29.263 13.9274 30.3751 15.7053C31.4608 17.4393 32.0177 19.3771 32.0335 21.4325C32.0598 25.0024 32.0405 28.5722 32.0405 32.1438C32.037 32.1438 32.0335 32.1438 32.03 32.1438L32.0265 32.1473Z" fill="#FAFAFA"/>
<path d="M49.0484 29.9422C49.0484 25.968 49.0484 21.9961 49.0484 18.0219C49.0484 17.7198 49.0529 17.4155 49.0552 17.1135C49.0597 16.7411 49.2596 16.5526 49.6206 16.5594C51.6214 16.5934 53.6493 16.3028 55.6115 16.8024C59.1065 17.6903 61.0936 20.0658 62.1178 23.4609C62.9058 26.0725 63.0171 28.7204 62.9603 31.4002C62.9104 33.7847 62.5016 36.1192 61.5228 38.288C60.2261 41.1631 58.1345 43.0661 54.8234 43.4295C53.1202 43.618 51.4261 43.5022 49.7297 43.5657C49.2596 43.5839 49.0302 43.3636 49.0484 42.8845C49.0597 42.621 49.0484 42.3553 49.0484 42.0896C49.0484 38.0405 49.0484 33.9913 49.0484 29.9422ZM53.9082 30.0694C53.9082 32.7173 53.9037 35.3653 53.9082 38.0132C53.9082 39.0261 54.1876 39.2237 55.1232 38.8467C55.9703 38.506 56.5448 37.8611 56.9195 37.0413C57.6031 35.547 57.9029 33.9686 57.9188 32.3313C57.9301 30.8937 57.9074 29.4562 57.9324 28.0187C57.9596 26.4131 57.6258 24.8779 56.9604 23.4381C56.5426 22.5343 56.077 21.5964 54.9892 21.2444C54.124 20.9651 53.9151 21.0922 53.9105 22.0097C53.9037 24.6963 53.9082 27.3806 53.9082 30.0671V30.0694Z" fill="#FAFAFA"/>
<path d="M102.287 32.447C102.278 34.2638 102.259 36.0805 102.262 37.8973C102.262 38.7784 102.282 38.7943 103.141 38.8034C104.39 38.817 105.639 38.7943 106.888 38.8125C107.832 38.8261 107.919 38.917 107.932 39.8617C107.946 40.7701 107.948 41.6785 107.932 42.5869C107.916 43.4158 107.81 43.5566 107.044 43.5611C104.017 43.5793 100.988 43.5679 97.9605 43.5679C97.5949 43.5679 97.3474 43.5497 97.3496 43.0206C97.3814 34.7702 97.386 26.5198 97.395 18.2693C97.395 17.1278 97.9545 16.5547 99.0733 16.5502C101.61 16.5457 104.144 16.5434 106.681 16.5502C107.739 16.5547 107.744 16.5684 107.753 17.6403C107.76 18.51 107.762 19.3821 107.753 20.2519C107.742 21.2852 107.73 21.2988 106.645 21.3056C105.509 21.3147 104.374 21.3011 103.238 21.3102C102.282 21.3192 102.269 21.326 102.262 22.2322C102.25 23.7469 102.25 25.2594 102.262 26.7741C102.269 27.6189 102.284 27.628 103.172 27.6393C104.194 27.6507 105.216 27.628 106.238 27.6484C107.017 27.6643 107.069 27.7166 107.083 28.5C107.101 29.4834 107.103 30.469 107.083 31.4523C107.067 32.2267 107.033 32.2539 106.211 32.2698C104.962 32.2926 103.713 32.2926 102.464 32.2994C102.355 32.288 102.296 32.3357 102.287 32.4447V32.447Z" fill="#FAFAFA"/>
<path d="M200.25 35.0315C200.406 34.6614 200.329 34.2458 200.329 33.8483C200.336 28.5911 200.334 23.3315 200.334 18.0742C200.334 17.8085 200.352 17.5428 200.334 17.2794C200.295 16.7548 200.509 16.5368 201.051 16.5368C203.313 16.5322 203.075 16.4709 203.075 18.4444C203.075 26.3133 203.075 34.1822 203.075 42.0511C203.075 43.584 203.038 43.5885 201.467 43.5885C200.795 43.5885 200.474 43.3274 200.222 42.7097C199.178 40.1344 198.36 37.4774 197.336 34.8975C196.509 32.8151 195.83 30.6758 195.008 28.5956C194.413 27.0877 193.877 25.5593 193.126 24.0423V24.8621C193.126 30.6508 193.126 36.4373 193.126 42.226C193.126 43.1298 192.665 43.5794 191.745 43.5749C191.556 43.5749 191.366 43.5704 191.177 43.5704C190.771 43.5704 190.537 43.391 190.541 42.9617C190.544 42.7347 190.537 42.5076 190.537 42.2805C190.537 34.1481 190.537 26.0135 190.537 17.8812C190.537 17.729 190.532 17.5791 190.537 17.427C190.568 16.6185 190.593 16.5913 191.366 16.5504C191.515 16.5413 191.668 16.5504 191.82 16.5504C193.128 16.5458 193.078 16.5663 193.548 17.7722C194.232 19.5322 194.847 21.3149 195.553 23.0681C196.01 24.2013 196.396 25.389 196.83 26.5336C197.45 28.1687 197.915 29.8537 198.571 31.4752C198.992 32.513 199.353 33.5781 199.734 34.6318C199.814 34.8498 199.884 35.0542 200.25 35.0383V35.0315Z" fill="#FAFAFA"/>
<path d="M72.0101 37.7929C72.4801 37.6498 72.6505 37.9064 72.8662 38.0336C73.8654 38.615 74.9646 38.8716 76.0933 38.9806C78.0213 39.1691 79.075 37.8428 78.5118 35.9806C78.2938 35.2585 77.9305 34.5908 77.4717 34.0049C76.6451 32.9512 75.7503 31.9497 74.8806 30.93C73.9268 29.8149 73.0093 28.6863 72.3848 27.3282C71.247 24.8552 71.2016 22.3117 72.3166 19.9181C73.0956 18.2489 74.49 17.0385 76.5111 16.6615C78.362 16.3163 80.0788 16.5389 81.8138 17.1316C82.2408 17.2792 82.4724 17.4859 82.4747 17.9128C82.486 19.1596 82.4997 20.4086 82.4701 21.6554C82.4543 22.2458 82.2521 22.3389 81.6481 22.0687C80.9304 21.7462 80.2219 21.4237 79.4588 21.2034C78.664 20.9763 77.985 21.3124 77.2878 21.5236C77.0425 21.5986 76.745 21.9188 76.6996 22.1686C76.5248 23.1315 76.3476 24.1512 76.9267 25.0277C77.3378 25.65 77.851 26.2132 78.3415 26.7855C79.9562 28.6658 81.6481 30.4985 82.7222 32.7763C84.1529 35.808 83.5693 39.7323 81.287 41.9873C80.2469 43.0161 78.9751 43.4794 77.5694 43.6156C76.2522 43.7428 74.9351 43.6156 73.6429 43.3613C73.1864 43.2727 72.7708 42.9616 72.3394 42.7458C72.1645 42.6595 72.0169 42.5392 72.0123 42.3234C71.9828 40.7951 71.9737 39.2644 72.0123 37.786L72.0101 37.7929Z" fill="#FAFAFA"/>
<path d="M94.7993 19.8115C94.7993 20.4156 94.8197 21.0219 94.7925 21.626C94.7652 22.2278 94.6199 22.3277 94.1203 22.0007C93.3709 21.5102 92.5374 21.324 91.6858 21.1673C90.682 20.9833 89.7532 21.1582 89.2014 22.0825C88.6631 22.9818 88.679 23.9923 89.2309 24.8735C89.726 25.666 90.3482 26.3859 90.9659 27.0945C92.1559 28.4548 93.3368 29.8197 94.302 31.3548C95.3625 33.0444 96.1119 34.8521 95.9053 36.8846C95.6191 39.6916 94.5767 42.0465 91.7335 43.207C91.3065 43.3819 90.8569 43.5022 90.4368 43.5522C88.6745 43.7611 86.9122 43.7203 85.2203 43.0662C84.639 42.8414 84.2983 42.4531 84.3051 41.7877C84.321 40.6158 84.2938 39.444 84.3165 38.2722C84.3301 37.6704 84.4505 37.6068 85.0069 37.8657C85.4497 38.0724 85.8585 38.3517 86.3013 38.5583C87.4732 39.1011 88.679 39.2555 89.8781 38.6719C90.7638 38.2404 90.9954 37.4478 90.9159 36.4327C90.8115 35.0747 89.9462 34.1867 89.2014 33.2193C88.2385 31.968 87.1507 30.8211 86.181 29.5698C84.9864 28.0301 84.2575 26.3564 84.0145 24.4147C83.776 22.5094 84.312 20.8062 85.1454 19.1665C85.9539 17.5814 87.5049 16.9228 89.0742 16.6026C90.7661 16.2574 92.5215 16.3301 94.1771 17.0818C94.6244 17.2862 94.8288 17.5065 94.8038 17.997C94.772 18.6011 94.797 19.2051 94.797 19.8115H94.7993Z" fill="#FAFAFA"/>
<path d="M128.116 29.9466C128.116 25.9724 128.116 22.0004 128.116 18.0262C128.116 17.7605 128.13 17.4948 128.116 17.2314C128.091 16.7636 128.278 16.5728 128.77 16.5388C131.337 16.3639 133.814 16.6296 136.083 17.9513C136.739 18.3328 137.307 18.8483 137.745 19.4774C138.52 20.5879 139.108 21.7847 139.571 23.0678C140.811 26.4992 140.834 30.017 140.45 33.571C140.2 35.8806 139.492 38.063 138.24 40.0138C136.719 42.3869 134.409 43.4475 131.643 43.5587C130.699 43.5974 129.752 43.5587 128.805 43.5656C128.332 43.5701 128.11 43.368 128.119 42.8865C128.13 42.2802 128.119 41.6761 128.119 41.0698C128.119 37.3613 128.119 33.6528 128.119 29.9443L128.116 29.9466ZM130.882 29.9329C130.882 33.3326 130.878 36.7322 130.885 40.1319C130.885 41.0175 130.903 41.0175 131.75 41.0334C134.062 41.0766 135.856 39.714 136.776 37.3476C137.523 35.4196 137.759 33.4121 137.845 31.3818C137.913 29.7626 137.854 28.1434 137.666 26.5242C137.471 24.8255 137.01 23.2109 136.183 21.7393C135.263 20.0996 133.871 19.0754 131.884 19.0822C130.896 19.0868 130.887 19.0822 130.885 20.0747C130.88 23.3607 130.885 26.6468 130.885 29.9329H130.882Z" fill="#FAFAFA"/>
<path d="M109.924 30.0013C109.924 25.9953 109.924 21.9893 109.924 17.981C109.924 17.7153 109.931 17.4519 109.924 17.1885C109.915 16.7683 110.115 16.5571 110.535 16.5571C111.745 16.5571 112.954 16.5571 114.164 16.5571C114.58 16.5571 114.791 16.7592 114.782 17.1839C114.775 17.486 114.782 17.788 114.782 18.09C114.782 24.4783 114.782 30.8642 114.782 37.2525C114.782 37.4796 114.777 37.7067 114.782 37.9338C114.807 38.7831 114.807 38.7922 115.69 38.8035C116.71 38.8149 117.732 38.7967 118.751 38.8104C119.701 38.8217 119.73 38.8467 119.744 39.7437C119.757 40.7271 119.76 41.7104 119.744 42.6914C119.73 43.4999 119.692 43.5589 118.922 43.5635C116.201 43.5794 113.478 43.5794 110.758 43.5635C109.963 43.5589 109.926 43.5044 109.924 42.5892C109.917 38.3948 109.922 34.198 109.922 30.0035L109.924 30.0013Z" fill="#FAFAFA"/>
<path d="M187.005 36.0262C187.005 37.9565 186.987 39.8868 187.017 41.8171C187.026 42.4212 186.837 42.7664 186.283 43.0616C183.463 44.5582 179.382 43.7793 177.349 40.8452C175.675 38.4311 174.965 35.7423 174.865 32.8468C174.785 30.5463 174.635 28.2186 174.958 25.9567C175.335 23.3178 176.177 20.7584 178.06 18.7146C179.777 16.8501 181.943 16.1893 184.405 16.5163C185.059 16.6026 185.679 16.9523 186.315 17.1749C186.465 17.2271 186.619 17.3043 186.644 17.4565C186.762 18.2059 186.769 18.9621 186.644 19.7093C186.599 19.9909 186.324 19.9636 186.09 19.8637C185.509 19.6207 184.941 19.3845 184.307 19.246C182.361 18.8168 180.703 19.3345 179.584 20.9946C178.596 22.4594 177.94 24.0377 177.808 25.8659C177.687 27.5191 177.404 29.1633 177.476 30.8302C177.533 32.1496 177.465 33.5077 177.756 34.7794C178.121 36.3714 178.494 38.011 179.575 39.3463C180.603 40.6158 181.821 41.447 183.547 41.2607C184.321 41.179 184.441 41.095 184.446 40.282C184.457 37.709 184.441 35.1359 184.457 32.5629C184.462 31.9929 184.278 31.7272 183.676 31.7567C183.033 31.7885 182.388 31.7522 181.746 31.7636C181.239 31.7726 180.98 31.5932 180.98 31.0414C180.983 28.8431 180.88 29.2564 182.686 29.2292C183.821 29.211 184.957 29.2133 186.092 29.2292C186.964 29.2405 186.992 29.2632 186.998 30.1285C187.012 32.0951 187.003 34.0641 187.003 36.033L187.005 36.0262Z" fill="#FAFAFA"/>
<path d="M65.1426 16.5572C66.5279 16.5572 67.9178 16.5504 69.3053 16.5617C69.755 16.5663 69.9957 16.8184 70.0002 17.2771C70.0002 17.5405 70.0048 17.8062 70.0048 18.0697C70.0048 26.0794 70.0048 34.0891 70.0048 42.0988C70.0048 42.2873 70.0139 42.478 70.0025 42.6665C69.9616 43.3978 69.8504 43.5431 69.1418 43.5613C67.9723 43.5885 66.8005 43.5636 65.6286 43.5704C65.2062 43.5704 65.0064 43.3819 65.0132 42.9572C65.0223 42.4667 64.9541 41.9648 65.0336 41.4856C65.1699 40.6567 65.1426 39.8301 65.1426 39.0012C65.1472 32.1996 65.1426 25.4004 65.1426 18.5988V16.5617V16.5572Z" fill="#FAFAFA"/>
<path d="M143.559 29.9102C143.559 25.9382 143.559 21.9686 143.559 17.9966C143.559 17.7309 143.575 17.4652 143.559 17.2018C143.53 16.7067 143.771 16.5364 144.243 16.5432C145.265 16.5591 146.285 16.5455 147.307 16.5455C148.971 16.5455 150.636 16.5341 152.298 16.5523C153.093 16.5614 153.163 16.625 153.168 17.3812C153.179 19.3978 153.297 19.0913 151.503 19.1094C150.066 19.123 148.628 19.1049 147.191 19.1162C146.357 19.123 146.332 19.1367 146.33 19.9043C146.319 22.5885 146.339 25.2751 146.316 27.9594C146.312 28.5476 146.507 28.7542 147.1 28.7406C148.612 28.7088 150.125 28.7202 151.637 28.7361C152.453 28.7451 152.493 28.7792 152.5 29.5604C152.516 31.4953 152.648 31.2886 150.829 31.2977C149.657 31.3023 148.483 31.2909 147.311 31.3C146.341 31.3068 146.33 31.3159 146.328 32.3265C146.321 34.8972 146.321 37.4702 146.328 40.0409C146.33 40.9811 146.341 40.9925 147.25 40.997C148.876 41.0061 150.502 40.997 152.128 41.0016C153.345 41.0038 153.345 41.0084 153.354 42.162C153.363 43.5314 153.338 43.5632 151.973 43.5632C149.553 43.5655 147.132 43.57 144.711 43.5609C143.634 43.5564 143.562 43.4815 143.559 42.3869C143.553 38.2264 143.557 34.066 143.557 29.9056L143.559 29.9102Z" fill="#FAFAFA"/>
<path d="M159.842 43.8268C158.393 43.988 157.096 43.334 155.775 42.8003C155.364 42.6345 155.137 42.2962 155.159 41.8124C155.182 41.3219 155.162 40.8291 155.166 40.3386C155.166 40.1138 155.15 39.8526 155.411 39.7595C155.654 39.6709 155.831 39.8503 156.006 39.9957C157.455 41.2175 159.195 41.331 160.959 41.2038C161.886 41.1357 162.937 39.7686 163.067 38.6535C163.233 37.2205 162.969 35.8852 162.236 34.6271C161.336 33.0874 160.199 31.7271 159.154 30.2941C158.309 29.1359 157.439 27.9891 156.663 26.7854C155.405 24.8392 154.894 22.7363 155.529 20.429C156.401 17.2746 159.835 15.4806 162.837 16.5706C163.435 16.7886 164.034 16.9976 164.622 17.236C165.002 17.3904 165.206 17.6743 165.179 18.1194C165.149 18.61 165.19 19.1028 165.165 19.5933C165.133 20.1883 165.029 20.2405 164.473 19.9339C163.439 19.3685 162.372 18.962 161.175 18.8598C159.526 18.7167 157.764 20.488 157.921 22.0391C158.021 23.0224 158.091 23.9445 158.654 24.8142C159.354 25.893 160.103 26.9331 160.873 27.9595C162.288 29.8467 163.882 31.6113 164.874 33.7868C165.329 34.7793 165.751 35.7921 165.84 36.8867C166.028 39.169 165.306 41.1516 163.537 42.6141C162.519 43.4544 161.286 43.9676 159.842 43.8268Z" fill="#FAFAFA"/>
<path d="M168.783 30.0577C168.783 26.0085 168.783 21.9594 168.783 17.9103C168.783 17.6082 168.783 17.3039 168.797 17.0019C168.808 16.7407 168.949 16.584 169.217 16.5613C169.33 16.5522 169.444 16.5477 169.557 16.5477C171.953 16.5477 171.538 16.3819 171.54 18.4212C171.556 26.2924 171.547 34.1636 171.547 42.0325C171.547 42.2982 171.531 42.5639 171.547 42.8273C171.581 43.3633 171.329 43.5722 170.806 43.5699C168.331 43.554 168.803 43.7879 168.79 41.7486C168.765 37.8516 168.783 33.9547 168.783 30.0554V30.0577Z" fill="#FAFAFA"/>
</svg>
