<svg width="40" height="40" viewBox="0 0 40 40" fill="none" xmlns="http://www.w3.org/2000/svg">
<path d="M27.3567 21.3568C27.3567 22.0181 27.3723 22.5749 27.3536 23.1301C27.221 27.1133 25.9063 30.6519 23.3003 33.6806C20.83 36.5534 17.7171 38.3719 14.0318 39.225C13.3347 39.3856 12.6282 39.487 11.9202 39.5727C11.3026 39.6476 10.7396 39.2265 10.6257 38.6354C10.4807 37.8775 10.8815 37.1476 11.5833 36.987C12.1884 36.8482 12.8185 36.8076 13.422 36.661C18.9398 35.3198 22.5673 31.9698 24.1752 26.4894C24.2033 26.3943 24.2158 26.2929 24.2579 26.0855C23.9928 26.3881 23.8087 26.6189 23.6029 26.8279C21.0577 29.4277 18.0181 31.1463 14.4264 31.7795C9.26735 32.6888 4.64792 31.3974 0.541588 28.1894C-0.0557246 27.7231 -0.160215 27.0836 0.234354 26.505C0.633603 25.9202 1.43054 25.6987 2.02317 26.059C2.54251 26.3756 3.01506 26.7701 3.52815 27.1008C5.78172 28.559 8.24428 29.3357 10.9376 29.4355C13.6466 29.5353 16.117 28.7945 18.4532 27.4922C18.4953 27.4688 18.5499 27.4517 18.5405 27.3628C17.9276 27.2988 17.3116 27.3955 16.6924 27.3675C13.1772 27.2068 9.98943 26.1198 7.18533 23.9957C3.63108 21.3101 1.48201 17.7324 0.639841 13.3656C0.558744 12.946 0.515076 12.5187 0.452693 12.0945C0.341964 11.3475 0.691307 10.7751 1.34632 10.6316C2.10115 10.4663 2.86066 10.8858 3.01662 11.6063C3.19597 12.4298 3.25367 13.2767 3.49072 14.0908C4.98791 19.2327 8.25987 22.6232 13.4173 24.1516C13.539 24.1875 13.6653 24.2124 13.801 24.2452C13.7963 24.0846 13.6731 24.0409 13.5936 23.9723C11.1575 21.8278 9.54183 19.1594 8.59518 16.0745C8.12263 14.5368 7.90897 12.9507 7.92301 11.3475C7.94952 8.37022 8.69031 5.56921 10.1547 2.96783C10.6086 2.16309 11.1248 1.39889 11.6956 0.672127C12.2477 -0.0312439 12.9152 -0.19344 13.514 0.237004C14.1737 0.711116 14.3157 1.57668 13.787 2.26758C12.9542 3.35772 12.2134 4.49778 11.694 5.76884C10.1126 9.6366 10.1236 13.481 11.9093 17.2863C12.112 17.7183 12.3397 18.1394 12.5845 18.6213C12.6937 18.4139 12.65 18.2595 12.6454 18.1145C12.4988 14.0019 13.6123 10.2729 16.131 7.01026C18.801 3.55267 22.3365 1.47219 26.6144 0.642495C27.0339 0.561397 27.4612 0.519288 27.8854 0.453786C28.6527 0.336817 29.2422 0.69708 29.3717 1.36302C29.5214 2.13657 29.105 2.86022 28.3767 3.02086C27.77 3.15498 27.14 3.19397 26.538 3.34369C21.0421 4.6974 17.4254 8.04426 15.8238 13.509C15.7988 13.5964 15.7832 13.6853 15.7661 13.7742C15.7645 13.7835 15.7785 13.796 15.8066 13.8397C16.0062 13.612 16.1918 13.3811 16.3961 13.1706C18.9632 10.5536 22.0261 8.83029 25.649 8.20646C30.7831 7.32218 35.3745 8.61975 39.4574 11.8091C40.0547 12.2754 40.1608 12.9133 39.7662 13.4934C39.3669 14.0783 38.5684 14.2997 37.9774 13.9379C37.4253 13.5995 36.9184 13.1862 36.3726 12.8369C34.158 11.4176 31.7391 10.6706 29.1034 10.5645C26.3804 10.4554 23.8976 11.1962 21.5489 12.5062C21.5068 12.5296 21.4522 12.5468 21.4631 12.6372C22.1026 12.6965 22.7435 12.5967 23.3892 12.631C27.299 12.8447 30.7628 14.1656 33.726 16.7374C36.8514 19.4495 38.6994 22.8837 39.4215 26.9417C39.4777 27.2614 39.5026 27.5858 39.5494 27.9071C39.6586 28.6494 39.3077 29.2265 38.6527 29.37C37.8978 29.5353 37.1383 29.1158 36.9824 28.3952C36.803 27.5718 36.7469 26.7249 36.5098 25.9108C34.997 20.7221 31.6876 17.3222 26.4693 15.8203C26.3945 15.7985 26.3181 15.7845 26.2416 15.7673C26.2307 15.7657 26.2183 15.7735 26.198 15.7798C26.2011 15.9155 26.3243 15.9591 26.4038 16.0293C28.8321 18.1628 30.44 20.8219 31.3929 23.8896C31.8701 25.4242 32.0884 27.0119 32.076 28.6151C32.0526 31.6064 31.3149 34.4215 29.8442 37.0337C29.3779 37.8619 28.8461 38.6464 28.2519 39.3887C27.7341 40.0359 27.0682 40.1825 26.4865 39.7646C25.8611 39.317 25.6864 38.4701 26.1481 37.8307C26.7953 36.9339 27.4565 36.0481 27.9322 35.0453C30.1016 30.4804 29.9721 25.9857 27.508 21.5674C27.4831 21.5237 27.4503 21.4847 27.3583 21.3584L27.3567 21.3568Z" fill="#16CEFF"/>
</svg>
