<svg width="160" height="56" viewBox="0 0 160 56" fill="none" xmlns="http://www.w3.org/2000/svg">
<g clip-path="url(#clip0_432_1829)">
<path d="M88.7924 55.5C88.7205 55.3912 88.6656 55.1987 88.5768 55.1819C82.4054 54.0729 79.0618 49.2308 79.0661 42.6058C79.0703 32.7626 78.9984 22.9152 79.1379 13.0719C79.2394 5.63088 83.4283 1.41653 90.8763 0.872469C95.3822 0.864099 99.8924 0.859914 104.398 0.851543C111.931 1.34119 116.395 5.54299 116.505 12.7455C116.661 23.07 116.636 33.3987 116.505 43.7233C116.433 49.4359 113.279 53.3782 108.182 54.9099C107.476 55.1233 106.618 54.8095 106.051 55.4958H88.7924V55.5ZM108.587 25.1165C108.232 25.1374 108.067 25.0998 107.979 25.1625C101.3 29.8456 94.6298 34.5287 87.9639 39.2285C87.6384 39.4587 87.2537 39.7391 87.1185 40.0823C85.7574 43.4931 88.3359 47.4773 92.0641 47.5819C95.7754 47.6865 99.4909 47.6488 103.206 47.5944C106.651 47.5442 108.541 45.707 108.575 42.3003C108.63 36.6128 108.592 30.9254 108.592 25.1165H108.587ZM87.0847 31.5322C94.1945 26.531 100.975 21.7643 107.75 16.9933C108.025 16.8008 108.363 16.5957 108.499 16.3195C109.902 13.3439 107.416 8.97892 104.064 8.83663C99.9389 8.66086 95.7965 8.69852 91.6667 8.8157C88.9784 8.89522 87.165 10.6739 87.1185 13.3188C87.017 19.2658 87.0847 25.2169 87.0847 31.5364V31.5322Z" fill="white"/>
<path d="M136.228 0.707486L136.836 0.608818C137.589 0.499981 137.914 0.504166 138.252 0.499981C139.389 0.485916 144.403 0.638138 147.645 0.608842C148.203 0.650693 148.761 0.792956 149.319 0.838992C154.89 1.32027 158.605 4.57625 159.835 9.93312C160.529 12.9589 160.161 16.0098 160.203 19.044C160.262 23.3044 158.694 26.6147 154.015 28.1088C157.908 29.0797 159.738 31.6787 160.064 35.123C160.368 38.3496 160.393 41.6558 160.047 44.8741C159.501 49.9255 156.758 53.4326 151.631 54.8597C150.988 55.0396 150.202 54.7174 149.703 55.387H134.55C134.287 54.6839 133.59 54.9476 133.104 54.8011C128.361 53.3489 125.347 49.7707 124.899 44.8574C124.658 42.2376 124.595 39.6093 124.726 36.9728C124.929 32.8589 126.205 29.4941 130.838 28.0628C126.599 26.6817 125.068 23.7396 124.781 19.8977C124.57 17.0561 124.62 14.2186 124.887 11.3895C125.394 6.00335 128.48 2.54649 133.776 1.14869C134.581 0.936178 135.082 0.81807 135.78 0.81807L136.228 0.707486ZM142.522 8.6776V8.66923C140.844 8.66923 139.161 8.58971 137.492 8.68597C134.655 8.85337 132.981 10.4814 132.812 13.2644C132.694 15.1937 132.69 17.1398 132.791 19.0649C132.96 22.2288 134.545 23.907 137.758 24.0786C140.894 24.246 144.052 24.2335 147.192 24.0828C150.304 23.9321 152.092 22.1744 152.235 19.3202C152.337 17.3197 152.337 15.3025 152.235 13.3021C152.092 10.5525 150.367 8.86593 147.556 8.69434C145.886 8.5939 144.204 8.6776 142.526 8.6776H142.522ZM142.429 47.494C144.107 47.494 145.789 47.5735 147.463 47.4772C150.346 47.3057 152.121 45.5312 152.239 42.7105C152.324 40.777 152.311 38.8309 152.239 36.8974C152.13 34.0725 150.392 32.2102 147.509 32.0888C144.157 31.9507 140.793 31.9674 137.441 32.093C134.723 32.1976 133.079 33.8842 132.812 36.5501C132.597 38.6886 132.588 40.8356 132.804 42.9741C133.083 45.7153 134.786 47.3433 137.601 47.4814C139.208 47.561 140.818 47.494 142.424 47.4898L142.429 47.494Z" fill="white"/>
<path d="M51.3325 0.914322C51.3705 3.06126 51.3621 5.20819 51.4635 7.35512C51.5185 8.48509 51.0493 8.75293 49.9883 8.74038C45.9219 8.69016 41.8556 8.70689 37.7892 8.72364C30.8907 8.75712 27.7881 11.8248 27.7628 18.6464C27.7543 20.4376 27.1372 22.8482 28.0502 23.861C29.1196 25.0412 31.6009 24.1958 33.465 24.2293C36.7578 24.2962 40.0549 24.1874 43.3477 24.2795C50.0179 24.4678 54.2322 28.2302 55.1537 34.6793C55.6863 38.4166 55.6355 42.1497 55.0649 45.866C54.321 50.7081 50.9351 54.1273 46.0825 55.0773C45.7021 55.1526 45.216 54.9727 45.0089 55.4916H29.8551C29.7199 55.3577 29.6015 55.1317 29.4409 55.1024C22.6692 53.6921 19.9597 49.009 19.8372 42.7816C19.6681 34.1813 19.723 25.5727 19.8372 16.9724C19.8837 13.4946 20.6234 10.0921 22.665 7.12494C25.8099 2.57579 30.4934 1.14869 35.7306 0.864101C40.9298 0.880842 46.1333 0.897582 51.3325 0.914322ZM35.8321 32.1348C33.5918 32.1348 31.3515 32.1976 29.1154 32.1097C27.9826 32.0637 27.712 32.4529 27.7374 33.5117C27.805 36.3492 27.7078 39.1908 27.7755 42.0283C27.8558 45.4433 29.6776 47.4354 32.9958 47.5651C36.2083 47.6907 39.4335 47.6823 42.646 47.5609C45.2202 47.4647 46.7166 46.0501 47.2577 43.5391C47.7142 41.4173 47.6043 39.2494 47.4056 37.1276C47.0843 33.6833 45.2414 32.1683 41.7076 32.1348C39.7505 32.1181 37.7892 32.1348 35.8321 32.1348Z" fill="white"/>
<path d="M11.9708 1.01895C12.0046 4.76039 12.0595 8.50182 12.0638 12.2433C12.0764 25.9033 12.0638 39.5633 12.0722 53.2275C12.0722 53.985 12.1441 54.7425 12.1863 55.5H4.18465C4.15083 54.7425 4.0832 53.985 4.0832 53.2275C4.07897 39.2494 4.04093 25.2672 4.12547 11.2891C4.13815 9.31791 3.82958 8.27165 1.5766 8.68178C0.946774 8.79478 0.0168363 8.91196 0.0717871 7.81966C0.190143 5.51369 -0.32555 3.17843 0.37613 0.897579C4.2396 0.93943 8.10307 0.977095 11.9665 1.01895H11.9708Z" fill="white"/>
<path d="M63.1172 55.5C63.1383 53.3489 63.2102 51.1978 63.1595 49.0466C63.1383 47.992 63.4173 47.54 64.567 47.5944C66.317 47.6781 68.0754 47.6907 69.8254 47.5944C71.0174 47.5275 71.2161 48.038 71.1781 49.0508C71.1062 51.2019 71.1273 53.3531 71.1147 55.5042H63.1172V55.5Z" fill="white"/>
</g>
<defs>
<clipPath id="clip0_432_1829">
<rect width="160" height="55" fill="white" transform="translate(0 0.5)"/>
</clipPath>
</defs>
</svg>
