<svg width="160" height="42" viewBox="0 0 160 42" fill="none" xmlns="http://www.w3.org/2000/svg">
<path d="M0 0.130478V2.62883H27.3846L19.586 9.04274H0V11.5411H16.5498L0 26.1806V29.3656L20.4492 11.5411H27.3995L0 34.9468V38.1318L34.3498 9.04274H23.4704L34.3201 0.130478H0Z" fill="white"/>
<path d="M0 41.8695H33.7253V39.3607H6.8857L33.7253 15.8661V12.5898L0 41.8695Z" fill="white"/>
<path d="M59.7987 9.47511H61.8293V23.8035H59.5615V14.9027L55.8116 20.6612H54.1219L50.3571 15.008V23.8035H48.0894V9.47511H50.12L54.9816 17.5339L59.7987 9.47511Z" fill="white"/>
<path d="M72.6204 20.8899C73.0632 20.3304 73.2846 19.5354 73.2846 18.5047C73.2846 17.4594 73.0632 16.6496 72.6204 16.0755C72.1776 15.516 71.5282 15.2215 70.7016 15.2215C69.8898 15.2215 69.2551 15.516 68.7976 16.1049C68.34 16.6938 68.1186 17.5036 68.1186 18.5342C68.1186 19.5648 68.34 20.3451 68.7976 20.9046C69.2551 21.4641 69.8898 21.7291 70.7311 21.7291C71.5429 21.7438 72.1776 21.4641 72.6204 20.8899ZM75.7201 13.5578V23.5253H73.2846V21.9205C72.9894 22.48 72.5466 22.9069 71.9857 23.2161C71.4249 23.5253 70.7754 23.6872 70.0522 23.6872C69.1813 23.6872 68.4138 23.4811 67.7348 23.0542C67.0706 22.6272 66.5393 22.0383 66.1703 21.258C65.8013 20.4776 65.6094 19.5795 65.6094 18.5489C65.6094 17.5183 65.8013 16.6202 66.1703 15.8252C66.5393 15.0301 67.0706 14.4118 67.7348 13.9701C68.4138 13.5284 69.1666 13.3075 70.0226 13.3075C70.7459 13.3075 71.3953 13.4695 71.9562 13.7787C72.5171 14.0878 72.9599 14.5148 73.2551 15.0743V13.5725H75.7201V13.5578Z" fill="white"/>
<path d="M85.9635 13.4842L85.9488 15.7369C85.5207 15.5602 85.0927 15.4866 84.6351 15.4866C83.7938 15.4866 83.1444 15.7369 82.7016 16.2227C82.2587 16.7086 82.0373 17.3564 82.0373 18.1514V23.5401H79.5872V16.3699C79.5872 15.3246 79.5281 14.3823 79.4248 13.5431H81.7421L81.934 15.2952C82.1849 14.6474 82.5835 14.1615 83.1148 13.8229C83.661 13.4842 84.2661 13.3076 84.9598 13.3076C85.3584 13.3223 85.6831 13.3665 85.9635 13.4842Z" fill="white"/>
<path d="M98.6768 23.8035H95.5643L91.1562 19.0725V23.8035H88.6841V8.8522H91.1562V18.0869L95.3111 13.5681H98.3193L93.7921 18.4659L98.6768 23.8035Z" fill="white"/>
<path d="M103.719 15.4133V19.8744C103.719 21.0522 104.265 21.6264 105.358 21.6264C105.653 21.6264 105.992 21.5675 106.347 21.4644V23.4226C105.919 23.5846 105.387 23.6582 104.767 23.6582C103.631 23.6582 102.76 23.349 102.155 22.7159C101.55 22.0828 101.24 21.17 101.24 19.9921V15.4133H99.3208V13.5582H101.24V11.1289L103.705 10.3044V13.5582H106.347V15.4133H103.719Z" fill="white"/>
<path d="M112.843 21.7286H120.537V23.8035H109.919V21.9091L117.341 11.5499H109.919V9.47511H120.309V11.3395L112.843 21.7286Z" fill="white"/>
<path d="M123.794 13.5216H126.024V23.8035H123.794V13.5216ZM123.66 8.8522H126.158V11.3618H123.66V8.8522Z" fill="white"/>
<path d="M131.808 23.039C131.04 22.6121 130.45 22.0232 130.051 21.2576C129.638 20.492 129.431 19.5791 129.431 18.5485C129.431 17.5179 129.638 16.5904 130.066 15.8101C130.494 15.015 131.099 14.4114 131.881 13.9697C132.664 13.528 133.579 13.3071 134.597 13.3071C135.306 13.3071 135.999 13.4249 136.664 13.6458C137.328 13.8666 137.859 14.1758 138.258 14.5733L137.564 16.3106C137.136 15.972 136.693 15.707 136.221 15.5303C135.748 15.3536 135.276 15.2653 134.819 15.2653C133.918 15.2653 133.224 15.545 132.723 16.1045C132.221 16.664 131.97 17.4738 131.97 18.5191C131.97 19.5791 132.221 20.3742 132.708 20.9189C133.195 21.4784 133.903 21.7434 134.819 21.7434C135.276 21.7434 135.748 21.6551 136.221 21.4637C136.693 21.287 137.136 21.022 137.564 20.6686L138.258 22.406C137.83 22.8035 137.284 23.1127 136.619 23.3335C135.94 23.5544 135.247 23.6721 134.509 23.6721C133.475 23.6721 132.575 23.466 131.808 23.039Z" fill="white"/>
<path d="M150.42 17.4V23.51H147.955V17.5177C147.955 16.7227 147.808 16.1485 147.498 15.7951C147.188 15.4271 146.73 15.2504 146.096 15.2504C145.343 15.2504 144.738 15.486 144.28 15.9718C143.823 16.4577 143.586 17.0908 143.586 17.8711V23.51H141.136V9.00784H143.586V15.0001C143.926 14.4554 144.383 14.0431 144.944 13.7486C145.505 13.4542 146.14 13.307 146.848 13.307C149.225 13.307 150.42 14.6615 150.42 17.4Z" fill="white"/>
<path d="M157.372 15.4122V19.8733C157.372 21.0511 157.918 21.6253 159.011 21.6253C159.306 21.6253 159.645 21.5664 159.999 21.4634V23.4215C159.571 23.5835 159.04 23.6571 158.42 23.6571C157.284 23.6571 156.413 23.3479 155.808 22.7148C155.202 22.0818 154.892 21.1689 154.892 19.9911V15.4122H152.974V13.5571H154.892V11.1278L157.357 10.3033V13.5571H159.999V15.4122H157.372Z" fill="white"/>
<path d="M48.0894 33.7713V26.9186H52.4612V27.565H48.8711V29.9498H52.2585V30.625H48.8711V33.1104H52.4612V33.7713H48.0894Z" fill="white"/>
<path d="M57.0924 33.0218V33.6991C56.9743 33.7285 56.871 33.7579 56.7529 33.7727C56.6496 33.7874 56.5315 33.8021 56.3986 33.8021C55.9411 33.8021 55.5721 33.6696 55.2916 33.4046C55.0112 33.1396 54.8784 32.7421 54.8784 32.2268V27.5007L55.6754 27.2209V32.1237C55.6754 32.3887 55.7049 32.5948 55.7935 32.7421C55.8673 32.8893 55.9706 32.9924 56.1034 33.0365C56.2363 33.0954 56.3839 33.1249 56.5462 33.1249C56.6496 33.1249 56.7381 33.1249 56.8119 33.1101C56.9005 33.0807 56.9891 33.066 57.0924 33.0218ZM53.9189 28.7816H57.1071V29.4147H53.9189V28.7816Z" fill="white"/>
<path d="M62.8338 33.1394C62.6124 33.3455 62.332 33.5074 61.9925 33.6252C61.653 33.743 61.2988 33.8019 60.9445 33.8019C60.4279 33.8019 59.9851 33.6988 59.6161 33.4927C59.2471 33.2866 58.9519 32.9921 58.76 32.6093C58.5534 32.2265 58.4648 31.7701 58.4648 31.2254C58.4648 30.7101 58.5682 30.2684 58.76 29.8709C58.9519 29.4881 59.2324 29.1789 59.5866 28.958C59.9409 28.7372 60.3394 28.6341 60.8117 28.6341C61.2545 28.6341 61.6383 28.7372 61.9482 28.9286C62.273 29.12 62.5091 29.3997 62.6715 29.7678C62.8338 30.1359 62.9224 30.5628 62.9224 31.0634V31.2107H59.1733V30.6806H62.4796L62.2287 31.0487C62.2434 30.4745 62.1254 30.0328 61.8892 29.7236C61.653 29.4145 61.2988 29.2672 60.8412 29.2672C60.3541 29.2672 59.9851 29.4292 59.7047 29.7678C59.439 30.1064 59.2914 30.5776 59.2914 31.1665C59.2914 31.8143 59.439 32.3002 59.7195 32.6241C59.9999 32.948 60.4279 33.1247 60.9741 33.1247C61.2693 33.1247 61.5497 33.0805 61.8154 32.9774C62.0811 32.8744 62.332 32.7419 62.5829 32.5357L62.8338 33.1394Z" fill="white"/>
<path d="M64.8414 33.7429V30.18C64.8414 29.9444 64.8414 29.7236 64.8266 29.488C64.8119 29.2524 64.7971 29.0169 64.7676 28.796H65.5351L65.6237 29.8266L65.5203 29.9002C65.6532 29.5027 65.8893 29.1935 66.2141 28.9874C66.5388 28.7813 66.9078 28.6782 67.3358 28.6782C68.5314 28.6782 69.1218 29.326 69.1218 30.6364V33.7577H68.3248V30.6806C68.3248 30.2241 68.2362 29.8855 68.0443 29.6647C67.8524 29.4438 67.572 29.3408 67.1735 29.3408C66.7159 29.3408 66.3469 29.488 66.0665 29.7677C65.786 30.0475 65.6532 30.4303 65.6532 30.9161V33.7577H64.8414V33.7429Z" fill="white"/>
<path d="M75.1134 33.802C74.6558 33.802 74.2573 33.7284 73.9178 33.5665C73.5783 33.4045 73.3127 33.1984 73.1208 32.9187C72.9289 32.6537 72.8403 32.3297 72.8403 31.9617C72.8403 31.5347 72.9732 31.1372 73.2536 30.7838C73.5193 30.4305 73.9769 30.0918 74.5968 29.7238C75.0248 29.4735 75.3643 29.2526 75.6005 29.076C75.8366 28.8993 76.0138 28.7226 76.1023 28.5754C76.2056 28.4281 76.2499 28.2515 76.2499 28.0748C76.2499 27.8245 76.1761 27.6184 76.0138 27.4712C75.8514 27.3239 75.6448 27.2356 75.3938 27.2356C75.0986 27.2356 74.8772 27.3239 74.7001 27.4859C74.523 27.6478 74.4344 27.8687 74.4344 28.1484C74.4344 28.2809 74.4492 28.3987 74.4935 28.5312C74.5377 28.649 74.6115 28.7815 74.7296 28.9435C74.8477 29.0907 74.9953 29.2821 75.202 29.5176L77.6078 32.2414C77.785 32.4328 77.9916 32.6242 78.2278 32.8009C78.4639 32.9776 78.7444 33.1248 79.0543 33.2573L78.6263 33.8168C78.3016 33.6695 78.0064 33.4929 77.7555 33.3162C77.5045 33.1395 77.2979 32.9481 77.106 32.742L74.5525 29.871C74.3311 29.6207 74.154 29.3999 74.0211 29.2085C73.8883 29.0171 73.7997 28.8404 73.7407 28.6784C73.6817 28.5165 73.6521 28.3398 73.6521 28.1631C73.6521 27.8539 73.7259 27.5889 73.8735 27.3534C74.0211 27.1325 74.2278 26.9558 74.4787 26.8233C74.7444 26.6908 75.0396 26.6319 75.3791 26.6319C75.8662 26.6319 76.2499 26.7644 76.5304 27.0147C76.8108 27.265 76.9584 27.6184 76.9584 28.0453C76.9584 28.3104 76.8994 28.5459 76.7813 28.7668C76.6632 28.9876 76.4566 29.2085 76.1761 29.4293C75.8957 29.6502 75.5119 29.9152 75.0248 30.2096C74.6853 30.401 74.4197 30.5924 74.213 30.7691C74.0064 30.9458 73.8588 31.1372 73.7702 31.3139C73.6817 31.52 73.6374 31.7261 73.6374 31.9469C73.6374 32.315 73.7702 32.6095 74.0359 32.8303C74.3016 33.0512 74.6706 33.1542 75.1281 33.1542C75.63 33.1542 76.058 33.007 76.427 32.7125C76.796 32.4181 77.106 32.0058 77.3127 31.4758C77.5341 30.9458 77.6521 30.3274 77.6669 29.606H78.3754C78.3606 30.2391 78.2573 30.8133 78.0949 31.3286C77.9326 31.8439 77.6964 32.2856 77.4012 32.6537C77.106 33.0217 76.7665 33.3015 76.3828 33.5076C76.0138 33.699 75.5857 33.802 75.1134 33.802Z" fill="white"/>
<path d="M83.1145 33.0507H84.6201C85.5352 33.0507 86.2142 32.8151 86.6717 32.344C87.1293 31.8728 87.3655 31.1661 87.3655 30.2239C87.3655 28.354 86.4503 27.4118 84.6348 27.4118H83.1293V33.0507H83.1145ZM82.3027 33.7427V26.7198H84.6644C85.4171 26.7198 86.0518 26.8523 86.5832 27.132C87.1145 27.4118 87.5131 27.8093 87.7935 28.3246C88.0739 28.8399 88.2068 29.473 88.2068 30.2239C88.2068 30.9747 88.0739 31.6078 87.7935 32.1379C87.5131 32.6532 87.1145 33.0654 86.5832 33.3304C86.0518 33.6102 85.4171 33.7427 84.6791 33.7427H82.3027Z" fill="white"/>
<path d="M90.2725 33.7429V30.18C90.2725 29.9444 90.2725 29.7236 90.2578 29.488C90.243 29.2524 90.2283 29.0169 90.1987 28.796H90.9663L91.0696 30.018L90.9663 29.9886C91.0548 29.5469 91.2615 29.223 91.5567 29.0021C91.8666 28.7813 92.2061 28.6782 92.5899 28.6782C92.6784 28.6782 92.7522 28.6782 92.826 28.6929C92.8998 28.7077 92.9736 28.7224 93.0327 28.7371L93.0179 29.4733C92.8703 29.4144 92.6932 29.3997 92.4865 29.3997C92.1471 29.3997 91.8666 29.4733 91.66 29.6205C91.4533 29.7677 91.3057 29.9591 91.2024 30.1947C91.0991 30.4303 91.0548 30.6806 91.0548 30.9308V33.7577H90.2725V33.7429Z" fill="white"/>
<path d="M94.4008 33.7713H95.4228V28.9601H94.4008V33.7713ZM94.3062 27.8037H95.5552V26.9186H94.3062V27.8037Z" fill="white"/>
<path d="M97.5792 33.7431V30.1801C97.5792 29.9446 97.5792 29.7237 97.5644 29.4882C97.5497 29.2526 97.5349 29.017 97.5054 28.7962H98.2729L98.3615 29.8268L98.2581 29.9004C98.391 29.5029 98.6271 29.1937 98.9519 28.9876C99.2766 28.7815 99.6456 28.6784 100.074 28.6784C101.269 28.6784 101.86 29.3262 101.86 30.6366V33.7578H101.063V30.6807C101.063 30.2243 100.974 29.8857 100.782 29.6648C100.59 29.444 100.31 29.3409 99.9113 29.3409C99.4537 29.3409 99.0847 29.4882 98.8043 29.7679C98.5238 30.0476 98.391 30.4304 98.391 30.9163V33.7578H97.5792V33.7431Z" fill="white"/>
<path d="M107.652 33.7562L104.934 31.1533L107.43 28.6715H108.449L105.672 31.3955L105.702 30.8809L108.671 33.7713H107.652V33.7562ZM104.299 26.2957H105.096V33.7562H104.299V26.2957Z" fill="white"/>
<path d="M113.83 33.1396C113.609 33.3457 113.329 33.5076 112.989 33.6254C112.65 33.7432 112.295 33.8021 111.941 33.8021C111.425 33.8021 110.982 33.699 110.613 33.4929C110.244 33.2868 109.949 32.9923 109.757 32.6095C109.55 32.2267 109.461 31.7703 109.461 31.2256C109.461 30.7103 109.565 30.2686 109.757 29.871C109.949 29.4882 110.229 29.1791 110.583 28.9582C110.937 28.7374 111.336 28.6343 111.808 28.6343C112.251 28.6343 112.635 28.7374 112.945 28.9288C113.27 29.1202 113.506 29.3999 113.668 29.768C113.83 30.1361 113.919 30.563 113.919 31.0636V31.2108H110.17V30.6808H113.476L113.225 31.0489C113.24 30.4747 113.122 30.033 112.886 29.7238C112.65 29.4146 112.295 29.2674 111.838 29.2674C111.351 29.2674 110.982 29.4294 110.701 29.768C110.436 30.1066 110.288 30.5777 110.288 31.1667C110.288 31.8145 110.436 32.3003 110.716 32.6242C110.996 32.9482 111.425 33.1248 111.971 33.1248C112.266 33.1248 112.546 33.0807 112.812 32.9776C113.078 32.8745 113.329 32.742 113.579 32.5359L113.83 33.1396Z" fill="white"/>
<path d="M115.823 33.7425V30.1796C115.823 29.944 115.823 29.7231 115.808 29.4876C115.793 29.252 115.779 29.0164 115.749 28.7956H116.517L116.605 29.8262L116.502 29.8998C116.635 29.5023 116.871 29.1931 117.196 28.987C117.52 28.7809 117.889 28.6778 118.317 28.6778C119.513 28.6778 120.103 29.3256 120.103 30.636V33.7572H119.306V30.6801C119.306 30.2237 119.218 29.8851 119.026 29.6642C118.834 29.4434 118.553 29.3403 118.155 29.3403C117.697 29.3403 117.328 29.4876 117.048 29.7673C116.767 30.047 116.635 30.4298 116.635 30.9157V33.7572H115.823V33.7425Z" fill="white"/>
</svg>
