<svg width="116" height="90" viewBox="0 0 116 90" fill="none" xmlns="http://www.w3.org/2000/svg">
<path d="M50.9564 56.7755C50.9564 59.331 50.9564 61.8042 50.9564 64.3598C50.9564 64.9369 50.9564 64.9369 50.3795 64.9369C49.8027 64.9369 49.2258 64.9369 48.5666 64.9369C48.3193 64.9369 48.1545 64.8544 48.1545 64.5247C48.1545 61.6393 48.1545 58.754 48.2369 55.7862C48.2369 55.374 48.3193 54.9618 48.4018 54.4672C48.4018 54.2199 48.4842 53.9726 48.4018 53.8077C48.4018 53.7252 48.3193 53.6428 48.2369 53.5604C48.1545 53.6428 48.0721 53.7252 48.0721 53.8077C47.9073 54.4672 47.7425 55.1267 47.4953 55.7862C47.0008 56.9403 46.5064 58.0945 45.9295 59.2486C45.5999 59.9906 45.2703 60.7325 44.8583 61.4744C44.7758 61.7218 44.611 61.8866 44.2814 61.8866C44.0342 61.8866 43.787 61.8866 43.6222 61.5569C42.7157 59.6608 41.7268 57.7647 40.9027 55.7862C40.6555 55.2091 40.4907 54.5496 40.3259 53.8901C40.2435 53.7252 40.1611 53.6428 40.0786 53.4779C39.9962 53.6428 39.9138 53.8077 39.9138 53.9725C39.9962 54.6321 40.0787 55.374 40.1611 56.0335C40.1611 56.3633 40.2435 56.693 40.2435 57.0228C40.2435 59.4959 40.2435 61.9691 40.2435 64.4422C40.2435 64.772 40.1611 64.8544 39.8314 64.8544C39.2546 64.8544 38.6777 64.8544 38.1009 64.8544C37.6889 64.8544 37.6064 64.6895 37.6064 64.3598C37.6064 62.4637 37.6064 60.4852 37.6064 58.5891C37.6064 55.4564 37.6064 52.3238 37.6064 49.1911C37.6064 48.5316 37.6064 48.5316 38.2657 48.5316C38.8425 48.5316 39.4194 48.5316 39.9138 48.5316C40.2435 48.5316 40.4083 48.614 40.4907 48.9438C41.562 51.1696 42.6333 53.313 43.6222 55.5389C43.8694 56.1159 43.9518 56.693 44.1166 57.2701C44.1166 57.3525 44.2814 57.5174 44.2814 57.5998C44.3638 57.5174 44.5286 57.435 44.5286 57.2701C45.2703 54.3847 46.836 51.8291 47.9897 49.0262C48.1545 48.6965 48.4018 48.4492 48.8138 48.5316C49.3082 48.5316 49.8851 48.5316 50.3795 48.5316C50.874 48.5316 50.874 48.614 50.874 49.1087C50.9564 51.7467 50.9564 54.3023 50.9564 56.7755Z" fill="white"/>
<path d="M10.6592 56.698C10.6592 54.2249 10.6592 51.7517 10.6592 49.361C10.6592 48.7015 10.6592 48.7015 11.3184 48.7015C12.0601 48.7015 12.8018 48.6191 13.5434 48.6191C14.9443 48.6191 16.3453 48.6191 17.6638 49.1961C19.0647 49.8556 19.9712 50.9273 20.4656 52.4112C21.1249 54.4722 21.1249 56.5332 20.96 58.5941C20.8776 59.9131 20.548 61.2322 19.8063 62.3863C18.8999 63.8702 17.499 64.6946 15.7684 64.9419C14.2027 65.1892 12.6369 64.8594 11.0712 64.8594C10.7416 64.8594 10.6592 64.6121 10.6592 64.3648C10.6592 63.1282 10.6592 61.9741 10.6592 60.7375C10.6592 59.2536 10.6592 58.0171 10.6592 56.698ZM13.3786 56.698C13.3786 57.9346 13.3786 59.0888 13.3786 60.3253C13.3786 60.82 13.3786 61.3146 13.3786 61.8092C13.3786 62.0565 13.461 62.3038 13.7906 62.3038C14.6147 62.4687 15.4388 62.3863 16.1804 61.9741C17.2517 61.397 17.6638 60.4078 17.911 59.2536C18.323 57.3575 18.323 55.5439 17.911 53.6478C17.6638 52.5761 17.1693 51.7517 16.1804 51.1747C15.5212 50.8449 14.8619 50.8449 14.1203 50.8449C13.461 50.8449 13.3786 51.0098 13.3786 51.5868C13.3786 53.4005 13.3786 55.0493 13.3786 56.698Z" fill="white"/>
<path d="M13.9556 85.4607C12.637 85.4607 11.3185 85.2958 10 84.7187C9.42317 84.4714 9.42317 84.389 9.58799 83.8119C9.83521 83.1524 10 82.4929 10.2472 81.9158C10.3296 81.5861 10.4945 81.5036 10.8241 81.6685C11.7306 82.0807 12.637 82.4104 13.6259 82.4104C13.8731 82.4104 14.2028 82.4104 14.45 82.328C15.8509 81.9982 15.8509 80.5144 15.1093 79.7724C14.6972 79.3602 14.1204 79.0305 13.6259 78.7007C12.8843 78.2061 11.9778 77.7114 11.3185 77.1344C10.3296 76.31 9.67039 75.2383 9.67039 73.8368C9.67039 72.8476 9.67039 71.8583 10.1648 70.8691C10.8241 69.6325 11.813 68.973 13.2139 68.8081C14.2028 68.7257 15.1917 68.7257 16.1805 68.8081C17.0046 68.8905 17.8287 69.2203 18.6527 69.4676C18.9 69.55 18.9824 69.7149 18.9 69.9622C18.6527 70.6217 18.4879 71.2813 18.3231 71.9408C18.1583 72.4354 18.0759 72.4354 17.5815 72.2705C16.7574 72.0232 15.8509 71.8583 15.0268 71.7759C14.7796 71.7759 14.5324 71.8583 14.2852 71.8583C13.2963 72.1881 12.9667 73.3422 13.7907 74.0842C14.2852 74.5788 14.862 74.9085 15.4389 75.2383C16.0157 75.6505 16.675 75.9802 17.3342 76.3924C18.6527 77.3817 19.312 78.6183 19.312 80.3495C19.312 81.4212 19.2296 82.4104 18.6527 83.3173C17.9111 84.4714 16.9222 85.1309 15.5213 85.2958C14.9444 85.3782 14.45 85.3782 13.9556 85.4607Z" fill="white"/>
<path d="M20.9597 81.7562C20.9597 79.2831 20.9597 76.7275 20.9597 74.2543C20.9597 73.6773 20.9597 73.5948 21.5366 73.5948C21.7014 73.5948 21.9486 73.5948 22.1134 73.5948C22.8551 73.5948 22.8551 73.5948 23.0199 74.3368C23.0199 74.4192 23.0199 74.4192 23.0199 74.5016C23.1023 74.5841 23.1023 74.6665 23.1847 74.8314C23.2671 74.749 23.4319 74.749 23.4319 74.6665C23.7616 74.1719 24.1736 73.7597 24.7505 73.5948C26.6458 73.1002 28.4588 73.5124 29.0356 75.5733C29.2828 76.3977 29.4476 77.3046 29.4476 78.1289C29.5301 79.3655 29.5301 80.6021 29.2004 81.8387C28.7884 83.3226 28.2115 84.6416 26.7282 85.3011C25.8217 85.7133 24.8329 85.7133 23.844 85.3835C23.4319 85.2186 23.3495 85.3011 23.3495 85.7133C23.3495 86.9499 23.3495 88.1864 23.3495 89.3406C23.3495 89.9176 23.3495 90.0001 22.7727 90.0001C22.3607 90.0001 21.8662 90.0001 21.4542 90.0001C20.7949 90.0001 20.7949 90.0001 20.7949 89.3406C20.9597 86.785 20.9597 84.2294 20.9597 81.7562ZM23.5968 79.7777C23.5968 80.6021 23.5968 81.344 23.5968 82.1684C23.5968 82.7455 23.844 82.9928 24.4208 83.1577C25.5745 83.405 26.481 82.8279 26.7282 81.6738C27.0578 80.6021 26.9754 79.5304 26.9754 78.4587C26.9754 77.8816 26.893 77.387 26.7282 76.8099C26.5634 76.2329 26.2338 75.8207 25.6569 75.7382C25.0801 75.5733 24.5032 75.7382 24.0912 76.2329C23.7616 76.645 23.5968 77.0572 23.5968 77.5519C23.5968 78.2114 23.5968 79.0358 23.5968 79.7777Z" fill="white"/>
<path d="M60.0213 87.6068C60.0213 88.2663 60.0213 88.8434 60.0213 89.5029C60.0213 89.8326 59.8565 89.9975 59.5269 89.9975C58.95 89.9975 58.3732 89.9975 57.7963 89.9975C57.5491 89.9975 57.3843 89.8326 57.3843 89.5853C57.3843 89.5029 57.3843 89.4204 57.3843 89.338C57.3843 84.3917 57.3843 79.363 57.3843 74.4166C57.3843 73.6747 57.3843 73.6747 58.1259 73.6747H58.2083C59.1972 73.6747 59.2796 73.5098 59.4445 74.5815C59.4445 74.664 59.5269 74.8288 59.6093 74.8288C59.6917 74.8288 59.8565 74.7464 59.9389 74.664C60.3509 74.1693 60.763 73.6747 61.4222 73.5923C63.2352 73.1801 64.9657 73.5923 65.625 75.5708C66.1194 77.0547 66.037 78.5386 66.037 80.0225C66.037 81.0942 65.8722 82.1659 65.4602 83.1551C64.6361 85.2161 62.5759 86.0405 60.5157 85.4634C60.0213 85.2985 60.0213 85.381 59.9389 85.8756C60.0213 86.3702 60.0213 86.9473 60.0213 87.6068ZM60.0213 79.7751C60.0213 80.5995 60.0213 81.3415 60.0213 82.1659C60.0213 82.6605 60.2685 82.9078 60.763 83.0727C61.9991 83.4024 62.8231 82.8254 63.1528 81.5888C63.4824 80.2698 63.4 78.9508 63.3176 77.6317C63.3176 77.2196 63.1528 76.8898 63.0704 76.4776C62.6583 75.4883 61.4222 75.241 60.6806 75.983C60.2685 76.3952 60.0213 76.8898 60.0213 77.4669C60.0213 78.2913 60.0213 79.0332 60.0213 79.7751Z" fill="white"/>
<path d="M88.1215 56.8565C88.1215 54.3834 88.1215 51.8278 88.1215 49.3546C88.1215 48.7776 88.1215 48.6951 88.7807 48.6951C89.2752 48.6951 89.7696 48.6951 90.264 48.6951C90.7585 48.6951 90.8409 48.7776 90.8409 49.2722C90.8409 52.0751 90.8409 54.7956 90.8409 57.5985C90.8409 57.7633 90.8409 57.9282 90.8409 58.0931C90.8409 58.3404 91.0057 58.4229 91.2529 58.258C91.4177 58.0931 91.5826 57.9282 91.665 57.6809C92.2418 56.3619 92.7363 55.1253 93.3131 53.8063C93.3955 53.6414 93.5603 53.4765 93.7251 53.4765C94.4668 53.4765 95.2085 53.4765 95.9501 53.4765C96.1973 53.4765 96.2798 53.559 96.1974 53.8063C95.6205 55.0429 95.0437 56.3619 94.3844 57.5985C94.2196 57.9282 93.9724 58.1755 93.6427 58.4229C93.2307 58.7526 93.2307 58.9175 93.6427 59.1648C94.1372 59.4121 94.3844 59.8243 94.6316 60.3189C95.2085 61.7204 95.8677 63.1219 96.4446 64.5233C96.6094 64.9355 96.527 65.0179 96.1149 65.0179C95.3733 65.0179 94.714 65.0179 93.9724 65.0179C93.7251 65.0179 93.5603 64.9355 93.3955 64.6882C92.9011 63.3692 92.3242 62.1326 91.7474 60.896C91.665 60.8136 91.665 60.7311 91.5826 60.5663C91.5002 60.3189 91.2529 60.1541 91.0057 60.2365C90.8409 60.3189 90.7585 60.5663 90.7585 60.7311C90.7585 61.9677 90.7585 63.2043 90.7585 64.3584C90.7585 64.9355 90.7585 65.0179 90.0992 65.0179C89.6048 65.0179 89.0279 65.0179 88.5335 65.0179C88.2039 65.0179 88.0391 64.8531 88.0391 64.5233C88.1215 61.8853 88.1215 59.4121 88.1215 56.8565Z" fill="white"/>
<path d="M61.5873 58.7555C61.5873 60.2394 61.5873 61.6408 61.5873 63.1247C61.5873 63.6194 61.6697 64.0316 61.7521 64.5262C61.8345 64.8559 61.7521 64.9384 61.4225 64.9384C61.0104 64.9384 60.5984 64.9384 60.1864 64.9384C59.9392 64.9384 59.7743 64.8559 59.6919 64.6086C59.6095 64.3613 59.5271 64.114 59.4447 63.8667C59.3623 63.7842 59.2799 63.6194 59.1975 63.6194C59.1151 63.6194 58.9503 63.7018 58.8679 63.7842C58.7855 63.9491 58.7031 64.114 58.5382 64.1964C57.9614 64.7735 57.3021 65.2681 56.4781 65.1857C55.8188 65.1857 55.1596 65.1857 54.5003 64.9384C54.0883 64.7735 53.7586 64.3613 53.5114 64.0316C53.2642 63.4545 53.017 62.795 53.017 62.1355C52.9346 59.3326 53.017 56.5297 52.9346 53.7267C52.9346 53.4794 53.017 53.3146 53.3466 53.3146C53.9235 53.3146 54.5003 53.3146 55.0771 53.3146C55.4068 53.3146 55.4892 53.4794 55.4892 53.8092C55.4892 55.8701 55.4892 57.9311 55.4892 59.9921C55.4892 60.6516 55.5716 61.3111 55.7364 61.8881C55.9012 62.7125 56.6429 63.0423 57.3845 62.7125C58.2086 62.3003 58.6206 61.6408 58.6206 60.734C58.6206 58.4257 58.6206 56.1175 58.6206 53.8916C58.6206 53.397 58.6206 53.397 59.1151 53.397C59.6095 53.397 60.1864 53.397 60.6808 53.397C61.1753 53.397 61.2577 53.4794 61.2577 53.9741C61.5873 55.5404 61.5873 57.1892 61.5873 58.7555Z" fill="white"/>
<path d="M46.6713 80.1047C45.9297 80.1047 45.188 80.1047 44.3639 80.1047C43.8695 80.1047 43.7047 80.2695 43.7871 80.7642C43.8695 81.1764 43.9519 81.5061 44.1167 81.9183C44.4463 82.8251 45.188 83.1549 46.0945 83.2373C46.8362 83.3198 47.5778 83.0724 48.2371 82.7427C48.4843 82.5778 48.6491 82.6603 48.7315 82.9076C48.8963 83.3198 49.0611 83.6495 49.226 84.0617C49.3908 84.309 49.3084 84.5563 49.0611 84.6388C48.4843 84.8861 47.9074 85.2159 47.2482 85.2983C46.5065 85.4632 45.6825 85.4632 44.9408 85.3807C43.2102 85.2983 42.139 84.2266 41.6445 82.6603C40.9853 80.8466 41.0677 78.9505 41.3973 77.1369C41.5621 76.2301 41.8917 75.3232 42.551 74.5813C43.2926 73.7569 44.1167 73.2623 45.2704 73.2623C46.0121 73.2623 46.7537 73.2623 47.4954 73.4271C48.8963 73.8393 49.5556 74.911 49.638 76.2301C49.8028 77.3018 49.638 78.3735 49.638 79.4452C49.638 79.8573 49.4732 79.9398 49.0611 79.9398C48.2371 80.1047 47.413 80.1047 46.6713 80.1047ZM45.6 78.291C46.0121 78.291 46.4241 78.291 46.7537 78.291C47.1658 78.291 47.3306 78.1261 47.2482 77.714C47.1658 77.2193 47.1658 76.7247 47.001 76.2301C46.7537 75.4881 46.0121 75.2408 45.2704 75.4881C44.3639 75.7354 43.7871 77.2193 43.9519 77.9613C43.9519 78.0437 44.1991 78.2086 44.3639 78.2086C44.776 78.3735 45.188 78.291 45.6 78.291Z" fill="white"/>
<path d="M36.6174 80.1079C35.8758 80.1079 35.1341 80.1079 34.31 80.1079C33.8156 80.1079 33.7332 80.1904 33.7332 80.685C33.7332 81.5918 34.0628 82.4162 34.8045 82.9108C35.3813 83.323 36.0406 83.323 36.6998 83.2406C37.1943 83.1582 37.6063 82.9933 38.1008 82.746C38.348 82.6635 38.5128 82.6635 38.5952 82.9108C38.76 83.323 38.9248 83.7352 39.0896 84.065C39.2545 84.3947 39.0072 84.5596 38.76 84.7245C37.8535 85.2191 36.8646 85.4664 35.8758 85.4664C35.0517 85.4664 34.2276 85.4664 33.486 85.0543C32.4147 84.4772 31.7554 83.5704 31.4258 82.4162C30.9314 80.685 30.9314 78.8714 31.261 77.0577C31.5082 75.5738 32.1675 74.4197 33.5684 73.6777C35.1341 72.8534 37.5239 73.1831 38.5952 74.3373C39.2545 75.0792 39.5017 75.986 39.5841 76.9753C39.6665 77.8821 39.5017 78.7889 39.4193 79.6958C39.4193 80.0255 39.2545 80.1079 38.9248 80.1079C38.1832 80.1079 37.3591 80.1079 36.6174 80.1079ZM35.3813 78.2943C35.7934 78.2943 36.2054 78.2943 36.6174 78.2943C36.9471 78.2943 37.1119 78.1294 37.1119 77.7997C37.1119 77.4699 37.1119 77.1402 37.0295 76.8104C36.9471 76.0685 36.4526 75.5738 35.7934 75.409C35.2989 75.3265 34.4748 75.6563 34.2276 76.1509C33.9804 76.6455 33.8156 77.2226 33.7332 77.7997C33.6508 78.1294 33.8156 78.2943 34.1452 78.2943C34.5573 78.2943 34.9693 78.2943 35.3813 78.2943Z" fill="white"/>
<path d="M83.0952 59.9073C82.3536 59.9073 81.6119 59.9073 80.8702 59.9073C80.2934 59.9073 80.1286 60.0722 80.2934 60.6492C80.4582 61.1439 80.5406 61.7209 80.8702 62.2156C81.5295 63.1224 82.436 63.2048 83.4249 63.04C83.8369 62.9575 84.3313 62.7926 84.7434 62.5453C84.9906 62.4629 85.073 62.4629 85.1554 62.7102C85.3202 63.1224 85.5674 63.5346 85.7322 63.9468C85.7322 64.0292 85.6498 64.359 85.5674 64.359C84.9082 64.6063 84.3313 65.0185 83.6721 65.1009C82.7656 65.2658 81.8591 65.2658 80.9526 65.1009C79.8814 64.936 79.0573 64.2765 78.5628 63.3697C77.986 62.3804 77.7388 61.3087 77.7388 60.237C77.7388 59.4951 77.6564 58.6707 77.7388 57.9288C77.8212 56.6098 78.1508 55.2907 79.1397 54.3015C79.7989 53.5595 80.623 53.1473 81.6119 53.1473C82.436 53.0649 83.26 53.0649 84.0017 53.3122C84.9906 53.642 85.5674 54.3839 85.8971 55.3732C86.3915 56.7746 86.1443 58.1761 86.0619 59.5775C86.0619 59.9073 85.8147 59.9073 85.485 59.9073C84.661 59.9073 83.9193 59.9073 83.0952 59.9073ZM82.0239 58.1761C82.436 58.1761 82.848 58.1761 83.1776 58.1761C83.5897 58.1761 83.7545 58.0936 83.6721 57.599C83.6721 57.2693 83.5897 56.8571 83.5073 56.5273C83.3424 55.8678 83.0128 55.3732 82.2712 55.2907C81.6119 55.2083 81.1175 55.5381 80.7878 56.0327C80.4582 56.5273 80.2934 57.1044 80.2934 57.6815C80.2934 58.0112 80.3758 58.1761 80.7054 58.1761C81.1999 58.1761 81.6119 58.1761 82.0239 58.1761Z" fill="white"/>
<path d="M91.0056 80.1871C91.0056 81.4237 91.0056 82.6603 91.0056 83.8968C91.0056 84.1442 91.088 84.4739 91.1704 84.7212C91.2528 84.9685 91.1704 85.1334 90.9232 85.1334C90.4288 85.1334 90.0167 85.1334 89.5223 85.1334C89.1927 85.1334 89.0279 84.9685 89.0279 84.6388C88.9454 84.3915 88.9454 84.2266 88.863 84.0617C88.6982 83.732 88.6158 83.732 88.3686 84.0617C87.4621 85.3807 85.7316 85.7105 84.3307 84.9685C83.5066 84.5563 83.177 83.732 83.0121 82.9076C82.8473 82.0832 82.8473 81.1764 83.2594 80.352C83.7538 79.2803 84.6603 78.7857 85.7316 78.5383C86.4732 78.3735 87.2149 78.3735 87.9566 78.291C88.5334 78.291 88.6982 78.1261 88.6158 77.6315C88.6158 77.1369 88.5334 76.7247 88.3686 76.3125C88.2862 75.9827 87.9566 75.653 87.5445 75.653C86.6381 75.5706 85.6492 75.653 84.8251 75.9827C84.4131 76.1476 84.3307 76.0652 84.1658 75.653C84.0834 75.3232 83.9186 74.9935 83.8362 74.5813C83.7538 74.2515 83.8362 74.0867 84.0834 73.9218C84.9899 73.5096 85.8964 73.2623 86.8029 73.2623C87.6269 73.2623 88.451 73.2623 89.2751 73.4271C90.1815 73.592 90.7584 74.2515 91.0056 75.1584C91.1704 75.7354 91.2528 76.3125 91.2528 76.8896C91.0056 78.1261 91.0056 79.1154 91.0056 80.1871ZM88.451 81.1764C88.451 79.8574 88.2862 79.7749 87.1325 79.9398C85.9788 80.1047 85.4019 80.7642 85.5668 81.8359C85.7316 82.99 86.6381 83.3198 87.5445 82.8251C88.2862 82.4954 88.6158 81.9183 88.451 81.1764Z" fill="white"/>
<path d="M81.2004 78.6205C81.2004 80.2693 81.2004 81.9181 81.2004 83.6493C81.2004 84.0615 81.2828 84.4737 81.3653 84.8859C81.4477 85.1332 81.3652 85.2156 81.118 85.2156C80.6236 85.2156 80.0467 85.2156 79.5523 85.2156C79.3875 85.2156 79.2227 85.0507 79.1403 84.8859C79.0579 84.721 78.9755 84.4737 78.893 84.2264C78.8106 84.1439 78.7282 84.0615 78.6458 83.8966C78.5634 83.979 78.481 84.0615 78.3986 84.1439C77.4097 85.6278 75.1023 85.8751 73.8662 84.6386C73.5366 84.2264 73.207 83.7317 73.1246 83.2371C72.7949 81.7532 72.9597 80.2693 74.1958 79.2801C75.0199 78.703 75.9264 78.4557 76.9153 78.3732C77.3273 78.3732 77.7393 78.3732 78.1514 78.3732C78.481 78.3732 78.6458 78.2084 78.6458 77.8786C78.5634 77.384 78.5634 76.8893 78.3986 76.3947C78.3162 75.9825 77.9866 75.8176 77.5745 75.7352C76.6681 75.6528 75.6792 75.7352 74.8551 76.065C74.4431 76.2298 74.3607 76.2298 74.1958 75.7352C74.1134 75.4054 73.9486 75.0757 73.8662 74.6635C73.7838 74.3337 73.7838 74.1689 74.1134 74.004C75.0199 73.5918 76.0088 73.3445 76.9977 73.3445C77.7393 73.3445 78.5634 73.3445 79.3051 73.5094C80.294 73.6742 80.7884 74.4162 81.0356 75.323C81.3653 76.3947 81.2828 77.5488 81.2004 78.6205ZM78.7282 81.1761C78.7282 79.8571 78.5634 79.7747 77.4097 79.9396C76.4208 80.1044 75.6792 80.5166 75.844 81.8356C75.9264 82.9073 76.7505 83.3195 77.7393 82.9073C78.481 82.5776 78.893 82.0005 78.7282 81.1761Z" fill="white"/>
<path d="M27.8002 59.6586C27.0585 59.6586 26.3168 59.6586 25.5752 59.6586C25.0807 59.6586 24.9159 59.8235 24.9983 60.3181C25.1631 60.8128 25.3279 61.3898 25.5752 61.8845C25.8224 62.3791 26.3168 62.6264 26.8113 62.7088C27.6353 62.7913 28.4594 62.7088 29.2011 62.2966C29.5307 62.1318 29.6955 62.2142 29.8603 62.544C30.0251 62.8737 30.1075 63.121 30.2724 63.4508C30.4372 63.7805 30.3548 64.0279 30.0251 64.1103C29.2835 64.3576 28.6242 64.6874 27.8826 64.8522C26.6465 65.0996 25.4928 65.0171 24.4215 64.2752C23.5974 63.7805 23.103 62.9562 22.8557 62.1318C22.3613 60.483 22.2789 58.8342 22.5261 57.1855C22.6909 56.2786 22.8557 55.4543 23.4326 54.7123C24.5039 53.2284 25.9872 52.8987 27.7177 53.0635C29.2011 53.2284 30.1075 54.1352 30.5196 55.4543C30.8492 56.4435 30.8492 57.5152 30.6844 58.5045C30.5196 59.5762 30.5196 59.5762 29.3659 59.5762C28.8714 59.6586 28.377 59.6586 27.8002 59.6586ZM26.7289 58.0098C27.1409 58.0098 27.5529 58.0098 27.8826 58.0098C28.2122 58.0098 28.377 57.845 28.377 57.4328C28.377 57.103 28.377 56.6908 28.2946 56.3611C28.1298 55.8664 27.8826 55.3718 27.3881 55.2069C26.8113 55.0421 26.152 55.2069 25.74 55.7016C25.3279 56.1962 25.1631 56.8557 25.1631 57.5152C25.1631 57.7625 25.3279 57.9274 25.5752 57.9274C25.9872 58.0099 26.3168 58.0098 26.7289 58.0098Z" fill="white"/>
<path d="M67.1081 65.0201C66.0368 65.0201 64.9655 65.0201 63.8118 65.0201C63.3174 65.0201 63.235 64.9377 63.235 64.443C62.9878 63.0416 63.5646 61.8875 64.3887 60.8158C65.2128 59.6616 66.0368 58.3426 66.8609 57.1885C67.1081 56.8587 67.3553 56.6114 67.685 56.2816C67.7674 56.1992 67.8498 56.0343 67.8498 55.9519C67.685 55.8694 67.6026 55.787 67.4377 55.787C66.284 55.787 65.0479 55.787 63.8942 55.787C63.235 55.787 63.235 55.787 63.235 55.1275C63.235 54.7153 63.235 54.3031 63.235 53.8909C63.235 53.6436 63.3174 53.4787 63.647 53.4787C65.9544 53.4787 68.1794 53.4787 70.4868 53.4787C70.734 53.4787 70.8988 53.6436 70.8164 53.8909C70.8164 54.1382 70.8164 54.468 70.8164 54.7153C70.8988 55.6221 70.6516 56.3641 70.1572 57.106C69.1683 58.5075 68.3442 59.9914 67.3553 61.3928C67.1081 61.7226 66.7785 61.9699 66.5313 62.2996C66.4489 62.3821 66.3664 62.547 66.3664 62.6294C66.5313 62.7118 66.6137 62.7943 66.7785 62.7943C67.8498 62.7943 68.9211 62.7943 70.0748 62.7943C71.0636 62.7943 70.8988 62.7943 70.8988 63.6187C70.8988 63.9484 70.8988 64.2782 70.8988 64.6079C70.9812 65.0201 70.734 65.1026 70.4044 65.1026C69.3331 64.9377 68.1794 65.0201 67.1081 65.0201Z" fill="white"/>
<path d="M103.615 73.2623C104.274 73.2623 105.18 73.3447 106.005 73.7569C106.334 73.9218 106.417 74.0867 106.252 74.4164C106.087 74.7462 106.005 75.1584 105.922 75.5705C105.84 75.9003 105.675 75.9827 105.428 75.9003C104.933 75.7354 104.521 75.653 104.027 75.5705C103.697 75.4881 103.367 75.5705 103.12 75.5705C102.791 75.653 102.461 75.8179 102.379 76.1476C102.296 76.5598 102.296 77.0544 102.708 77.3018C103.285 77.714 103.944 78.1261 104.521 78.4559C105.592 79.033 106.334 79.9398 106.664 81.1764C107.076 82.9076 106.005 85.1334 103.862 85.2983C102.543 85.3807 101.225 85.3807 99.9888 84.8861C99.5768 84.7212 99.4944 84.5563 99.6592 84.0617C99.824 83.6495 99.9064 83.3198 100.071 82.9076C100.154 82.5778 100.318 82.4954 100.648 82.6603C101.39 82.9076 102.049 83.1549 102.791 83.1549C103.78 83.1549 104.274 82.3305 103.862 81.5061C103.697 81.2588 103.45 81.0115 103.203 80.7642C102.708 80.4344 102.131 80.1047 101.637 79.7749C100.318 79.033 99.5768 77.8788 99.6592 76.3125C99.7416 75.1584 100.071 74.0867 101.225 73.4271C101.884 73.2623 102.626 73.2623 103.615 73.2623Z" fill="white"/>
<path d="M96.1978 79.1173C96.1978 79.8593 96.1978 80.6012 96.1978 81.4256C96.1978 81.5905 96.1978 81.7553 96.1978 81.9202C96.2802 82.9095 96.9395 83.3217 97.846 82.9919C98.3404 82.827 98.4228 82.827 98.5052 83.4041C98.5876 83.7339 98.67 84.1461 98.67 84.4758C98.67 84.6407 98.5876 84.888 98.5052 84.9704C97.2691 85.5475 96.033 85.6299 94.7969 85.2178C94.1377 84.9704 93.808 84.3934 93.7256 83.8163C93.6432 83.1568 93.5608 82.4973 93.5608 81.8378C93.5608 80.1066 93.5608 78.4578 93.5608 76.7266C93.5608 75.9846 93.5608 75.9846 92.8191 75.9846C92.4071 75.9846 92.3247 75.8198 92.3247 75.49C92.3247 74.9954 92.3247 74.5008 92.3247 74.0886C92.3247 73.8412 92.4071 73.6764 92.7367 73.6764C93.6432 73.7588 93.5608 73.5115 93.5608 72.7696C93.5608 72.5222 93.5608 72.1925 93.5608 71.9452C93.5608 71.6154 93.6432 71.3681 93.9728 71.2857C94.5497 71.1208 95.1265 70.8735 95.7858 70.7086C96.1978 70.6262 96.2802 70.7086 96.2802 71.1208C96.2802 71.6979 96.2802 72.2749 96.2802 72.852C96.2802 73.6764 96.2802 73.6764 97.1043 73.6764C97.4339 73.6764 97.7636 73.6764 98.0932 73.6764C98.4228 73.6764 98.5876 73.7588 98.5876 74.0886C98.5876 74.5832 98.5876 75.0778 98.5876 75.49C98.5876 75.8198 98.4228 75.9022 98.1756 75.9022C97.7636 75.9022 97.2691 75.9022 96.8571 75.9022C96.4451 75.9022 96.2802 76.0671 96.2802 76.3968C96.1978 77.3037 96.1978 78.2105 96.1978 79.1173Z" fill="white"/>
<path d="M51.7803 76.3978C51.7803 74.0895 51.7803 71.7812 51.7803 69.4729C51.7803 68.8959 51.7803 68.8134 52.4395 68.8134C52.934 68.8134 53.4284 68.8134 53.9229 68.8134C54.2525 68.8134 54.4173 68.9783 54.4173 69.308C54.4173 70.4622 54.4173 71.6988 54.4173 72.8529C54.4173 75.7383 54.4173 78.5412 54.4173 81.4265C54.4173 81.7563 54.4997 82.1685 54.5821 82.4982C54.7469 82.9928 55.0765 83.1577 55.571 83.0753C56.0654 82.9928 56.1478 82.9928 56.1478 83.4875C56.1478 83.8997 56.2302 84.3119 56.2302 84.7241C56.2302 84.8889 56.0654 85.0538 55.983 85.1362C54.9941 85.466 54.0053 85.466 53.0988 85.3011C52.5219 85.2187 51.9451 84.5592 51.9451 83.8997C51.8627 83.0753 51.8627 82.3333 51.8627 81.5089C51.7803 79.7777 51.7803 78.129 51.7803 76.3978Z" fill="white"/>
<path d="M68.0146 76.3153C68.0146 74.007 68.0146 71.6988 68.0146 69.4729C68.0146 68.8959 68.0147 68.8134 68.6739 68.8134C69.1683 68.8134 69.6628 68.8134 70.1572 68.8134C70.5693 68.8134 70.6517 68.9783 70.6517 69.308C70.6517 70.9568 70.6517 72.688 70.6517 74.3368C70.6517 76.7275 70.6517 79.0358 70.6517 81.4265C70.6517 81.6738 70.6517 82.0036 70.7341 82.2509C70.8989 82.9104 71.3109 83.1577 71.9702 82.9928C72.2998 82.9104 72.3822 82.9928 72.4646 83.3226C72.547 83.8172 72.547 84.3119 72.547 84.8065C72.547 84.8889 72.3822 85.1362 72.2998 85.1362C71.3109 85.5484 70.322 85.5484 69.3332 85.3011C68.6739 85.1362 68.3443 84.7241 68.1795 84.0645C68.0971 83.5699 68.0971 83.0753 68.0971 82.5806C68.0146 80.5197 68.0146 78.4587 68.0146 76.3153Z" fill="white"/>
<path d="M75.6784 59.1677C75.6784 60.8989 75.6784 62.6301 75.6784 64.4438C75.6784 64.9384 75.596 65.0208 75.1016 65.0208C74.5247 65.0208 74.0303 65.0208 73.4534 65.0208C73.1238 65.0208 72.959 64.9384 72.959 64.5262C72.959 60.9814 72.959 57.4365 72.959 53.8916C72.959 53.5619 73.1238 53.397 73.4534 53.397C74.0303 53.397 74.6071 53.397 75.184 53.397C75.596 53.397 75.6784 53.5619 75.6784 53.8916C75.6784 55.6228 75.6784 57.4365 75.6784 59.1677Z" fill="white"/>
<path d="M76.9966 20.092C76.7494 18.6081 75.9253 17.3715 75.0188 16.135C73.4531 14.074 71.4753 12.4252 69.4152 10.8589C66.2013 8.46819 62.905 6.24235 59.4439 4.26383C57.8782 4.92334 56.4773 5.66528 55.0764 6.65455C54.7467 6.90186 54.0875 6.90186 53.6754 6.81942C53.2634 6.73698 53.0986 7.06674 52.8514 7.47893C51.1208 9.70477 50.1319 11.5184 49.6375 14.3213C49.4727 15.3106 49.4727 15.9701 49.3903 16.9594C49.6375 16.9594 49.3903 17.7013 49.4727 17.6189C50.8736 17.1242 51.6977 17.5364 52.0273 18.9379C52.3569 20.7515 52.6041 22.4827 52.769 24.2964C53.0162 26.2749 53.181 28.171 53.3458 30.1495C53.4282 31.3036 53.5106 32.5402 53.0162 33.6944C52.6866 34.5187 51.9449 34.7661 51.2032 34.4363C51.1208 34.3539 50.956 34.2714 50.8736 34.2714C48.6486 34.0241 48.0718 32.2105 47.4949 30.4793C46.7533 28.2534 46.506 25.9451 46.5884 23.6369C46.6709 21.9057 46.9181 20.1745 47.907 18.6906C48.0718 18.4432 48.1542 18.1959 48.1542 17.9486C48.0718 15.4755 48.5662 13.1672 49.3903 10.8589C49.9671 9.29258 50.956 7.89112 51.8625 6.40723C52.1921 5.83016 52.6042 5.33553 52.5217 4.67602C52.5217 3.7692 53.181 2.86238 54.0875 2.86238C54.9115 2.94482 55.6532 2.77994 56.3949 2.53262C54.1699 1.37848 51.7801 0.471661 49.2255 0.0594683C47.7421 -0.105409 46.2588 0.0594645 44.8579 0.718972C43.5394 1.37848 42.7153 2.53262 41.9737 3.85164C40.9024 5.83016 40.3255 8.056 39.9135 10.2818C39.419 13.0847 39.0894 15.9701 39.007 18.8554C39.007 19.1028 38.9246 20.4218 38.9246 20.6691L38.8422 22.5652C38.7598 25.4505 38.8422 28.2534 39.2542 31.1388C39.5014 32.87 39.9135 34.6012 40.7376 36.25C41.8088 38.3934 43.5394 39.5475 45.9292 39.7948C47.8246 39.9597 49.7199 39.7124 51.5329 39.1353C53.3458 38.5582 55.1588 37.8987 56.8893 37.1568C59.0319 36.25 61.1745 35.1783 63.2346 34.1066C66.3661 32.5402 69.3327 30.809 72.1346 28.6656C73.7827 27.429 75.266 26.0276 76.2549 24.1315C77.079 22.8949 77.2438 21.5759 76.9966 20.092Z" fill="#ABABAB"/>
<path d="M36.2878 16.1343C34.722 14.0733 32.7443 12.4245 30.6841 10.8582C29.0359 9.62163 27.3054 8.38505 25.5749 7.23092C25.0804 8.0553 24.6684 8.79725 24.1739 9.62163C23.5971 10.6109 23.6795 11.6826 24.2564 12.5894C24.8332 13.4962 25.4925 13.9909 26.5637 13.826C26.811 13.826 27.0582 13.826 27.223 13.826C28.3767 13.826 28.7063 14.3206 28.0471 15.3099C27.5526 15.9694 26.8934 16.5465 26.2341 17.1235C25.8221 17.4533 25.3276 17.783 24.9156 18.1128C23.1027 19.4318 22.8554 21.163 23.4323 23.224C24.5036 26.9337 23.6795 30.2313 21.0425 32.9517C19.8064 34.2707 18.1582 35.0127 16.3453 35.26C13.2138 35.7546 10.412 34.6005 7.85737 33.0342C5.54998 31.6327 3.73703 29.8191 2.58333 27.3459C1.0176 23.8835 2.08889 20.4211 4.23147 18.0304C5.71479 16.3816 7.52775 15.3099 9.67033 14.7328C10.2472 14.5679 10.824 14.3206 11.4009 14.0733C12.4722 13.5787 13.2138 13.0016 13.2962 11.6826C13.3786 10.6109 13.461 9.53919 13.7083 8.46749C14.2027 6.24165 15.8508 5.08752 18.1582 5.08752C19.3119 5.41727 20.3832 5.74702 21.5369 5.99434C21.7841 6.07678 22.1962 5.9119 22.361 5.66458C22.4434 5.58214 22.4434 5.49971 22.5258 5.41727C21.2073 4.59289 19.8888 3.85094 18.5703 3.19143C16.0157 1.78997 13.3786 0.635837 10.412 0.223644C8.92866 0.0587674 7.44534 0.223647 6.04442 0.883155C4.72591 1.54266 3.90184 2.6968 3.16018 4.01581C2.08889 5.99434 1.51204 8.22018 1.10001 10.446C0.605564 13.2489 0.275936 16.1343 0.193529 19.0196C0.193529 19.2669 0.111124 20.5859 0.111124 20.8333L0.0287163 22.7294C-0.0536906 25.6147 0.0287163 28.4176 0.440751 31.303C0.687972 33.0342 1.10001 34.7654 1.92407 36.4141C2.99536 38.5575 4.72591 39.7117 7.11571 39.959C9.01107 40.1239 10.9064 39.8766 12.7194 39.2995C14.5323 38.7224 16.3453 38.0629 18.0758 37.321C20.2184 36.4141 22.361 35.3424 24.4212 34.2707C27.5526 32.7044 30.5193 30.9732 33.3211 28.8298C34.9692 27.5932 36.4526 26.1918 37.4415 24.2957C38.1007 22.9767 38.3479 21.5752 38.1007 20.1738C38.0183 18.6074 37.1942 17.3708 36.2878 16.1343Z" fill="#ABABAB"/>
<path d="M115.893 20.092C115.646 18.6081 114.822 17.3716 113.915 16.135C112.35 14.074 110.372 12.4253 108.312 10.8589C104.521 7.97358 100.483 5.33555 96.2803 3.10971C93.7256 1.70826 91.0886 0.554118 88.122 0.141926C86.6387 -0.022951 85.1553 0.141928 83.7544 0.801436C82.4359 1.46094 81.6118 2.61508 80.8702 3.93409C79.7989 5.91262 79.222 8.13846 78.81 10.3643C78.3156 13.1672 77.9859 16.0526 77.9035 18.9379C77.9035 19.1852 77.8211 20.5042 77.8211 20.7515L77.7387 22.6476C77.6563 25.2857 77.7387 27.9237 78.0683 30.5617C79.0572 29.3251 80.0461 28.171 80.9526 26.9344C82.5183 24.9559 84.2489 23.0598 85.897 21.1637C87.2155 19.6798 88.534 18.1959 89.8525 16.7121C90.2646 16.2999 90.0997 15.8877 89.8525 15.4755C88.7812 13.8267 89.9349 11.2711 91.6655 10.6941C92.0775 10.5292 92.5719 10.5292 92.984 10.4467C94.4673 10.3643 96.1979 11.5184 96.3627 13.7443C96.4451 15.1457 95.5386 16.8769 93.7256 17.2067C93.1488 17.2891 92.572 17.2891 92.0775 17.2067C91.5831 17.1242 91.3359 17.2067 91.0886 17.6189C88.4516 21.0813 85.897 24.5437 83.26 27.9237C81.6942 29.8198 80.2109 31.7983 78.6452 33.6944C78.8924 34.5188 79.222 35.4256 79.6341 36.1675C80.7054 38.3109 82.4359 39.4651 84.8257 39.7124C86.309 39.8773 87.7924 39.7124 89.2757 39.3826C91.0886 35.508 92.9016 31.7159 94.7969 27.9237C96.033 25.2857 97.5164 22.7301 98.8349 20.1745C99.0821 19.7623 98.9997 19.515 98.6701 19.1028C97.1043 17.3716 97.5988 14.4038 99.9886 13.5794C102.214 12.755 104.521 14.1565 104.768 16.7121C104.933 18.4433 103.285 20.2569 101.472 20.3394C100.895 20.3394 100.565 20.5042 100.318 21.0813C99.1645 23.8842 97.9284 26.6871 96.6923 29.49C95.8682 31.3037 95.0442 33.1173 94.2201 34.8485C93.6432 36.0851 93.0664 37.3217 92.4895 38.5583C93.6432 38.1461 94.7969 37.7339 95.8682 37.2392C98.0108 36.3324 100.153 35.2607 102.214 34.189C105.345 32.6227 108.312 30.8915 111.114 28.7481C112.762 27.5115 114.245 26.11 115.234 24.214C115.976 22.9774 116.14 21.5759 115.893 20.092Z" fill="#ABABAB"/>
<path d="M109.877 72.1919C109.877 73.0987 109.135 73.8406 108.229 73.8406C107.322 73.8406 106.581 73.0987 106.581 72.1919C106.581 71.285 107.322 70.5431 108.229 70.5431C109.135 70.5431 109.877 71.285 109.877 72.1919ZM106.993 72.1919C106.993 72.9338 107.487 73.5109 108.229 73.5109C108.97 73.5109 109.465 72.9338 109.465 72.1919C109.465 71.4499 108.97 70.8729 108.229 70.8729C107.487 70.8729 106.993 71.4499 106.993 72.1919ZM107.981 73.0162H107.569V71.3675C107.734 71.3675 107.899 71.285 108.229 71.285C108.558 71.285 108.641 71.3675 108.806 71.3675C108.888 71.4499 108.97 71.5324 108.97 71.6972C108.97 71.8621 108.806 72.027 108.641 72.1094C108.806 72.1919 108.888 72.2743 108.97 72.5216C109.053 72.7689 109.053 72.8514 109.053 72.9338H108.641C108.558 72.8514 108.558 72.6865 108.476 72.5216C108.476 72.3567 108.311 72.2743 108.146 72.2743H107.981V73.0162ZM107.981 72.1094H108.146C108.394 72.1094 108.558 72.027 108.558 71.8621C108.558 71.6972 108.476 71.6148 108.229 71.6148C108.146 71.6148 108.064 71.6148 107.981 71.6148V72.1094Z" fill="white"/>
</svg>
