<svg width="160" height="90" viewBox="0 0 160 90" fill="none" xmlns="http://www.w3.org/2000/svg">
<path d="M12.6981 75.4799H9.51523V62.7362H11.6428C14.9429 62.7362 16.1826 63.3661 17.439 66.9841H17.5228V57.1799H17.439C16.1658 60.8464 14.9429 61.7024 11.6428 61.7024H9.51523V49.8955H12.2961C17.2715 49.8955 19.2818 52.3021 21.5265 56.2754H21.6103L20.4879 48.9102H17.5898H0V48.991C1.67522 50.057 1.99351 51.0423 1.99351 53.6266V71.7327C1.99351 74.3331 1.65847 75.3184 0 76.3682V76.449H21.2753L22.3809 68.3408H22.2971C20.0524 72.6049 17.8411 75.4799 12.6981 75.4799Z" fill="#ABABAB"/>
<path d="M12.6981 75.4799H9.51523V62.7362H11.6428C14.9429 62.7362 16.1826 63.3661 17.439 66.9841H17.5228V57.1799H17.439C16.1658 60.8464 14.9429 61.7024 11.6428 61.7024H9.51523V49.8955H12.2961C17.2715 49.8955 19.2818 52.3021 21.5265 56.2754H21.6103L20.4879 48.9102H17.5898H0V48.991C1.67522 50.057 1.99351 51.0423 1.99351 53.6266V71.7327C1.99351 74.3331 1.65847 75.3184 0 76.3682V76.449H21.2753L22.3809 68.3408H22.2971C20.0524 72.6049 17.8411 75.4799 12.6981 75.4799Z" fill="#ABABAB"/>
<path d="M34.9945 75.4799H33.6041V49.8955H34.827C39.9364 49.8955 42.667 54.418 42.667 62.5746C42.667 71.1835 39.9364 75.4799 34.9945 75.4799ZM35.028 48.9102H24.0889V48.991C25.7641 50.057 26.0824 51.0423 26.0824 53.6266V71.7327C26.0824 74.3331 25.7473 75.3184 24.0889 76.3682V76.449H35.3631C43.9402 76.449 50.7583 72.0396 50.7583 62.5585C50.7583 53.3197 44.0575 48.9102 35.028 48.9102Z" fill="#ABABAB"/>
<path d="M34.9945 75.4799H33.6041V49.8955H34.827C39.9364 49.8955 42.667 54.418 42.667 62.5746C42.667 71.1835 39.9364 75.4799 34.9945 75.4799ZM35.028 48.9102H24.0889V48.991C25.7641 50.057 26.0824 51.0423 26.0824 53.6266V71.7327C26.0824 74.3331 25.7473 75.3184 24.0889 76.3682V76.449H35.3631C43.9402 76.449 50.7583 72.0396 50.7583 62.5585C50.7583 53.3197 44.0575 48.9102 35.028 48.9102Z" fill="#ABABAB"/>
<path d="M52.2988 48.991C53.974 50.057 54.2923 51.0423 54.2923 53.6266V71.7327C54.2923 74.3331 53.9573 75.3184 52.2988 76.3844V76.4652H63.8243V76.3844C62.1156 75.3184 61.8308 74.3331 61.8308 71.7327V53.6427C61.8308 51.0423 62.1156 50.057 63.8243 49.0072V48.9102H52.3156V48.991H52.2988Z" fill="#ABABAB"/>
<path d="M52.2988 48.991C53.974 50.057 54.2923 51.0423 54.2923 53.6266V71.7327C54.2923 74.3331 53.9573 75.3184 52.2988 76.3844V76.4652H63.8243V76.3844C62.1156 75.3184 61.8308 74.3331 61.8308 71.7327V53.6427C61.8308 51.0423 62.1156 50.057 63.8243 49.0072V48.9102H52.3156V48.991H52.2988Z" fill="#ABABAB"/>
<path d="M88.2666 48.9102H69.0016H66.1369L65.0815 58.359H65.1653C68.231 52.609 69.8559 49.8632 73.8597 49.8632H74.8816V71.8619C74.8816 74.4623 74.3958 75.2538 72.553 76.3844V76.4652H84.7151V76.3844C82.8724 75.2376 82.3865 74.4623 82.3865 71.8619V49.8632H83.4084C87.4122 49.8632 89.0874 52.6251 92.1028 58.359H92.1866L91.1647 48.9102H88.2666Z" fill="#ABABAB"/>
<path d="M88.2666 48.9102H69.0016H66.1369L65.0815 58.359H65.1653C68.231 52.609 69.8559 49.8632 73.8597 49.8632H74.8816V71.8619C74.8816 74.4623 74.3958 75.2538 72.553 76.3844V76.4652H84.7151V76.3844C82.8724 75.2376 82.3865 74.4623 82.3865 71.8619V49.8632H83.4084C87.4122 49.8632 89.0874 52.6251 92.1028 58.359H92.1866L91.1647 48.9102H88.2666Z" fill="#ABABAB"/>
<path d="M93.5107 48.991C95.186 50.057 95.5042 51.0423 95.5042 53.6266V71.7327C95.5042 74.3331 95.1692 75.3184 93.5107 76.3844V76.4652H105.036V76.3844C103.328 75.3184 103.043 74.3331 103.043 71.7327V53.6427C103.043 51.0423 103.328 50.057 105.036 49.0072V48.9102H93.5275V48.991H93.5107Z" fill="#ABABAB"/>
<path d="M93.5107 48.991C95.186 50.057 95.5042 51.0423 95.5042 53.6266V71.7327C95.5042 74.3331 95.1692 75.3184 93.5107 76.3844V76.4652H105.036V76.3844C103.328 75.3184 103.043 74.3331 103.043 71.7327V53.6427C103.043 51.0423 103.328 50.057 105.036 49.0072V48.9102H93.5275V48.991H93.5107Z" fill="#ABABAB"/>
<path d="M119.828 76.0803C116.025 76.0803 114.853 71.2024 114.853 62.7066C114.853 54.2108 116.042 49.3329 119.828 49.3329C123.664 49.3329 124.854 54.2108 124.854 62.7066C124.854 71.1863 123.664 76.0803 119.828 76.0803ZM119.828 48.5253C112.189 48.5253 106.644 54.4207 106.644 62.6904C106.644 70.9602 112.189 76.8556 119.828 76.8556C127.467 76.8556 133.062 70.9602 133.062 62.6904C133.062 54.4207 127.467 48.5253 119.828 48.5253Z" fill="#ABABAB"/>
<path d="M119.828 76.0803C116.025 76.0803 114.853 71.2024 114.853 62.7066C114.853 54.2108 116.042 49.3329 119.828 49.3329C123.664 49.3329 124.854 54.2108 124.854 62.7066C124.854 71.1863 123.664 76.0803 119.828 76.0803ZM119.828 48.5253C112.189 48.5253 106.644 54.4207 106.644 62.6904C106.644 70.9602 112.189 76.8556 119.828 76.8556C127.467 76.8556 133.062 70.9602 133.062 62.6904C133.062 54.4207 127.467 48.5253 119.828 48.5253Z" fill="#ABABAB"/>
<path d="M152.996 48.991C155.157 50.0086 156.011 51.6722 156.011 55.3225V64.9328L144.704 48.9102H134.703V48.991C136.378 50.057 136.696 51.0423 136.696 53.6266V70.7797C136.696 73.6547 135.842 75.3022 133.999 76.3682V76.449H141.018V76.3682C138.857 75.3507 137.953 73.687 137.953 70.0367V52.5767L154.973 76.5782H157.301V54.5795C157.301 51.7045 158.122 50.057 159.948 48.991V48.9102H152.962V48.991H152.996Z" fill="#ABABAB"/>
<path d="M152.996 48.991C155.157 50.0086 156.011 51.6722 156.011 55.3225V64.9328L144.704 48.9102H134.703V48.991C136.378 50.057 136.696 51.0423 136.696 53.6266V70.7797C136.696 73.6547 135.842 75.3022 133.999 76.3682V76.449H141.018V76.3682C138.857 75.3507 137.953 73.687 137.953 70.0367V52.5767L154.973 76.5782H157.301V54.5795C157.301 51.7045 158.122 50.057 159.948 48.991V48.9102H152.962V48.991H152.996Z" fill="#ABABAB"/>
<path d="M90.2111 5.96385C90.2111 8.27355 89.3735 10.0018 88.1338 11.2132C89.4237 11.407 90.6801 11.9723 91.702 12.9737C92.7909 14.0236 93.394 15.3642 93.3772 16.7209C93.3605 18.1584 92.6904 19.5313 91.434 20.6943C90.8476 21.2434 90.1106 21.6472 89.3064 21.9703L89.7085 22.2125C90.2446 22.6002 90.3618 22.7132 90.8141 23.1009C92.9584 24.9583 94.0808 27.6557 94.0976 30.9022C94.0976 31.629 94.0306 32.3558 93.8965 33.0504L98.1013 43.1937H98.4196L108.303 15.7518L118.137 43.1937H118.455L131.354 7.90206C132.728 4.15485 134.303 1.87745 136.481 0.488398V0.375336H126.211V0.488398C128.657 1.57057 129.713 3.2019 129.713 5.18856C129.713 6.02846 129.528 6.93295 129.21 7.90206L122.761 26.1859L116.629 7.28829C116.194 6.02846 115.942 4.99474 115.942 4.02564C115.942 2.52352 116.696 1.4252 118.321 0.472247V0.359184H100.983V0.472247C102.993 1.92591 103.931 3.54108 105.238 7.11063L107.432 13.1352L102.926 25.9274L96.0408 7.28829C95.6053 6.02846 95.287 4.93014 95.287 3.91257C95.287 2.45891 95.9738 1.37675 97.4815 0.472247V0.359184H86.1235C88.2678 1.36059 90.2111 3.57339 90.2111 5.96385Z" fill="#ABABAB"/>
<path d="M90.2111 5.96385C90.2111 8.27355 89.3735 10.0018 88.1338 11.2132C89.4237 11.407 90.6801 11.9723 91.702 12.9737C92.7909 14.0236 93.394 15.3642 93.3772 16.7209C93.3605 18.1584 92.6904 19.5313 91.434 20.6943C90.8476 21.2434 90.1106 21.6472 89.3064 21.9703L89.7085 22.2125C90.2446 22.6002 90.3618 22.7132 90.8141 23.1009C92.9584 24.9583 94.0808 27.6557 94.0976 30.9022C94.0976 31.629 94.0306 32.3558 93.8965 33.0504L98.1013 43.1937H98.4196L108.303 15.7518L118.137 43.1937H118.455L131.354 7.90206C132.728 4.15485 134.303 1.87745 136.481 0.488398V0.375336H126.211V0.488398C128.657 1.57057 129.713 3.2019 129.713 5.18856C129.713 6.02846 129.528 6.93295 129.21 7.90206L122.761 26.1859L116.629 7.28829C116.194 6.02846 115.942 4.99474 115.942 4.02564C115.942 2.52352 116.696 1.4252 118.321 0.472247V0.359184H100.983V0.472247C102.993 1.92591 103.931 3.54108 105.238 7.11063L107.432 13.1352L102.926 25.9274L96.0408 7.28829C95.6053 6.02846 95.287 4.93014 95.287 3.91257C95.287 2.45891 95.9738 1.37675 97.4815 0.472247V0.359184H86.1235C88.2678 1.36059 90.2111 3.57339 90.2111 5.96385Z" fill="#ABABAB"/>
<path d="M58.6313 10.5189V23.2465C59.1673 22.245 59.8374 21.2921 60.608 20.4522V18.0617V10.5189C60.608 4.9788 61.9147 2.47528 65.1814 0.924708V0.811646H64.6118H54.594H54.0244V0.924708C57.3413 2.47528 58.6313 4.9788 58.6313 10.5189Z" fill="#ABABAB"/>
<path d="M58.6313 10.5189V23.2465C59.1673 22.245 59.8374 21.2921 60.608 20.4522V18.0617V10.5189C60.608 4.9788 61.9147 2.47528 65.1814 0.924708V0.811646H64.6118H54.594H54.0244V0.924708C57.3413 2.47528 58.6313 4.9788 58.6313 10.5189Z" fill="#ABABAB"/>
<path d="M34.9609 43.0488C31.6104 41.4659 30.22 38.9139 30.22 33.2447V6.01278L56.5712 43.178H60.1729V40.9491C60.1394 40.9006 60.0891 40.8683 60.0556 40.8198C56.856 37.218 55.7001 32.4209 56.5377 27.85C56.7555 26.6709 57.124 25.508 57.6098 24.3773L40.6566 0.343513H25.1776V0.472728C27.7742 2.12021 28.2768 3.63847 28.2768 7.66026V34.4076C28.2768 38.8493 26.9533 41.4175 24.1055 43.0649V43.1942H34.9776V43.0488H34.9609Z" fill="#ABABAB"/>
<path d="M34.9609 43.0488C31.6104 41.4659 30.22 38.9139 30.22 33.2447V6.01278L56.5712 43.178H60.1729V40.9491C60.1394 40.9006 60.0891 40.8683 60.0556 40.8198C56.856 37.218 55.7001 32.4209 56.5377 27.85C56.7555 26.6709 57.124 25.508 57.6098 24.3773L40.6566 0.343513H25.1776V0.472728C27.7742 2.12021 28.2768 3.63847 28.2768 7.66026V34.4076C28.2768 38.8493 26.9533 41.4175 24.1055 43.0649V43.1942H34.9776V43.0488H34.9609Z" fill="#ABABAB"/>
<path d="M64.4289 8.64369C64.4457 8.90212 64.4792 9.16055 64.5462 9.41898C64.8142 10.6788 65.3671 11.874 66.3219 12.7947C67.3271 13.78 68.7175 14.4906 70.0242 15.0236C71.5654 15.6697 73.2741 16.1058 74.966 16.1058C70.644 16.1058 65.9366 17.7533 62.67 20.4668C57.7448 24.5693 57.192 32.2091 60.3582 37.4746C63.9096 43.4185 72.1182 44.3876 78.5008 43.4669C85.1346 42.4978 92.0868 37.6684 92.0868 30.6101C92.0868 25.0216 88.1668 21.2098 80.4105 22.0012C83.4091 21.4682 87.9825 21.4197 89.9592 19.5946C91.8522 17.8502 91.7685 15.702 90.1938 14.1838C88.1165 12.1809 84.7493 12.504 82.8731 14.2484C83.0238 14.1191 83.7107 14.2968 83.8782 14.3453C84.2468 14.4422 84.5818 14.6198 84.8833 14.846C85.4194 15.2498 85.8382 15.7666 85.8885 16.445C85.9387 17.1395 85.6037 17.721 85.1011 18.1894C83.962 19.2877 82.6888 19.8853 81.0638 20.5637C79.3049 21.2905 77.5794 21.9043 75.9712 22.8896C74.497 23.7941 73.2406 25.0377 72.403 26.5399C71.2638 28.6073 71.0125 31.1108 71.9339 33.2913C73.1233 36.1179 76.7585 38.8314 80.042 37.4261C81.2984 36.877 82.2197 35.811 82.471 34.5027C82.7558 32.9844 82.27 31.3369 81.1308 30.2386C81.1979 30.3032 81.0806 30.8847 81.0471 30.9493C80.3267 33.4205 77.4119 34.325 75.0666 33.6466C73.6594 33.2428 72.6542 32.0476 72.5202 30.6101C72.403 29.1726 73.2741 27.7512 74.497 26.976C75.5859 26.2814 77.2443 26.2168 78.5008 26.3137C79.9079 26.4268 81.2984 26.8629 82.4878 27.6059C83.9955 28.5427 85.1681 29.9317 85.855 31.5146C86.6088 33.2751 86.6088 35.1487 85.922 36.9416C85.8885 37.0224 85.855 37.1031 85.8215 37.1839C83.4426 42.7724 74.296 42.6109 70.3257 38.9121C66.6235 35.4718 66.0036 29.8671 67.7124 25.3446C68.0809 24.3594 68.5332 23.2934 69.153 22.4373C70.4095 20.6606 72.0679 19.1746 73.9777 18.0602C74.7818 17.5918 75.6361 17.188 76.524 16.8649C76.9763 16.7034 77.4286 16.5581 77.8977 16.4288C78.3165 16.3158 79.0703 16.122 79.1876 16.122C78.8526 16.122 78.5008 15.9766 78.1825 15.8797C77.7972 15.7666 77.4119 15.6213 77.0601 15.4436C75.8539 14.8298 74.9325 13.8284 74.2625 12.6978C73.9274 12.1325 73.6426 11.5187 73.4248 10.8888C73.2071 10.2427 73.006 9.51589 72.9223 8.83752C72.7883 7.86841 72.872 6.867 73.1736 5.9302C73.6929 4.23426 74.8655 2.90981 76.3732 1.95686C76.7418 1.71458 77.1438 1.50461 77.5459 1.32694C79.2881 0.519353 81.8679 1.05236 82.8396 2.76445C83.2416 3.49128 83.3924 4.34732 83.2584 5.15491C83.1076 6.04326 82.6218 6.8347 81.9685 7.46461C81.3151 8.09453 80.4943 8.62754 79.6399 8.93443C79.2714 9.06364 78.9028 9.1767 78.5175 9.24131C78.1322 9.30592 77.8307 9.35437 77.4454 9.28976C77.3449 9.27361 77.1438 9.19285 77.0266 9.09594C77.6296 10.6465 79.2378 12.084 82.3873 12.0194C85.3189 12.0194 88.351 10.3235 88.351 6.31784C88.351 4.1212 86.5753 2.61908 84.7493 1.55307C82.069 0.00249599 79.4389 -0.0136556 76.6915 0.00249621C73.8939 0.00249621 70.7445 0.30938 68.2652 1.63382C65.6351 3.05518 64.2112 5.73637 64.4289 8.64369Z" fill="#ABABAB"/>
<path d="M64.4289 8.64369C64.4457 8.90212 64.4792 9.16055 64.5462 9.41898C64.8142 10.6788 65.3671 11.874 66.3219 12.7947C67.3271 13.78 68.7175 14.4906 70.0242 15.0236C71.5654 15.6697 73.2741 16.1058 74.966 16.1058C70.644 16.1058 65.9366 17.7533 62.67 20.4668C57.7448 24.5693 57.192 32.2091 60.3582 37.4746C63.9096 43.4185 72.1182 44.3876 78.5008 43.4669C85.1346 42.4978 92.0868 37.6684 92.0868 30.6101C92.0868 25.0216 88.1668 21.2098 80.4105 22.0012C83.4091 21.4682 87.9825 21.4197 89.9592 19.5946C91.8522 17.8502 91.7685 15.702 90.1938 14.1838C88.1165 12.1809 84.7493 12.504 82.8731 14.2484C83.0238 14.1191 83.7107 14.2968 83.8782 14.3453C84.2468 14.4422 84.5818 14.6198 84.8833 14.846C85.4194 15.2498 85.8382 15.7666 85.8885 16.445C85.9387 17.1395 85.6037 17.721 85.1011 18.1894C83.962 19.2877 82.6888 19.8853 81.0638 20.5637C79.3049 21.2905 77.5794 21.9043 75.9712 22.8896C74.497 23.7941 73.2406 25.0377 72.403 26.5399C71.2638 28.6073 71.0125 31.1108 71.9339 33.2913C73.1233 36.1179 76.7585 38.8314 80.042 37.4261C81.2984 36.877 82.2197 35.811 82.471 34.5027C82.7558 32.9844 82.27 31.3369 81.1308 30.2386C81.1979 30.3032 81.0806 30.8847 81.0471 30.9493C80.3267 33.4205 77.4119 34.325 75.0666 33.6466C73.6594 33.2428 72.6542 32.0476 72.5202 30.6101C72.403 29.1726 73.2741 27.7512 74.497 26.976C75.5859 26.2814 77.2443 26.2168 78.5008 26.3137C79.9079 26.4268 81.2984 26.8629 82.4878 27.6059C83.9955 28.5427 85.1681 29.9317 85.855 31.5146C86.6088 33.2751 86.6088 35.1487 85.922 36.9416C85.8885 37.0224 85.855 37.1031 85.8215 37.1839C83.4426 42.7724 74.296 42.6109 70.3257 38.9121C66.6235 35.4718 66.0036 29.8671 67.7124 25.3446C68.0809 24.3594 68.5332 23.2934 69.153 22.4373C70.4095 20.6606 72.0679 19.1746 73.9777 18.0602C74.7818 17.5918 75.6361 17.188 76.524 16.8649C76.9763 16.7034 77.4286 16.5581 77.8977 16.4288C78.3165 16.3158 79.0703 16.122 79.1876 16.122C78.8526 16.122 78.5008 15.9766 78.1825 15.8797C77.7972 15.7666 77.4119 15.6213 77.0601 15.4436C75.8539 14.8298 74.9325 13.8284 74.2625 12.6978C73.9274 12.1325 73.6426 11.5187 73.4248 10.8888C73.2071 10.2427 73.006 9.51589 72.9223 8.83752C72.7883 7.86841 72.872 6.867 73.1736 5.9302C73.6929 4.23426 74.8655 2.90981 76.3732 1.95686C76.7418 1.71458 77.1438 1.50461 77.5459 1.32694C79.2881 0.519353 81.8679 1.05236 82.8396 2.76445C83.2416 3.49128 83.3924 4.34732 83.2584 5.15491C83.1076 6.04326 82.6218 6.8347 81.9685 7.46461C81.3151 8.09453 80.4943 8.62754 79.6399 8.93443C79.2714 9.06364 78.9028 9.1767 78.5175 9.24131C78.1322 9.30592 77.8307 9.35437 77.4454 9.28976C77.3449 9.27361 77.1438 9.19285 77.0266 9.09594C77.6296 10.6465 79.2378 12.084 82.3873 12.0194C85.3189 12.0194 88.351 10.3235 88.351 6.31784C88.351 4.1212 86.5753 2.61908 84.7493 1.55307C82.069 0.00249599 79.4389 -0.0136556 76.6915 0.00249621C73.8939 0.00249621 70.7445 0.30938 68.2652 1.63382C65.6351 3.05518 64.2112 5.73637 64.4289 8.64369Z" fill="#ABABAB"/>
<path d="M158.543 89.8491C158.861 89.736 159.129 89.5745 159.347 89.3645C159.548 89.1707 159.715 88.9284 159.832 88.6538C159.95 88.3792 160 88.0562 160 87.7009V83.5499H159.514V84.5351C159.414 84.3898 159.28 84.2605 159.146 84.1152C159.012 83.986 158.844 83.8567 158.677 83.7598C158.509 83.6629 158.308 83.5822 158.09 83.5176C157.872 83.4529 157.638 83.4206 157.387 83.4206C157.085 83.4206 156.784 83.4691 156.482 83.5822C156.181 83.6952 155.929 83.8406 155.695 84.0506C155.46 84.2605 155.276 84.5028 155.142 84.7935C155.008 85.0843 154.924 85.4073 154.924 85.7627V85.7788C154.924 86.1341 154.991 86.4572 155.142 86.7318C155.276 87.0063 155.46 87.2486 155.695 87.4586C155.929 87.6686 156.181 87.8139 156.482 87.927C156.767 88.0401 157.068 88.0885 157.387 88.0885C157.638 88.0885 157.872 88.0562 158.09 87.9916C158.308 87.927 158.492 87.8462 158.677 87.7332C158.844 87.6201 159.012 87.507 159.146 87.3778C159.28 87.2486 159.414 87.1032 159.531 86.9417V87.6524C159.531 87.9593 159.481 88.25 159.38 88.4761C159.28 88.7184 159.146 88.9122 158.961 89.0738C158.777 89.2353 158.576 89.3483 158.325 89.4291C158.074 89.5099 157.805 89.5422 157.521 89.5422C156.767 89.5422 156.08 89.316 155.46 88.8476L155.175 89.2353C155.879 89.736 156.65 89.9944 157.521 89.9944C157.872 90.0106 158.224 89.9621 158.543 89.8491ZM156.666 87.4909C156.432 87.394 156.214 87.2648 156.03 87.1032C155.845 86.9417 155.711 86.7479 155.594 86.5056C155.494 86.2795 155.427 86.0211 155.427 85.7465V85.7303C155.427 85.4396 155.477 85.1812 155.577 84.9551C155.678 84.7289 155.829 84.5351 155.996 84.3736C156.181 84.2121 156.382 84.0829 156.633 84.0021C156.867 83.9213 157.119 83.8729 157.387 83.8729C157.655 83.8729 157.906 83.9213 158.174 84.0021C158.425 84.0829 158.66 84.2121 158.844 84.3736C159.045 84.5351 159.196 84.7289 159.313 84.9712C159.43 85.1973 159.497 85.4558 159.497 85.7465V85.7627C159.497 86.0372 159.43 86.2957 159.313 86.5218C159.196 86.7479 159.028 86.9417 158.844 87.1032C158.643 87.2648 158.425 87.394 158.174 87.4909C157.923 87.5878 157.655 87.6201 157.387 87.6201C157.169 87.6363 156.918 87.5878 156.666 87.4909ZM143.382 88.46H143.868V85.6173C143.868 85.3589 143.918 85.1327 144.002 84.9066C144.085 84.6966 144.219 84.5028 144.37 84.3574C144.538 84.1959 144.722 84.0829 144.923 84.0021C145.141 83.9213 145.375 83.8729 145.627 83.8729C146.146 83.8729 146.548 84.0183 146.833 84.3251C147.118 84.632 147.252 85.0358 147.252 85.5365V88.46H147.737V85.4396C147.737 85.1489 147.687 84.8743 147.603 84.632C147.52 84.3898 147.386 84.1636 147.201 83.986C147.017 83.8083 146.816 83.6629 146.565 83.566C146.313 83.4691 146.029 83.4206 145.71 83.4206C145.241 83.4206 144.856 83.5176 144.571 83.7114C144.27 83.9052 144.052 84.1475 143.868 84.4382V83.5176H143.382V88.46ZM135.173 82.2577H135.776V81.6116H135.173V82.2577ZM135.224 88.46H135.709V83.5499H135.224V88.46ZM125.357 88.4923H125.775L128.07 83.5499H127.518L125.574 87.927L123.648 83.5337H123.078L125.357 88.4923ZM115.372 82.2577H115.975V81.6116H115.372V82.2577ZM115.422 88.46H115.908V83.5499H115.422V88.46ZM107.197 88.46H107.683V81.434H107.197V88.46ZM88.3342 89.7037C88.6022 89.4937 88.8535 89.1384 89.0713 88.6215L91.2826 83.5337H90.7465L88.9038 87.927L86.793 83.5337H86.2234L88.6692 88.4115C88.5687 88.6215 88.485 88.7992 88.3845 88.9446C88.2839 89.0899 88.2002 89.2191 88.0997 89.2999C87.9992 89.3968 87.8987 89.4614 87.7814 89.4937C87.6641 89.526 87.5469 89.5583 87.4128 89.5583C87.2118 89.5583 87.061 89.5422 86.927 89.5099C86.793 89.4776 86.6757 89.4291 86.5417 89.3645L86.3742 89.7844C86.5417 89.8491 86.7092 89.9137 86.86 89.946C87.0108 89.9783 87.1783 89.9944 87.3793 89.9944C87.7479 90.0267 88.0662 89.9137 88.3342 89.7037ZM77.9144 88.3954C78.2159 88.2823 78.4672 88.1047 78.7017 87.8785C78.9362 87.6524 79.1205 87.394 79.2713 87.0709C79.4221 86.7479 79.4891 86.3926 79.4891 86.0049V85.9888C79.4891 85.585 79.4221 85.2296 79.2713 84.9228C79.1205 84.5997 78.9362 84.3413 78.7017 84.1152C78.4672 83.889 78.1991 83.7275 77.9144 83.6145C77.6128 83.5014 77.3113 83.4368 77.0097 83.4368C76.7585 83.4368 76.5239 83.4691 76.3229 83.5337C76.1051 83.5983 75.9209 83.6952 75.7533 83.7921C75.5858 83.9052 75.435 84.0344 75.2843 84.1798C75.1502 84.3251 75.0162 84.4867 74.9157 84.6482V81.434H74.4299V88.46H74.9157V87.394C75.0162 87.5555 75.1502 87.7009 75.2843 87.8301C75.4183 87.9754 75.5691 88.0885 75.7366 88.2016C75.9041 88.3146 76.1051 88.3954 76.3061 88.46C76.5239 88.5246 76.7585 88.5569 77.0097 88.5569C77.3113 88.5731 77.6128 88.5085 77.9144 88.3954ZM76.1889 87.9593C75.9376 87.8624 75.7198 87.717 75.5188 87.5232C75.3178 87.3455 75.167 87.1194 75.0497 86.861C74.9325 86.6025 74.8822 86.3118 74.8822 86.0049V85.9888C74.8822 85.6819 74.9325 85.3912 75.0497 85.1327C75.167 84.8743 75.3178 84.6482 75.5188 84.4705C75.7198 84.2767 75.9376 84.1475 76.1889 84.0344C76.4402 83.9375 76.6914 83.8729 76.9595 83.8729C77.2275 83.8729 77.4788 83.9214 77.7301 84.0183C77.9814 84.1152 78.1824 84.2605 78.3667 84.4382C78.5509 84.6159 78.7017 84.842 78.8022 85.1004C78.9027 85.3589 78.9697 85.6496 78.9697 85.9726V85.9888C78.9697 86.3118 78.9195 86.6026 78.819 86.8771C78.7185 87.1356 78.5677 87.3617 78.4002 87.5393C78.2159 87.717 78.0149 87.8624 77.7636 87.9593C77.5123 88.0562 77.261 88.1047 76.9762 88.1047C76.6914 88.1208 76.4402 88.0562 76.1889 87.9593ZM53.808 88.46H54.2938V85.6173C54.2938 85.3589 54.344 85.1327 54.4278 84.9066C54.5116 84.6966 54.6456 84.5028 54.7964 84.3574C54.9639 84.1959 55.1482 84.0829 55.3492 84.0021C55.567 83.9213 55.8015 83.8729 56.0528 83.8729C56.5721 83.8729 56.9741 84.0183 57.2589 84.3251C57.5437 84.632 57.6777 85.0358 57.6777 85.5365V88.46H58.1635V85.4396C58.1635 85.1489 58.1133 84.8743 58.0295 84.632C57.9458 84.3898 57.8117 84.1636 57.6275 83.986C57.4432 83.8083 57.2422 83.6629 56.9909 83.566C56.7396 83.4691 56.4548 83.4206 56.1365 83.4206C55.6675 83.4206 55.2822 83.5176 54.9974 83.7114C54.6958 83.9052 54.4781 84.1475 54.2938 84.4382V83.5176H53.808V88.46ZM45.5994 88.2985C45.9345 88.1208 46.2192 87.8947 46.4873 87.6363L46.1522 87.3455C45.9345 87.5717 45.6999 87.7493 45.4151 87.8947C45.1304 88.0401 44.7953 88.1208 44.3933 88.1208C44.142 88.1208 43.8907 88.0724 43.6729 87.9916C43.4384 87.9108 43.2374 87.7816 43.0531 87.6201C42.8688 87.4586 42.718 87.2486 42.6008 87.0225C42.4835 86.7802 42.4165 86.5218 42.383 86.2149H46.6045C46.6045 86.1826 46.6213 86.1503 46.6213 86.118V86.0211C46.6213 85.6496 46.571 85.3104 46.4538 85.0035C46.3365 84.6966 46.1857 84.4221 45.9847 84.1959C45.7837 83.9698 45.5324 83.776 45.2476 83.6468C44.9628 83.5176 44.6445 83.453 44.276 83.453C43.9242 83.453 43.6059 83.5176 43.3211 83.6629C43.0363 83.7921 42.7683 83.986 42.5505 84.2121C42.3327 84.4382 42.1652 84.7128 42.048 85.0197C41.9307 85.3266 41.8637 85.6657 41.8637 86.0211V86.0372C41.8637 86.4249 41.9307 86.7802 42.0647 87.0871C42.1987 87.394 42.383 87.6686 42.6175 87.8947C42.8521 88.1208 43.1201 88.2985 43.4216 88.4115C43.7232 88.5408 44.0415 88.5892 44.3765 88.5892C44.8623 88.5731 45.2811 88.4762 45.5994 88.2985ZM42.3998 85.7627C42.4165 85.4881 42.4835 85.2458 42.584 85.0035C42.6845 84.7612 42.8186 84.5674 42.9861 84.3898C43.1536 84.2121 43.3379 84.0829 43.5556 83.986C43.7734 83.889 44.008 83.8406 44.2592 83.8406C44.5608 83.8406 44.8121 83.889 45.0298 84.0021C45.2476 84.1152 45.4319 84.2444 45.5827 84.4221C45.7334 84.5997 45.8507 84.7935 45.9345 85.0358C46.0182 85.2619 46.0685 85.5042 46.0852 85.7465H42.3998V85.7627ZM32.4322 88.4923H32.851L35.1461 83.5499H34.5932L32.65 87.927L30.7235 83.5499H30.1539L32.4322 88.4923ZM22.4312 82.2577H23.0342V81.6116H22.4312V82.2577ZM22.4982 88.46H22.984V83.5499H22.4982V88.46ZM12.6814 88.46H13.1672V86.441C13.1672 86.0372 13.2342 85.698 13.3515 85.3912C13.4687 85.0843 13.6363 84.8259 13.8373 84.6159C14.0383 84.4059 14.2729 84.2444 14.5409 84.1475C14.8089 84.0344 15.0937 83.986 15.3785 83.986H15.4288V83.4691C15.1775 83.4691 14.9262 83.4853 14.7084 83.566C14.4739 83.6306 14.2729 83.7275 14.0718 83.8567C13.8708 83.986 13.7033 84.1475 13.5525 84.3413C13.4017 84.5351 13.2677 84.7289 13.1672 84.9551V83.566H12.6814V88.46ZM3.18291 88.46C3.40069 88.3954 3.58496 88.2985 3.75249 88.2016C3.92001 88.0885 4.07078 87.9593 4.2048 87.8139C4.33881 87.6686 4.47283 87.507 4.57334 87.3455V88.4438H5.05916V81.4178H4.57334V84.5997C4.47283 84.4382 4.33881 84.2928 4.2048 84.1636C4.07078 84.0183 3.92001 83.9052 3.75249 83.7921C3.58496 83.6791 3.38394 83.5983 3.18291 83.5337C2.96513 83.4691 2.7306 83.4368 2.47932 83.4368C2.17778 83.4368 1.87624 83.5014 1.5747 83.6145C1.27317 83.7275 1.00513 83.9052 0.787352 84.1313C0.552822 84.3575 0.368548 84.6159 0.217778 84.9389C0.0670089 85.262 0 85.6173 0 86.0049V86.0211C0 86.4249 0.0670089 86.7802 0.217778 87.0871C0.368548 87.4101 0.552822 87.6686 0.787352 87.8947C1.02188 88.1208 1.28992 88.2823 1.5747 88.3954C1.85949 88.5085 2.17778 88.5731 2.47932 88.5731C2.74736 88.5731 2.98189 88.5408 3.18291 88.46ZM1.77573 87.9593C1.52445 87.8624 1.32342 87.717 1.13915 87.5393C0.954874 87.3617 0.804104 87.1356 0.703591 86.8771C0.603078 86.6187 0.53607 86.328 0.53607 86.0049V85.9888C0.53607 85.6657 0.586326 85.375 0.686839 85.1004C0.787352 84.842 0.938122 84.6159 1.10564 84.4382C1.28992 84.2605 1.49094 84.1152 1.74223 84.0183C1.99351 83.9214 2.24479 83.8729 2.52958 83.8729C2.79761 83.8729 3.0489 83.9214 3.30018 84.0344C3.55146 84.1313 3.76924 84.2767 3.97026 84.4705C4.17129 84.6482 4.32206 84.8743 4.43933 85.1327C4.55659 85.3912 4.60685 85.6819 4.60685 85.9888V86.0049C4.60685 86.3118 4.55659 86.6025 4.43933 86.861C4.32206 87.1194 4.17129 87.3455 3.97026 87.5232C3.76924 87.717 3.55146 87.8462 3.30018 87.9593C3.0489 88.0562 2.79761 88.1208 2.52958 88.1208C2.2783 88.1208 2.01026 88.0724 1.77573 87.9593Z" fill="#ABABAB"/>
</svg>
