<svg width="371" height="372" viewBox="0 0 371 372" fill="none" xmlns="http://www.w3.org/2000/svg">
<path d="M225.699 243.288C221.402 247.701 217.888 251.517 214.155 255.101C187.386 280.818 155.617 295.887 118.545 299.162C83.3922 302.278 50.8032 294.183 20.6683 275.927C14.9727 272.469 9.59964 268.554 4.31758 264.525C-0.289943 261.011 -1.31031 254.543 1.77115 249.859C5.72891 243.858 13.1466 241.593 18.8735 245.081C23.8133 248.088 28.2811 251.911 33.2612 254.855C78.7961 281.763 124.772 282.983 171.115 256.862C171.921 256.41 172.663 255.814 174.292 254.704C170.557 255 167.829 255.344 165.097 255.401C131.218 256.209 99.7669 247.924 71.6855 228.809C31.3515 201.35 8.91863 162.714 2.36542 114.622C1.41001 107.629 4.8681 102.683 11.2611 101.386C17.7258 100.078 24.4828 103.779 26.0961 110.034C27.5042 115.522 28.0932 121.226 29.3684 126.766C34.9299 151.142 46.3148 172.327 63.6386 190.496C81.0663 208.766 102.365 219.877 126.417 226.369C126.85 226.486 127.325 226.727 127.841 226.073C124.166 221.663 119.427 218.305 115.478 214.094C93.0654 190.178 78.8582 162.209 73.9508 129.813C67.6863 88.7948 76.5955 50.9557 99.3538 16.3439C101.539 13.0175 104.025 9.88223 106.365 6.64619C110.481 0.941761 116.531 -0.607333 121.835 2.69188C127.946 6.49402 130.287 14.2291 126.646 20.0505C122.491 26.7108 117.373 32.7367 113.664 39.7096C90.2399 83.7502 90.0398 127.638 114.522 171.352C115.101 172.382 115.782 173.369 116.474 174.47C117.487 173.367 116.949 172.275 116.864 171.301C114.544 141.161 121.104 112.855 134.834 86.1184C141.674 72.7864 150.555 60.8142 161.068 50.2072C180.592 30.513 203.738 16.6364 230.415 8.79449C238.673 6.37383 247.083 4.62913 255.615 3.48891C263.87 2.38318 269.378 5.63859 270.577 12.4026C271.898 19.8534 267.22 26.5514 259.202 27.7259C246.561 29.5882 234.209 32.3816 222.484 37.4882C186.797 53.0203 161.887 78.744 149.073 115.741C147.619 119.941 146.402 124.231 144.904 129.038C146.98 128.363 147.692 127.049 148.604 126.051C174.351 97.6552 206.014 80.0089 244.023 74.6056C284.309 68.8846 321.421 77.9777 355.358 100.241C358.684 102.426 361.81 104.922 365.066 107.242C370.946 111.448 372.539 117.683 369.075 122.967C365.047 129.102 357.566 131.225 351.662 127.564C346.742 124.516 342.284 120.682 337.294 117.769C291.824 91.087 245.941 89.9173 199.741 115.974C199.007 116.395 198.325 116.887 197.633 117.368C197.562 117.421 197.574 117.595 197.478 118.069C200.29 117.847 203.028 117.513 205.759 117.435C239.895 116.655 271.533 125.06 299.762 144.441C339.767 171.904 361.972 210.399 368.491 258.214C369.446 265.207 366.009 270.153 359.606 271.46C353.141 272.768 346.374 269.057 344.781 262.802C343.296 256.956 342.6 250.904 341.228 245.026C335.673 221.164 324.387 200.46 307.489 182.624C290.028 164.2 268.646 153.009 244.461 146.488C244.028 146.37 243.552 146.13 243.037 146.804C246.918 151.355 251.844 154.855 255.93 159.279C280.631 186.113 295.16 217.437 298.22 253.854C301.45 292.262 291.465 327.187 269.912 358.958C268.209 361.457 266.267 363.783 264.492 366.231C260.396 371.894 254.305 373.464 249.001 370.165C242.89 366.363 240.549 358.628 244.19 352.807C248.345 346.146 253.473 340.13 257.182 333.158C280.806 288.703 280.818 244.51 255.757 200.578C255.399 199.945 254.981 199.355 254.582 198.744C254.519 198.663 254.385 198.634 254.21 198.543C253.349 199.469 253.887 200.561 253.962 201.546C256.3 231.563 249.75 259.755 236.173 286.418C229.384 299.76 220.524 311.773 210.022 322.39C190.427 342.198 167.211 356.188 140.421 364.063C131.928 366.558 123.282 368.337 114.492 369.429C106.831 370.383 101.435 367.034 100.269 360.465C99.0051 353.414 103.343 346.628 110.579 345.361C120.725 343.583 130.894 341.969 140.585 338.369C184.725 322.005 213.071 291.172 225.34 245.676C225.458 245.223 225.493 244.75 225.699 243.309L225.699 243.288Z" fill="#202020"/>
</svg>
