<svg width="60" height="60" viewBox="0 0 60 60" fill="none" xmlns="http://www.w3.org/2000/svg">
<rect x="1" y="1" width="58" height="58" rx="29" stroke="#FAFAFA" stroke-opacity="0.3" stroke-width="2"/>
<path d="M16 30C16 27.4613 16.6254 25.1187 17.876 22.972C19.1267 20.8253 20.8254 19.1267 22.972 17.876C25.1187 16.6253 27.4614 16 30 16C32.5387 16 34.8814 16.6253 37.028 17.876C39.1747 19.1267 40.8734 20.8253 42.124 22.972C43.3747 25.1187 44 27.4613 44 30C44 32.5387 43.3747 34.8813 42.124 37.028C40.8734 39.1747 39.1747 40.8733 37.028 42.124C34.8814 43.3747 32.5387 44 30 44C27.4614 44 25.1187 43.3747 22.972 42.124C20.8254 40.8733 19.1267 39.1747 17.876 37.028C16.6254 34.8813 16 32.5387 16 30ZM18.324 30C18.324 32.912 19.304 35.4787 21.264 37.7C22.16 35.9453 23.5787 34.2747 25.52 32.688C27.4614 31.1013 29.356 30.1027 31.204 29.692C30.924 29.0387 30.6534 28.4507 30.392 27.928C27.1814 28.9547 23.7094 29.468 19.976 29.468C19.248 29.468 18.7067 29.4587 18.352 29.44C18.352 29.5147 18.3474 29.608 18.338 29.72C18.3287 29.832 18.324 29.9253 18.324 30ZM18.688 27.116C19.0987 27.1533 19.7054 27.172 20.508 27.172C23.6254 27.172 26.584 26.752 29.384 25.912C27.9654 23.392 26.4067 21.292 24.708 19.612C23.2334 20.3587 21.9687 21.3947 20.914 22.72C19.8594 24.0453 19.1174 25.5107 18.688 27.116ZM22.86 39.212C24.9694 40.8547 27.3494 41.676 30 41.676C31.3814 41.676 32.7534 41.4147 34.116 40.892C33.7427 37.7 33.0147 34.6107 31.932 31.624C30.2147 31.9973 28.4834 32.94 26.738 34.452C24.9927 35.964 23.7 37.5507 22.86 39.212ZM27.144 18.716C28.7867 20.4147 30.308 22.5333 31.708 25.072C34.2467 24.008 36.16 22.6547 37.448 21.012C35.2827 19.22 32.8 18.324 30 18.324C29.048 18.324 28.096 18.4547 27.144 18.716ZM32.716 27.06C32.996 27.6573 33.3134 28.4133 33.668 29.328C35.0494 29.1973 36.552 29.132 38.176 29.132C39.3334 29.132 40.4814 29.16 41.62 29.216C41.4707 26.6773 40.556 24.4187 38.876 22.44C37.6627 24.2507 35.6094 25.7907 32.716 27.06ZM34.368 31.288C35.32 34.0507 35.964 36.888 36.3 39.8C37.7747 38.848 38.9787 37.6253 39.912 36.132C40.8454 34.6387 41.4054 33.024 41.592 31.288C40.2294 31.1947 38.988 31.148 37.868 31.148C36.8414 31.148 35.6747 31.1947 34.368 31.288Z" fill="#FAFAFA"/>
</svg>
