<svg width="55" height="55" viewBox="0 0 55 55" fill="none" xmlns="http://www.w3.org/2000/svg">
<g clip-path="url(#clip0_72_54)">
<mask id="path-1-inside-1_72_54" fill="white">
<path d="M11.1276 54.4356C10.5371 54.2737 9.93031 54.3639 9.33616 54.3657C8.36031 54.3694 7.42587 54.2038 6.51843 53.8635C5.2059 53.3723 3.97438 52.7081 2.97512 51.7018C1.84803 50.5667 1.00722 49.2108 0.438272 47.6985C0.151998 46.9406 0.0133628 46.1219 0.0133628 45.3179C-0.00464182 33.8583 0.00075957 22.3986 0.00075957 10.939C0.00075957 9.03489 0.108787 7.16573 1.05583 5.43455C2.60423 2.59953 4.85661 0.807639 8.02542 0.272279C9.55041 0.0147178 11.0844 0.13062 12.6148 0.106704C13.4304 0.093826 14.2442 0.106704 15.0598 0.106704C15.0526 0.121422 15.04 0.137979 15.04 0.152697C15.04 0.169255 15.0508 0.185812 15.0562 0.20237C15.0562 0.171094 15.0544 0.137979 15.0526 0.106704C19.0028 0.106704 22.9513 0.106704 26.9015 0.0993451C27.1013 0.0993451 27.3282 0.193171 27.5028 0L27.492 0.0478328L27.5082 0.00367945C27.6811 0.191331 27.9061 0.0975054 28.1042 0.101185C28.8748 0.114063 29.6472 0.110383 30.4178 0.101185C30.5834 0.101185 30.7725 0.174774 30.9075 0L30.8967 0.0478328L30.9129 0.00367945C31.0857 0.191331 31.3108 0.0975054 31.5089 0.101185C32.2795 0.114063 33.0519 0.110383 33.8224 0.101185C33.9881 0.101185 34.1771 0.174774 34.3122 0L34.3014 0.0478328L34.3176 0.00367945C34.4904 0.191331 34.7155 0.0975054 34.9135 0.101185C35.6841 0.114063 36.4565 0.110383 37.2271 0.101185C37.3928 0.101185 37.5818 0.174774 37.7168 0L37.706 0.0478328L37.7222 0.00367945C37.8951 0.191331 38.1202 0.0975054 38.3182 0.101185C39.0888 0.114063 39.8612 0.110383 40.6318 0.101185C40.7974 0.101185 40.9865 0.174774 41.1215 0L41.1107 0.0478328L41.1269 0.00367945C41.2998 0.191331 41.5248 0.0975054 41.7229 0.101185C42.4935 0.114063 43.2659 0.110383 44.0365 0.101185C44.2021 0.101185 44.3912 0.174774 44.5262 0L44.5154 0.0459931L44.5316 0.00183972C45.0969 0.314593 45.7289 0.147178 46.3267 0.257561C48.0767 0.579513 49.6305 1.27861 51.0043 2.43212C52.5167 3.69969 53.4943 5.31496 54.0614 7.20252C54.2451 7.80963 54.3369 8.43698 54.3801 9.08272C54.5908 12.1183 54.4557 15.1557 54.4647 18.1912C54.49 26.8305 54.4738 35.4699 54.4738 44.1092C54.4738 46.499 53.8418 48.6791 52.4122 50.5924C51.2941 52.0881 49.8052 53.0429 48.1325 53.7825C47.0901 54.2424 46.0116 54.27 44.9259 54.3657C44.7873 54.3786 44.6396 54.3363 44.5172 54.4375C44.51 54.408 44.5064 54.3602 44.4956 54.3583C44.438 54.3473 44.3984 54.3657 44.4272 54.4393C43.6008 54.3363 42.7743 54.3105 41.9497 54.4522C41.9785 54.3859 41.9407 54.3565 41.8885 54.3528C41.8273 54.3491 41.7481 54.3418 41.7787 54.4522C41.5572 54.3307 41.3358 54.3381 41.1107 54.4393C41.1035 54.4099 41.1017 54.362 41.0891 54.3583C41.0315 54.3473 40.9919 54.3657 41.0207 54.4393C40.1943 54.3363 39.3679 54.3105 38.5433 54.4522C38.5721 54.3859 38.5343 54.3565 38.482 54.3528C38.4208 54.3491 38.3416 54.3418 38.3722 54.4522C38.1508 54.3307 37.9293 54.3381 37.7042 54.4393C37.697 54.4099 37.6952 54.362 37.6826 54.3583C37.625 54.3473 37.5854 54.3657 37.6142 54.4393C36.7878 54.3363 35.9614 54.3105 35.1368 54.4522C35.1656 54.3859 35.1278 54.3565 35.0756 54.3528C35.0144 54.3491 34.9351 54.3418 34.9657 54.4522C34.7443 54.3307 34.5228 54.3381 34.2978 54.4393C34.2906 54.4099 34.2888 54.362 34.2762 54.3583C34.2185 54.3473 34.1789 54.3657 34.2077 54.4393C33.3813 54.3363 32.5549 54.3105 31.7303 54.4522C31.7591 54.3859 31.7213 54.3565 31.6691 54.3528C31.6079 54.3491 31.5287 54.3418 31.5593 54.4522C31.3378 54.3307 31.1164 54.3381 30.8913 54.4393C30.8841 54.4099 30.8823 54.362 30.8697 54.3583C30.8121 54.3473 30.7725 54.3657 30.8013 54.4393C29.9443 54.3289 29.0872 54.3252 28.2302 54.4393C28.223 54.4099 28.2194 54.3602 28.2086 54.3583C28.151 54.3473 28.1114 54.3675 28.1402 54.4393C27.0347 54.3252 25.9292 54.3234 24.8255 54.4393C24.8183 54.4099 24.8147 54.3602 24.8039 54.3583C24.7463 54.3473 24.7067 54.3675 24.7355 54.4393C23.63 54.3252 22.5245 54.3234 21.4209 54.4393C21.4137 54.4099 21.4101 54.3602 21.3993 54.3583C21.3416 54.3473 21.302 54.3675 21.3308 54.4393C20.2254 54.3252 19.1199 54.3234 18.0162 54.4393C18.009 54.4099 18.0054 54.3602 17.9946 54.3583C17.937 54.3473 17.8974 54.3675 17.9262 54.4393C16.8207 54.3252 15.7152 54.3234 14.6115 54.4393C14.6043 54.4099 14.6007 54.3602 14.5899 54.3583C14.5323 54.3473 14.4927 54.3675 14.5215 54.4393C13.416 54.3252 12.3105 54.3234 11.2068 54.4393C11.1996 54.4099 11.196 54.3602 11.1852 54.3583C11.1276 54.3473 11.088 54.3675 11.1168 54.4393L11.1276 54.4356ZM22.1428 13.9856C21.257 13.9856 20.3694 14.004 19.4854 13.9782C19.0623 13.9653 18.9344 14.1236 18.9308 14.543C18.9272 14.968 18.893 15.4151 18.7616 15.8143C18.0054 18.1452 17.224 20.4669 16.4372 22.7887C15.8682 24.4665 15.2615 26.1315 14.6979 27.813C13.9669 29.9949 13.2594 32.1841 12.4798 34.3495C12.0711 35.4828 11.7038 36.6308 11.3311 37.7769C11.151 38.3307 11.232 38.4318 11.81 38.4337C13.0505 38.4355 14.291 38.4116 15.5316 38.4466C15.9763 38.4594 16.1581 38.2773 16.2787 37.8854C16.7685 36.2959 17.2798 34.7119 17.7641 33.1206C17.8649 32.7894 17.9892 32.6496 18.3691 32.6533C20.7799 32.6772 23.1907 32.6901 25.5997 32.6478C26.1903 32.6386 26.4351 32.8225 26.6134 33.3892C27.0977 34.9272 27.6631 36.4394 28.1744 37.9701C28.2734 38.2681 28.4031 38.4374 28.7235 38.4355C30.2305 38.43 31.7357 38.4318 33.2427 38.4337C33.5488 38.4337 33.6748 38.3104 33.5632 37.9958C33.2859 37.2084 33.0104 36.4192 32.7332 35.6318C32.1876 34.0883 31.6349 32.5484 31.0965 31.0012C30.5546 29.4466 30.0343 27.8847 29.4923 26.3283C28.8172 24.3892 28.0916 22.4667 27.4632 20.5111C26.8024 18.4561 26.0048 16.4527 25.3675 14.3922C25.2666 14.0647 25.1046 13.9745 24.7967 13.9801C23.9109 13.9948 23.0251 13.9856 22.1374 13.9856H22.1428ZM41.0765 29.2479C41.0765 26.3688 41.0765 23.4896 41.0765 20.6104C41.0765 19.9316 41.0657 19.9205 40.3815 19.9205C39.123 19.9205 37.8645 19.9426 36.606 19.9095C36.1 19.8966 35.974 20.0861 35.9776 20.5718C35.9974 22.8347 35.9866 25.0994 35.9866 27.3622C35.9866 30.8209 35.992 34.2796 35.9812 37.7383C35.9812 38.2368 36.0712 38.4889 36.6546 38.465C37.9113 38.4153 39.1716 38.4263 40.4283 38.4613C40.9505 38.476 41.0891 38.2902 41.0855 37.7769C41.0657 34.9345 41.0765 32.0903 41.0765 29.2479ZM35.7489 15.0434C35.5977 16.7801 37.1911 18.0293 38.5415 18.0017C40.2069 17.9686 41.3952 16.7433 41.3934 14.9993C41.3898 13.1191 40.3527 12.2673 38.1832 12.2158C37.1299 12.19 35.5743 13.5073 35.7489 15.0434Z"/>
</mask>
<path d="M11.1276 54.4356C10.5371 54.2737 9.93031 54.3639 9.33616 54.3657C8.36031 54.3694 7.42587 54.2038 6.51843 53.8635C5.2059 53.3723 3.97438 52.7081 2.97512 51.7018C1.84803 50.5667 1.00722 49.2108 0.438272 47.6985C0.151998 46.9406 0.0133628 46.1219 0.0133628 45.3179C-0.00464182 33.8583 0.00075957 22.3986 0.00075957 10.939C0.00075957 9.03489 0.108787 7.16573 1.05583 5.43455C2.60423 2.59953 4.85661 0.807639 8.02542 0.272279C9.55041 0.0147178 11.0844 0.13062 12.6148 0.106704C13.4304 0.093826 14.2442 0.106704 15.0598 0.106704C15.0526 0.121422 15.04 0.137979 15.04 0.152697C15.04 0.169255 15.0508 0.185812 15.0562 0.20237C15.0562 0.171094 15.0544 0.137979 15.0526 0.106704C19.0028 0.106704 22.9513 0.106704 26.9015 0.0993451C27.1013 0.0993451 27.3282 0.193171 27.5028 0L27.492 0.0478328L27.5082 0.00367945C27.6811 0.191331 27.9061 0.0975054 28.1042 0.101185C28.8748 0.114063 29.6472 0.110383 30.4178 0.101185C30.5834 0.101185 30.7725 0.174774 30.9075 0L30.8967 0.0478328L30.9129 0.00367945C31.0857 0.191331 31.3108 0.0975054 31.5089 0.101185C32.2795 0.114063 33.0519 0.110383 33.8224 0.101185C33.9881 0.101185 34.1771 0.174774 34.3122 0L34.3014 0.0478328L34.3176 0.00367945C34.4904 0.191331 34.7155 0.0975054 34.9135 0.101185C35.6841 0.114063 36.4565 0.110383 37.2271 0.101185C37.3928 0.101185 37.5818 0.174774 37.7168 0L37.706 0.0478328L37.7222 0.00367945C37.8951 0.191331 38.1202 0.0975054 38.3182 0.101185C39.0888 0.114063 39.8612 0.110383 40.6318 0.101185C40.7974 0.101185 40.9865 0.174774 41.1215 0L41.1107 0.0478328L41.1269 0.00367945C41.2998 0.191331 41.5248 0.0975054 41.7229 0.101185C42.4935 0.114063 43.2659 0.110383 44.0365 0.101185C44.2021 0.101185 44.3912 0.174774 44.5262 0L44.5154 0.0459931L44.5316 0.00183972C45.0969 0.314593 45.7289 0.147178 46.3267 0.257561C48.0767 0.579513 49.6305 1.27861 51.0043 2.43212C52.5167 3.69969 53.4943 5.31496 54.0614 7.20252C54.2451 7.80963 54.3369 8.43698 54.3801 9.08272C54.5908 12.1183 54.4557 15.1557 54.4647 18.1912C54.49 26.8305 54.4738 35.4699 54.4738 44.1092C54.4738 46.499 53.8418 48.6791 52.4122 50.5924C51.2941 52.0881 49.8052 53.0429 48.1325 53.7825C47.0901 54.2424 46.0116 54.27 44.9259 54.3657C44.7873 54.3786 44.6396 54.3363 44.5172 54.4375C44.51 54.408 44.5064 54.3602 44.4956 54.3583C44.438 54.3473 44.3984 54.3657 44.4272 54.4393C43.6008 54.3363 42.7743 54.3105 41.9497 54.4522C41.9785 54.3859 41.9407 54.3565 41.8885 54.3528C41.8273 54.3491 41.7481 54.3418 41.7787 54.4522C41.5572 54.3307 41.3358 54.3381 41.1107 54.4393C41.1035 54.4099 41.1017 54.362 41.0891 54.3583C41.0315 54.3473 40.9919 54.3657 41.0207 54.4393C40.1943 54.3363 39.3679 54.3105 38.5433 54.4522C38.5721 54.3859 38.5343 54.3565 38.482 54.3528C38.4208 54.3491 38.3416 54.3418 38.3722 54.4522C38.1508 54.3307 37.9293 54.3381 37.7042 54.4393C37.697 54.4099 37.6952 54.362 37.6826 54.3583C37.625 54.3473 37.5854 54.3657 37.6142 54.4393C36.7878 54.3363 35.9614 54.3105 35.1368 54.4522C35.1656 54.3859 35.1278 54.3565 35.0756 54.3528C35.0144 54.3491 34.9351 54.3418 34.9657 54.4522C34.7443 54.3307 34.5228 54.3381 34.2978 54.4393C34.2906 54.4099 34.2888 54.362 34.2762 54.3583C34.2185 54.3473 34.1789 54.3657 34.2077 54.4393C33.3813 54.3363 32.5549 54.3105 31.7303 54.4522C31.7591 54.3859 31.7213 54.3565 31.6691 54.3528C31.6079 54.3491 31.5287 54.3418 31.5593 54.4522C31.3378 54.3307 31.1164 54.3381 30.8913 54.4393C30.8841 54.4099 30.8823 54.362 30.8697 54.3583C30.8121 54.3473 30.7725 54.3657 30.8013 54.4393C29.9443 54.3289 29.0872 54.3252 28.2302 54.4393C28.223 54.4099 28.2194 54.3602 28.2086 54.3583C28.151 54.3473 28.1114 54.3675 28.1402 54.4393C27.0347 54.3252 25.9292 54.3234 24.8255 54.4393C24.8183 54.4099 24.8147 54.3602 24.8039 54.3583C24.7463 54.3473 24.7067 54.3675 24.7355 54.4393C23.63 54.3252 22.5245 54.3234 21.4209 54.4393C21.4137 54.4099 21.4101 54.3602 21.3993 54.3583C21.3416 54.3473 21.302 54.3675 21.3308 54.4393C20.2254 54.3252 19.1199 54.3234 18.0162 54.4393C18.009 54.4099 18.0054 54.3602 17.9946 54.3583C17.937 54.3473 17.8974 54.3675 17.9262 54.4393C16.8207 54.3252 15.7152 54.3234 14.6115 54.4393C14.6043 54.4099 14.6007 54.3602 14.5899 54.3583C14.5323 54.3473 14.4927 54.3675 14.5215 54.4393C13.416 54.3252 12.3105 54.3234 11.2068 54.4393C11.1996 54.4099 11.196 54.3602 11.1852 54.3583C11.1276 54.3473 11.088 54.3675 11.1168 54.4393L11.1276 54.4356ZM22.1428 13.9856C21.257 13.9856 20.3694 14.004 19.4854 13.9782C19.0623 13.9653 18.9344 14.1236 18.9308 14.543C18.9272 14.968 18.893 15.4151 18.7616 15.8143C18.0054 18.1452 17.224 20.4669 16.4372 22.7887C15.8682 24.4665 15.2615 26.1315 14.6979 27.813C13.9669 29.9949 13.2594 32.1841 12.4798 34.3495C12.0711 35.4828 11.7038 36.6308 11.3311 37.7769C11.151 38.3307 11.232 38.4318 11.81 38.4337C13.0505 38.4355 14.291 38.4116 15.5316 38.4466C15.9763 38.4594 16.1581 38.2773 16.2787 37.8854C16.7685 36.2959 17.2798 34.7119 17.7641 33.1206C17.8649 32.7894 17.9892 32.6496 18.3691 32.6533C20.7799 32.6772 23.1907 32.6901 25.5997 32.6478C26.1903 32.6386 26.4351 32.8225 26.6134 33.3892C27.0977 34.9272 27.6631 36.4394 28.1744 37.9701C28.2734 38.2681 28.4031 38.4374 28.7235 38.4355C30.2305 38.43 31.7357 38.4318 33.2427 38.4337C33.5488 38.4337 33.6748 38.3104 33.5632 37.9958C33.2859 37.2084 33.0104 36.4192 32.7332 35.6318C32.1876 34.0883 31.6349 32.5484 31.0965 31.0012C30.5546 29.4466 30.0343 27.8847 29.4923 26.3283C28.8172 24.3892 28.0916 22.4667 27.4632 20.5111C26.8024 18.4561 26.0048 16.4527 25.3675 14.3922C25.2666 14.0647 25.1046 13.9745 24.7967 13.9801C23.9109 13.9948 23.0251 13.9856 22.1374 13.9856H22.1428ZM41.0765 29.2479C41.0765 26.3688 41.0765 23.4896 41.0765 20.6104C41.0765 19.9316 41.0657 19.9205 40.3815 19.9205C39.123 19.9205 37.8645 19.9426 36.606 19.9095C36.1 19.8966 35.974 20.0861 35.9776 20.5718C35.9974 22.8347 35.9866 25.0994 35.9866 27.3622C35.9866 30.8209 35.992 34.2796 35.9812 37.7383C35.9812 38.2368 36.0712 38.4889 36.6546 38.465C37.9113 38.4153 39.1716 38.4263 40.4283 38.4613C40.9505 38.476 41.0891 38.2902 41.0855 37.7769C41.0657 34.9345 41.0765 32.0903 41.0765 29.2479ZM35.7489 15.0434C35.5977 16.7801 37.1911 18.0293 38.5415 18.0017C40.2069 17.9686 41.3952 16.7433 41.3934 14.9993C41.3898 13.1191 40.3527 12.2673 38.1832 12.2158C37.1299 12.19 35.5743 13.5073 35.7489 15.0434Z" fill="#390000" stroke="#FF9A00" stroke-opacity="0.2" mask="url(#path-1-inside-1_72_54)"/>
<path d="M31.5673 54.4478C31.5367 54.3393 31.616 54.3466 31.6772 54.3485C31.7294 54.3503 31.7672 54.3816 31.7384 54.4478C31.6808 54.5177 31.6232 54.5196 31.5673 54.4478Z" fill="#FF9A00"/>
<path d="M34.9726 54.4478C34.942 54.3393 35.0212 54.3466 35.0824 54.3485C35.1347 54.3503 35.1725 54.3816 35.1437 54.4478C35.086 54.5177 35.0284 54.5196 34.9726 54.4478Z" fill="#FF9A00"/>
<path d="M38.3769 54.4478C38.3463 54.3393 38.4255 54.3466 38.4867 54.3485C38.539 54.3503 38.5768 54.3816 38.548 54.4478C38.4903 54.5177 38.4327 54.5196 38.3769 54.4478Z" fill="#FF9A00"/>
<path d="M41.7812 54.4478C41.7506 54.3393 41.8298 54.3466 41.891 54.3485C41.9432 54.3503 41.9811 54.3816 41.9523 54.4478C41.8946 54.5177 41.837 54.5196 41.7812 54.4478Z" fill="#FF9A00"/>
<path d="M11.1271 54.4373C11.0981 54.3655 11.1362 54.3453 11.1962 54.3563C11.2071 54.3582 11.2107 54.4078 11.218 54.4373C11.1871 54.5127 11.1562 54.5109 11.1271 54.4373Z" fill="#FF9A00"/>
<path d="M14.5314 54.4373C14.5024 54.3655 14.5405 54.3453 14.6005 54.3563C14.6114 54.3582 14.615 54.4078 14.6223 54.4373C14.5914 54.5127 14.5605 54.5109 14.5314 54.4373Z" fill="#FF9A00"/>
<path d="M17.9367 54.4373C17.9076 54.3655 17.9458 54.3453 18.0057 54.3563C18.0167 54.3582 18.0203 54.4078 18.0276 54.4373C17.9967 54.5127 17.9658 54.5109 17.9367 54.4373Z" fill="#FF9A00"/>
<path d="M21.341 54.4373C21.3119 54.3655 21.3501 54.3453 21.41 54.3563C21.4209 54.3582 21.4246 54.4078 21.4319 54.4373C21.401 54.5127 21.3701 54.5109 21.341 54.4373Z" fill="#FF9A00"/>
<path d="M24.7453 54.4373C24.7162 54.3655 24.7544 54.3453 24.8143 54.3563C24.8252 54.3582 24.8289 54.4078 24.8361 54.4373C24.8053 54.5127 24.7744 54.5109 24.7453 54.4373Z" fill="#FF9A00"/>
<path d="M28.1506 54.4373C28.1215 54.3655 28.1597 54.3453 28.2196 54.3563C28.2305 54.3582 28.2342 54.4078 28.2414 54.4373C28.2105 54.5127 28.1796 54.5109 28.1506 54.4373Z" fill="#FF9A00"/>
<path d="M30.8105 54.4367C30.7814 54.3649 30.8214 54.3465 30.8795 54.3557C30.8905 54.3575 30.8941 54.4072 30.9014 54.4367C30.8705 54.5121 30.8396 54.5121 30.8105 54.4367Z" fill="#FF9A00"/>
<path d="M34.2138 54.4367C34.1848 54.3649 34.2247 54.3465 34.2829 54.3557C34.2938 54.3575 34.2974 54.4072 34.3047 54.4367C34.2738 54.5121 34.2429 54.5121 34.2138 54.4367Z" fill="#FF9A00"/>
<path d="M37.6191 54.4367C37.59 54.3649 37.63 54.3465 37.6881 54.3557C37.699 54.3575 37.7027 54.4072 37.7099 54.4367C37.6791 54.5121 37.6482 54.5121 37.6191 54.4367Z" fill="#FF9A00"/>
<path d="M41.0234 54.4367C40.9943 54.3649 41.0343 54.3465 41.0924 54.3557C41.1033 54.3575 41.107 54.4072 41.1142 54.4367C41.0834 54.5121 41.0525 54.5121 41.0234 54.4367Z" fill="#FF9A00"/>
<path d="M44.4287 54.4367C44.3996 54.3649 44.4396 54.3465 44.4977 54.3557C44.5086 54.3575 44.5122 54.4072 44.5195 54.4348C44.4886 54.5121 44.4577 54.5102 44.4287 54.4348V54.4367Z" fill="#FF9A00"/>
<path d="M15.0528 0.109375C15.0528 0.140363 15.0546 0.173175 15.0564 0.204163C15.0509 0.187757 15.04 0.171352 15.04 0.154946C15.04 0.138541 15.0528 0.123958 15.06 0.109375H15.0528Z" fill="#FF9A00"/>
<path d="M27.5054 0.00177728L27.4912 0.0462092L27.5001 0L27.5054 0.00177728Z" fill="#FF9A00"/>
<path d="M30.9107 0.00177728L30.8965 0.0462092L30.9053 0L30.9107 0.00177728Z" fill="#FF9A00"/>
<path d="M34.3148 0.00177728L34.2988 0.0462092L34.3095 0L34.3148 0.00177728Z" fill="#FF9A00"/>
<path d="M37.7191 0.00177728L37.7031 0.0462092L37.7138 0L37.7191 0.00177728Z" fill="#FF9A00"/>
<path d="M41.1244 0.00177728L41.1084 0.0462092L41.119 0L41.1244 0.00177728Z" fill="#FF9A00"/>
<path d="M44.5287 0.00177728L44.5127 0.0462092L44.5233 0L44.5287 0.00177728Z" fill="#FF9A00"/>
<path d="M22.1435 13.9866C23.0294 13.9866 23.9152 13.9958 24.8028 13.9811C25.1107 13.9756 25.2727 14.0675 25.3736 14.3932C26.0109 16.4537 26.8085 18.459 27.4693 20.5121C28.0977 22.4677 28.8232 24.3902 29.4984 26.3293C30.0386 27.8839 30.5607 29.4458 31.1026 31.0022C31.641 32.5476 32.1937 34.0893 32.7392 35.6328C33.0165 36.4202 33.292 37.2094 33.5693 37.9968C33.6809 38.3114 33.5531 38.4347 33.2488 38.4347C31.7418 38.4329 30.2366 38.431 28.7296 38.4365C28.4073 38.4365 28.2795 38.2691 28.1805 37.9711C27.6691 36.4404 27.1038 34.9282 26.6195 33.3902C26.4412 32.8235 26.1964 32.6396 25.6058 32.6488C23.1968 32.6892 20.786 32.6782 18.3752 32.6543C17.9953 32.6506 17.871 32.7923 17.7702 33.1216C17.2841 34.7129 16.7745 36.2969 16.2848 37.8865C16.1642 38.2765 15.9823 38.4605 15.5376 38.4476C14.2971 38.4108 13.0566 38.4365 11.8161 38.4347C11.2381 38.4347 11.1571 38.3317 11.3371 37.7779C11.7098 36.6318 12.0789 35.4838 12.4858 34.3505C13.2654 32.1852 13.9712 29.9959 14.704 27.814C15.2676 26.1343 15.8725 24.4693 16.4433 22.7897C17.2301 20.4698 18.0115 18.1462 18.7677 15.8153C18.8973 15.4142 18.9333 14.969 18.9369 14.544C18.9405 14.1246 19.0665 13.9664 19.4914 13.9792C20.3773 14.005 21.2631 13.9866 22.1489 13.9866H22.1435ZM25.0045 27.9648C24.0502 24.7821 23.1158 21.6638 22.1705 18.5105C21.9851 18.6761 21.9491 18.8232 21.9041 18.9814C21.3099 21.0033 20.7104 23.0233 20.1072 25.0433C19.8677 25.8436 19.6103 26.6384 19.3798 27.4423C19.2898 27.7569 19.2574 28.02 19.7615 27.9795C20.4493 27.9262 21.1443 27.9667 21.8356 27.9667C22.8763 27.9667 23.9152 27.9667 25.0063 27.9667L25.0045 27.9648Z" fill="#FF9A00"/>
<path d="M41.0746 29.2492C41.0746 32.0916 41.0638 34.9358 41.0836 37.7782C41.0872 38.2915 40.9485 38.4773 40.4264 38.4625C39.1697 38.4276 37.9094 38.4166 36.6526 38.4662C36.0693 38.4883 35.9775 38.2381 35.9793 37.7395C35.9901 34.2809 35.9847 30.8222 35.9847 27.3635C35.9847 25.1006 35.9955 22.8359 35.9757 20.5731C35.9721 20.0892 36.0981 19.8979 36.604 19.9108C37.8607 19.9439 39.1211 19.92 40.3796 19.9218C41.0638 19.9218 41.0746 19.9328 41.0746 20.6117C41.0746 23.4909 41.0746 26.37 41.0746 29.2492Z" fill="#FF9A00"/>
<path d="M35.7482 15.0448C35.5717 13.5087 37.1291 12.1914 38.1824 12.2172C40.3501 12.2687 41.389 13.1205 41.3926 15.0007C41.3962 16.7447 40.2061 17.97 38.5407 18.0031C37.1903 18.0307 35.5969 16.7797 35.7482 15.0448Z" fill="#FF9A00"/>
<path d="M25.0047 27.964C23.9137 27.964 22.8748 27.964 21.8341 27.964C21.1427 27.964 20.4478 27.9235 19.76 27.9769C19.2559 28.0173 19.2883 27.7543 19.3783 27.4397C19.6105 26.6376 19.868 25.841 20.1057 25.0407C20.7088 23.0207 21.3102 21.0006 21.9025 18.9788C21.9493 18.8224 21.9836 18.6734 22.169 18.5078C23.1142 21.6629 24.0487 24.7794 25.0029 27.9622L25.0047 27.964Z" fill="#390000"/>
</g>
<defs>
<clipPath id="clip0_72_54">
<rect width="54.5" height="54.5" fill="white"/>
</clipPath>
</defs>
</svg>
