<svg width="60" height="60" viewBox="0 0 60 60" fill="none" xmlns="http://www.w3.org/2000/svg">
<rect x="1" y="1" width="58" height="58" rx="29" stroke="#FAFAFA" stroke-opacity="0.3" stroke-width="2"/>
<path d="M25.3345 30C25.3345 27.4228 27.4232 25.333 30.0006 25.333C32.5779 25.333 34.6678 27.4228 34.6678 30C34.6678 32.5772 32.5779 34.667 30.0006 34.667C27.4232 34.667 25.3345 32.5772 25.3345 30ZM22.8114 30C22.8114 33.9704 26.03 37.1888 30.0006 37.1888C33.9711 37.1888 37.1897 33.9704 37.1897 30C37.1897 26.0296 33.9711 22.8112 30.0006 22.8112C26.03 22.8112 22.8114 26.0296 22.8114 30ZM35.7942 22.5261C35.7941 22.8584 35.8925 23.1833 36.077 23.4596C36.2615 23.7359 36.5238 23.9514 36.8307 24.0787C37.1377 24.2059 37.4755 24.2393 37.8014 24.1746C38.1273 24.11 38.4267 23.9501 38.6618 23.7152C38.8969 23.4804 39.057 23.1811 39.1219 22.8552C39.1869 22.5293 39.1538 22.1915 39.0267 21.8845C38.8997 21.5775 38.6844 21.315 38.4082 21.1303C38.132 20.9456 37.8072 20.8469 37.475 20.8468H37.4743C37.0289 20.847 36.6018 21.024 36.2868 21.3389C35.9718 21.6537 35.7946 22.0807 35.7942 22.5261ZM24.3443 41.3957C22.9793 41.3335 22.2374 41.1061 21.7444 40.9141C21.0907 40.6596 20.6243 40.3565 20.134 39.8669C19.6436 39.3772 19.3401 38.9113 19.0867 38.2576C18.8945 37.7648 18.6672 37.0227 18.6051 35.6578C18.5372 34.1821 18.5237 33.7388 18.5237 30.0001C18.5237 26.2614 18.5384 25.8194 18.6051 24.3424C18.6673 22.9775 18.8963 22.2368 19.0867 21.7426C19.3412 21.0889 19.6443 20.6226 20.134 20.1322C20.6237 19.6419 21.0896 19.3384 21.7444 19.085C22.2372 18.8928 22.9793 18.6655 24.3443 18.6034C25.8201 18.5356 26.2634 18.522 30.0006 18.522C33.7377 18.522 34.1815 18.5367 35.6585 18.6034C37.0235 18.6656 37.7642 18.8946 38.2584 19.085C38.9121 19.3384 39.3785 19.6426 39.8688 20.1322C40.3592 20.6219 40.6616 21.0889 40.9161 21.7426C41.1083 22.2354 41.3356 22.9775 41.3977 24.3424C41.4656 25.8194 41.4791 26.2614 41.4791 30.0001C41.4791 33.7388 41.4656 34.1808 41.3977 35.6578C41.3355 37.0227 41.107 37.7646 40.9161 38.2576C40.6616 38.9113 40.3585 39.3776 39.8688 39.8669C39.3791 40.3561 38.9121 40.6596 38.2584 40.9141C37.7656 41.1063 37.0235 41.3336 35.6585 41.3957C34.1827 41.4635 33.7394 41.4771 30.0006 41.4771C26.2617 41.4771 25.8197 41.4635 24.3443 41.3957ZM24.2284 16.0848C22.738 16.1527 21.7195 16.389 20.8301 16.7351C19.909 17.0924 19.1292 17.5719 18.35 18.3499C17.5708 19.1278 17.0925 19.9088 16.7351 20.8299C16.389 21.7198 16.1527 22.7377 16.0848 24.2281C16.0158 25.7208 16 26.198 16 30C16 33.802 16.0158 34.2792 16.0848 35.7719C16.1527 37.2624 16.389 38.2802 16.7351 39.1701C17.0925 40.0906 17.5709 40.8725 18.35 41.6501C19.1291 42.4277 19.909 42.9065 20.8301 43.2649C21.7212 43.611 22.738 43.8473 24.2284 43.9152C25.722 43.9831 26.1985 44 30.0006 44C33.8027 44 34.2799 43.9842 35.7727 43.9152C37.2633 43.8473 38.2811 43.611 39.171 43.2649C40.0916 42.9065 40.8719 42.4281 41.6512 41.6501C42.4304 40.8722 42.9076 40.0906 43.266 39.1701C43.6121 38.2802 43.8496 37.2623 43.9163 35.7719C43.9842 34.2781 44 33.802 44 30C44 26.198 43.9842 25.7208 43.9163 24.2281C43.8485 22.7376 43.6121 21.7193 43.266 20.8299C42.9076 19.9094 42.4291 19.1291 41.6512 18.3499C40.8732 17.5707 40.0916 17.0924 39.1722 16.7351C38.2811 16.389 37.2632 16.1515 35.7738 16.0848C34.281 16.0169 33.8038 16 30.0017 16C26.1996 16 25.722 16.0158 24.2284 16.0848Z" fill="#FAFAFA"/>
</svg>
