<svg width="62" height="62" viewBox="0 0 62 62" fill="none" xmlns="http://www.w3.org/2000/svg">
<rect x="1" y="1" width="60" height="60" rx="30" stroke="#FAFAFA" stroke-opacity="0.3" stroke-width="2"/>
<path d="M23.1967 26.6394H17.459V45H23.1967V26.6394ZM23.7131 20.3279C23.7161 19.8939 23.6336 19.4635 23.4703 19.0614C23.3071 18.6593 23.0661 18.2932 22.7614 17.9842C22.4566 17.6752 22.094 17.4292 21.6942 17.2603C21.2943 17.0915 20.8652 17.003 20.4312 17H20.3279C19.4453 17 18.5988 17.3506 17.9747 17.9747C17.3506 18.5988 17 19.4453 17 20.3279C17 21.2105 17.3506 22.0569 17.9747 22.681C18.5988 23.3051 19.4453 23.6558 20.3279 23.6558C20.7619 23.6664 21.1938 23.5915 21.5989 23.4352C22.0039 23.2789 22.3742 23.0443 22.6886 22.7449C23.003 22.4454 23.2553 22.0869 23.4311 21.6899C23.6069 21.2929 23.7027 20.8652 23.7131 20.4312V20.3279ZM45 33.846C45 28.3263 41.4885 26.1804 38.0001 26.1804C36.8579 26.1232 35.7205 26.3664 34.7016 26.8859C33.6829 27.4053 32.8179 28.1829 32.1935 29.141H32.0327V26.6394H26.6393V45H32.377V35.2344C32.2941 34.2344 32.6092 33.2418 33.2537 32.4726C33.8983 31.7034 34.8204 31.2196 35.8196 31.1263H36.0377C37.8623 31.1263 39.2164 32.2738 39.2164 35.1655V45H44.9542L45 33.846Z" stroke="#FAFAFA" stroke-width="1.5" stroke-linejoin="round"/>
</svg>
