<svg width="22" height="22" viewBox="0 0 22 22" fill="none" xmlns="http://www.w3.org/2000/svg">
<path d="M5.42623 7.88526H1.32788V21H5.42623V7.88526ZM5.79508 3.37705C5.79724 3.06705 5.73832 2.75966 5.62167 2.47241C5.50504 2.18518 5.33296 1.92373 5.11527 1.70301C4.89758 1.48227 4.63856 1.30657 4.35297 1.18596C4.06738 1.06534 3.76083 1.00215 3.45083 1H3.37704C2.74662 1 2.14201 1.25044 1.69622 1.69622C1.25044 2.14201 1 2.74663 1 3.37705C1 4.00749 1.25044 4.6121 1.69622 5.05789C2.14201 5.50367 2.74662 5.75411 3.37704 5.75411C3.68708 5.76173 3.99558 5.7082 4.2849 5.59656C4.57423 5.48493 4.83874 5.31737 5.06329 5.10347C5.28784 4.88958 5.46806 4.63352 5.59362 4.34995C5.71918 4.06639 5.78764 3.76086 5.79508 3.45083V3.37705ZM21 13.0328C21 9.09023 18.4918 7.5574 16.0001 7.5574C15.1842 7.51654 14.3718 7.6903 13.644 8.06138C12.9164 8.43238 12.2985 8.98781 11.8525 9.67213H11.7377V7.88526H7.88525V21H11.9836V14.0246C11.9244 13.3103 12.1494 12.6013 12.6098 12.0519C13.0702 11.5024 13.7289 11.1568 14.4426 11.0902H14.5984C15.9017 11.0902 16.8689 11.9099 16.8689 13.9754V21H20.9673L21 13.0328Z" stroke="#FAFAFA" stroke-linejoin="round"/>
</svg>
