<svg width="8" height="10" viewBox="0 0 8 10" fill="none" xmlns="http://www.w3.org/2000/svg">
<path d="M3.0764 9.52078L0.383376 6.15451C0.253659 5.99221 0.157333 5.80983 0.0943997 5.60737C0.0314663 5.40492 0 5.20246 0 5C0 4.79754 0.0314663 4.59508 0.0943997 4.39263C0.157333 4.19017 0.253659 4.00779 0.383376 3.84549L3.0764 0.47922C3.20623 0.317073 3.35213 0.196666 3.5141 0.118C3.67607 0.0393329 3.83803 0 4 0C4.16197 0 4.32393 0.0393329 4.4859 0.118C4.64787 0.196666 4.79377 0.317073 4.9236 0.47922L7.61662 3.84549C7.74634 4.00779 7.84267 4.19017 7.9056 4.39263C7.96853 4.59508 8 4.79754 8 5C8 5.20246 7.96853 5.40492 7.9056 5.60737C7.84267 5.80983 7.74634 5.99221 7.61662 6.15451L4.9236 9.52078C4.79377 9.68293 4.64787 9.80333 4.4859 9.882C4.32393 9.96067 4.16197 10 4 10C3.83803 10 3.67607 9.96067 3.5141 9.882C3.35213 9.80333 3.20623 9.68293 3.0764 9.52078Z" fill="#FAFAFA"/>
</svg>
