<svg width="248" height="298" viewBox="0 0 248 298" fill="none" xmlns="http://www.w3.org/2000/svg">
<path d="M149.036 70.3716C149.036 81.7205 149.13 93.0756 149.011 104.418C148.898 114.967 146.105 124.91 141.549 134.359C139.743 138.103 137.418 141.59 134.637 144.683C126.257 154.02 116.039 160.4 103.971 163.975C94.8098 166.687 85.5545 167.962 75.9992 167.65C71.5496 167.506 67.4375 163.731 67.225 158.651C67.0688 154.913 67.0625 151.183 67.0563 147.445C67.025 117.667 66.9375 87.8824 67.075 58.104C67.1 52.0671 70.3872 47.5925 75.6805 44.6491C79.0176 42.7868 82.561 41.8181 86.4044 41.8306C99.4219 41.8619 112.439 41.8431 125.457 41.8494C125.976 41.8494 126.501 41.8494 127.019 41.8494C130.069 41.8244 130.056 41.8244 130.094 38.7497C130.138 34.875 129.656 31.0879 128.325 27.4257C126.444 22.2263 123.588 20.0452 118.083 20.0202C103.815 19.964 89.5479 19.989 75.2867 20.0015C71.0684 20.0015 71.3809 20.0765 71.3809 16.0831C71.3809 11.7085 71.3621 7.33394 71.3809 2.96561C71.3934 0.072145 71.4184 0.034649 74.3743 0.0283996C85.9357 0.0159008 97.4908 0.0283996 109.052 0.0283996C111.864 0.0283996 114.677 -0.0465931 117.489 0.0471478C123.507 0.253378 129.244 1.622 134.312 4.97167C141.624 9.80245 145.792 16.8018 147.842 25.2072C148.936 29.688 149.192 34.2251 149.161 38.8184C149.098 49.3361 149.142 59.8539 149.142 70.3716C149.111 70.3716 149.073 70.3716 149.042 70.3716H149.036ZM116.352 135.565C121.82 131.041 125.263 125.235 127.063 118.436C128.038 114.755 129.531 111.199 129.531 107.281C129.525 92.8069 129.588 78.3271 129.594 63.8535C129.594 61.4225 129.531 61.36 127.182 61.3537C114.477 61.335 101.772 61.335 89.0667 61.3537C86.6231 61.3537 86.6231 61.41 86.5544 63.7347C86.5419 64.1534 86.5544 64.5659 86.5544 64.9846C86.5544 91.2321 86.5544 117.473 86.5544 143.721C86.5544 144.452 86.5919 145.177 86.5544 145.908C86.5044 147.164 87.1731 147.477 88.3105 147.483C90.1041 147.483 91.8039 146.945 93.5287 146.62C96.3222 146.102 96.3035 146.008 96.3285 143.183C96.3285 142.665 96.3285 142.14 96.3285 141.621C96.3285 123.291 96.3285 104.962 96.3285 86.6325C96.3285 85.9013 96.3659 85.1702 96.3285 84.4452C96.2472 83.0454 96.7534 82.3204 98.2783 82.3329C103.59 82.3704 108.902 82.3579 114.214 82.3454C115.339 82.3454 115.989 82.7891 115.97 83.989C115.958 84.8202 115.983 85.6576 115.983 86.4888C115.983 100.337 115.983 114.192 115.989 128.041C115.989 130.541 116.077 133.034 116.12 135.534C116.145 135.984 116.245 135.853 116.358 135.559L116.352 135.565Z" fill="#5CDDFF"/>
<path d="M180.925 114.355C180.925 126.954 181.1 139.553 180.875 152.145C180.662 164.132 176.563 174.937 169.657 184.648C163.952 192.679 156.333 198.466 147.791 203.29C140.679 207.309 133.055 209.696 125.249 211.565C118.912 213.083 112.438 213.883 105.857 213.789C101.02 213.721 96.1581 209.802 96.3081 204.097C96.5643 194.423 96.3643 184.736 96.3768 175.056C96.3768 172.418 96.4143 172.381 99.0453 171.743C103.607 170.644 108.013 169.1 112.325 167.275C112.994 166.994 113.688 166.756 114.363 166.5C115.256 166.163 115.781 166.444 115.831 167.425C115.869 168.15 115.869 168.881 115.869 169.612C115.869 176.587 115.856 183.561 115.881 190.535C115.887 193.06 116.15 193.435 118.543 192.948C127.218 191.179 135.511 188.629 143.035 183.505C146.722 180.993 149.297 177.543 152.678 174.837C154.415 173.45 155.196 170.856 156.371 168.788C157.083 167.531 157.571 166.157 158.471 164.982C159.102 164.157 159.589 163.144 159.489 162.088C159.358 160.776 159.814 159.551 160.239 158.476C161.852 154.414 161.908 150.177 161.92 145.958C161.977 124.511 161.983 103.069 161.92 81.621C161.908 78.1088 161.62 74.5966 160.827 71.1282C160.227 68.5097 158.958 66.2974 157.246 64.3226C156.465 63.4227 155.865 62.5853 155.871 61.3167C155.915 55.9047 155.859 50.4927 155.909 45.0745C155.921 43.2247 156.583 42.731 158.14 43.1122C165.595 44.9558 171.095 49.5428 175.05 55.8672C178.913 62.0354 180.894 68.9284 180.95 76.2402C181.044 88.939 180.975 101.638 180.975 114.343C180.962 114.343 180.95 114.343 180.937 114.343L180.925 114.355Z" fill="#5CDDFF"/>
<path d="M3.40196 275.235C3.40196 269.012 3.40196 262.792 3.40196 256.569C3.40196 256.096 3.40907 255.62 3.41262 255.147C3.41974 254.564 3.73267 254.268 4.29808 254.279C7.43096 254.332 10.6065 253.877 13.6789 254.66C19.1517 256.05 22.2632 259.77 23.867 265.086C25.1009 269.175 25.2752 273.322 25.1863 277.518C25.1081 281.252 24.468 284.907 22.9353 288.303C20.9048 292.805 17.6297 295.785 12.445 296.354C9.77795 296.649 7.12514 296.468 4.46877 296.568C3.73267 296.596 3.37351 296.251 3.40196 295.501C3.41974 295.088 3.40196 294.672 3.40196 294.256C3.40196 287.916 3.40196 281.575 3.40196 275.235ZM11.0119 275.434C11.0119 279.58 11.0048 283.727 11.0119 287.873C11.0119 289.459 11.4493 289.768 12.9144 289.178C14.2408 288.645 15.1405 287.635 15.7272 286.351C16.7976 284.011 17.267 281.54 17.2919 278.976C17.3097 276.725 17.2741 274.474 17.3132 272.223C17.3559 269.709 16.8331 267.305 15.7912 265.05C15.1369 263.635 14.4079 262.166 12.7046 261.615C11.3497 261.178 11.0226 261.377 11.0155 262.814C11.0048 267.02 11.0119 271.224 11.0119 275.43V275.434Z" fill="#FAFAFA"/>
<path d="M86.766 279.157C86.7518 282.002 86.7234 284.847 86.7269 287.691C86.7269 289.071 86.7589 289.096 88.1031 289.11C90.0589 289.132 92.0147 289.096 93.9706 289.124C95.4499 289.146 95.585 289.288 95.6064 290.767C95.6277 292.19 95.6312 293.612 95.6064 295.035C95.5815 296.333 95.4143 296.553 94.2159 296.56C89.4757 296.589 84.732 296.571 79.9918 296.571C79.4192 296.571 79.0316 296.542 79.0352 295.714C79.085 282.795 79.0921 269.876 79.1063 256.956C79.1063 255.169 79.9823 254.272 81.7342 254.265C85.7063 254.257 89.6749 254.254 93.647 254.265C95.3041 254.272 95.3112 254.293 95.3254 255.971C95.3361 257.333 95.3396 258.699 95.3254 260.061C95.3076 261.679 95.2899 261.7 93.5901 261.711C91.812 261.725 90.034 261.704 88.256 261.718C86.7589 261.732 86.7376 261.743 86.7269 263.162C86.7091 265.534 86.7091 267.902 86.7269 270.274C86.7376 271.597 86.7625 271.611 88.1529 271.629C89.7531 271.646 91.3533 271.611 92.9535 271.643C94.1733 271.668 94.2551 271.75 94.2764 272.976C94.3048 274.516 94.3084 276.06 94.2764 277.599C94.2515 278.812 94.1982 278.855 92.9109 278.879C90.955 278.915 88.9992 278.915 87.0434 278.926C86.8727 278.908 86.7802 278.983 86.766 279.153V279.157Z" fill="#FAFAFA"/>
<path d="M240.164 283.206C240.409 282.627 240.288 281.976 240.288 281.354C240.299 273.121 240.295 264.886 240.295 256.653C240.295 256.237 240.324 255.821 240.295 255.409C240.235 254.587 240.569 254.246 241.419 254.246C244.961 254.239 244.587 254.143 244.587 257.233C244.587 269.555 244.587 281.876 244.587 294.198C244.587 296.598 244.53 296.605 242.07 296.605C241.017 296.605 240.516 296.197 240.121 295.229C238.485 291.197 237.205 287.036 235.601 282.997C234.307 279.736 233.243 276.386 231.956 273.128C231.025 270.767 230.185 268.374 229.008 265.999V267.282C229.008 276.347 229.008 285.408 229.008 294.472C229.008 295.887 228.288 296.591 226.846 296.584C226.551 296.584 226.252 296.577 225.957 296.577C225.321 296.577 224.954 296.296 224.961 295.624C224.965 295.268 224.954 294.913 224.954 294.557C224.954 281.823 224.954 269.085 224.954 256.351C224.954 256.113 224.947 255.878 224.954 255.64C225.004 254.374 225.043 254.331 226.252 254.267C226.487 254.253 226.725 254.267 226.964 254.267C229.012 254.26 228.934 254.292 229.67 256.18C230.74 258.936 231.704 261.728 232.81 264.473C233.524 266.248 234.129 268.107 234.808 269.9C235.779 272.46 236.508 275.099 237.536 277.638C238.193 279.263 238.759 280.93 239.356 282.58C239.481 282.922 239.591 283.242 240.164 283.217V283.206Z" fill="#FAFAFA"/>
<path d="M39.3567 287.529C40.0928 287.305 40.3595 287.706 40.6973 287.905C42.262 288.816 43.9831 289.218 45.7505 289.388C48.7695 289.684 50.4195 287.607 49.5376 284.691C49.1963 283.56 48.6273 282.515 47.909 281.597C46.6146 279.947 45.2135 278.379 43.8515 276.782C42.358 275.036 40.9214 273.269 39.9434 271.142C38.1619 267.27 38.0907 263.287 39.8368 259.539C41.0565 256.925 43.2399 255.03 46.4048 254.44C49.3029 253.899 51.9913 254.248 54.7081 255.176C55.3767 255.407 55.7394 255.73 55.7429 256.399C55.7607 258.351 55.7821 260.307 55.7358 262.259C55.7109 263.184 55.3944 263.33 54.4485 262.906C53.3248 262.402 52.2154 261.897 51.0205 261.552C49.7759 261.196 48.7126 261.722 47.6209 262.053C47.2369 262.17 46.771 262.672 46.6999 263.063C46.4261 264.571 46.1487 266.167 47.0555 267.54C47.6992 268.514 48.5028 269.396 49.2709 270.292C51.7993 273.237 54.4485 276.107 56.1306 279.673C58.3709 284.421 57.457 290.565 53.8831 294.097C52.2545 295.707 50.2631 296.433 48.0619 296.646C45.9994 296.845 43.9369 296.646 41.9135 296.248C41.1987 296.109 40.548 295.622 39.8723 295.284C39.5985 295.149 39.3674 294.961 39.3602 294.623C39.314 292.23 39.2998 289.833 39.3602 287.518L39.3567 287.529Z" fill="#FAFAFA"/>
<path d="M75.0423 259.372C75.0423 260.318 75.0743 261.268 75.0316 262.214C74.9889 263.156 74.7613 263.312 73.979 262.8C72.8055 262.032 71.5004 261.741 70.1669 261.495C68.5951 261.207 67.1407 261.481 66.2766 262.928C65.4338 264.337 65.4587 265.919 66.3228 267.299C67.0981 268.54 68.0724 269.667 69.0396 270.777C70.903 272.907 72.7522 275.044 74.2635 277.448C75.9242 280.093 77.0976 282.924 76.774 286.107C76.326 290.502 74.6938 294.19 70.2416 296.007C69.5731 296.281 68.869 296.469 68.2111 296.547C65.4516 296.874 62.6921 296.81 60.0429 295.786C59.1325 295.434 58.5991 294.826 58.6098 293.784C58.6347 291.949 58.592 290.114 58.6275 288.279C58.6489 287.337 58.8374 287.238 59.7086 287.643C60.402 287.967 61.0421 288.404 61.7355 288.727C63.5705 289.577 65.4587 289.819 67.3363 288.905C68.7232 288.23 69.0859 286.989 68.9614 285.399C68.7978 283.273 67.443 281.882 66.2766 280.367C64.7688 278.408 63.0655 276.612 61.5471 274.653C59.6766 272.242 58.5351 269.621 58.1546 266.58C57.7812 263.597 58.6204 260.93 59.9255 258.362C61.1915 255.88 63.6202 254.849 66.0775 254.348C68.7267 253.807 71.4755 253.921 74.0679 255.098C74.7684 255.418 75.0885 255.763 75.0494 256.531C74.9996 257.477 75.0387 258.423 75.0387 259.372H75.0423Z" fill="#FAFAFA"/>
<path d="M127.212 275.244C127.212 269.021 127.212 262.801 127.212 256.578C127.212 256.162 127.234 255.746 127.212 255.334C127.173 254.601 127.465 254.302 128.237 254.249C132.255 253.975 136.135 254.391 139.687 256.461C140.715 257.058 141.604 257.866 142.29 258.851C143.503 260.589 144.424 262.464 145.149 264.473C147.091 269.846 147.126 275.354 146.525 280.919C146.134 284.536 145.025 287.953 143.065 291.008C140.683 294.724 137.066 296.385 132.735 296.559C131.256 296.619 129.773 296.559 128.29 296.57C127.55 296.577 127.202 296.26 127.216 295.506C127.234 294.557 127.216 293.611 127.216 292.661C127.216 286.854 127.216 281.047 127.216 275.24L127.212 275.244ZM131.544 275.223C131.544 280.546 131.537 285.869 131.547 291.193C131.547 292.58 131.576 292.58 132.902 292.605C136.522 292.672 139.331 290.538 140.772 286.833C141.942 283.814 142.311 280.67 142.447 277.491C142.553 274.956 142.461 272.42 142.166 269.885C141.86 267.225 141.138 264.697 139.843 262.392C138.403 259.825 136.223 258.221 133.112 258.232C131.565 258.239 131.551 258.232 131.547 259.786C131.54 264.931 131.547 270.077 131.547 275.223H131.544Z" fill="#FAFAFA"/>
<path d="M98.7256 275.329C98.7256 269.056 98.7256 262.783 98.7256 256.507C98.7256 256.091 98.7363 255.678 98.7256 255.266C98.7114 254.608 99.0243 254.277 99.6822 254.277C101.578 254.277 103.469 254.277 105.365 254.277C106.015 254.277 106.346 254.594 106.332 255.259C106.321 255.732 106.332 256.205 106.332 256.678C106.332 266.681 106.332 276.68 106.332 286.684C106.332 287.039 106.325 287.395 106.332 287.75C106.371 289.08 106.371 289.095 107.754 289.112C109.351 289.13 110.951 289.102 112.548 289.123C114.034 289.141 114.081 289.18 114.102 290.585C114.123 292.124 114.127 293.664 114.102 295.2C114.081 296.466 114.02 296.559 112.815 296.566C108.555 296.591 104.291 296.591 100.031 296.566C98.7861 296.559 98.7292 296.473 98.7256 295.04C98.7149 288.472 98.722 281.901 98.722 275.333L98.7256 275.329Z" fill="#FAFAFA"/>
<path d="M219.425 284.764C219.425 287.786 219.396 290.809 219.443 293.831C219.457 294.777 219.162 295.318 218.294 295.78C213.877 298.124 207.487 296.904 204.305 292.309C201.684 288.529 200.571 284.319 200.414 279.785C200.29 276.183 200.055 272.538 200.56 268.996C201.15 264.864 202.47 260.856 205.418 257.656C208.106 254.736 211.498 253.701 215.353 254.214C216.377 254.349 217.348 254.896 218.344 255.245C218.579 255.327 218.82 255.447 218.859 255.686C219.044 256.859 219.055 258.043 218.859 259.213C218.788 259.654 218.358 259.612 217.992 259.455C217.081 259.075 216.192 258.705 215.2 258.488C212.153 257.816 209.557 258.627 207.804 261.226C206.257 263.52 205.229 265.991 205.023 268.854C204.834 271.443 204.39 274.017 204.504 276.627C204.593 278.693 204.486 280.82 204.941 282.811C205.514 285.304 206.097 287.872 207.79 289.962C209.4 291.95 211.306 293.252 214.009 292.96C215.222 292.832 215.41 292.701 215.417 291.428C215.435 287.399 215.41 283.37 215.435 279.341C215.442 278.448 215.154 278.032 214.212 278.078C213.205 278.128 212.195 278.071 211.189 278.089C210.396 278.103 209.991 277.822 209.991 276.958C209.994 273.516 209.834 274.163 212.661 274.12C214.439 274.092 216.217 274.095 217.995 274.12C219.361 274.138 219.404 274.174 219.414 275.528C219.436 278.608 219.421 281.691 219.421 284.774L219.425 284.764Z" fill="#FAFAFA"/>
<path d="M28.6038 254.277C30.773 254.277 32.9493 254.266 35.1221 254.284C35.8262 254.291 36.2031 254.686 36.2102 255.404C36.2102 255.816 36.2173 256.232 36.2173 256.645C36.2173 269.187 36.2173 281.729 36.2173 294.271C36.2173 294.567 36.2316 294.865 36.2138 295.16C36.1498 296.306 35.9755 296.533 34.866 296.562C33.0347 296.604 31.1998 296.565 29.3648 296.576C28.7034 296.576 28.3905 296.281 28.4011 295.616C28.4154 294.848 28.3087 294.062 28.4331 293.311C28.6465 292.013 28.6038 290.719 28.6038 289.421C28.6109 278.771 28.6038 268.124 28.6038 257.473V254.284V254.277Z" fill="#FAFAFA"/>
<path d="M151.395 275.187C151.395 268.967 151.395 262.751 151.395 256.532C151.395 256.116 151.419 255.7 151.395 255.287C151.348 254.512 151.725 254.245 152.465 254.256C154.065 254.281 155.662 254.259 157.262 254.259C159.869 254.259 162.475 254.242 165.078 254.27C166.323 254.284 166.433 254.384 166.44 255.568C166.458 258.726 166.643 258.246 163.834 258.274C161.583 258.296 159.332 258.267 157.081 258.285C155.776 258.296 155.736 258.317 155.733 259.519C155.715 263.722 155.747 267.929 155.712 272.132C155.704 273.053 156.01 273.377 156.938 273.355C159.307 273.306 161.675 273.323 164.043 273.348C165.32 273.362 165.384 273.416 165.395 274.639C165.42 277.669 165.626 277.345 162.777 277.359C160.943 277.367 159.104 277.349 157.269 277.363C155.751 277.374 155.733 277.388 155.729 278.97C155.719 282.996 155.719 287.025 155.729 291.05C155.733 292.522 155.751 292.54 157.173 292.547C159.719 292.562 162.265 292.547 164.812 292.554C166.718 292.558 166.718 292.565 166.732 294.372C166.746 296.516 166.707 296.566 164.57 296.566C160.779 296.569 156.988 296.576 153.197 296.562C151.512 296.555 151.398 296.438 151.395 294.724C151.384 288.209 151.391 281.694 151.391 275.18L151.395 275.187Z" fill="#FAFAFA"/>
<path d="M176.891 296.978C174.622 297.23 172.591 296.206 170.522 295.37C169.878 295.111 169.523 294.581 169.558 293.824C169.594 293.056 169.562 292.284 169.569 291.516C169.569 291.164 169.544 290.755 169.953 290.609C170.333 290.47 170.611 290.751 170.885 290.979C173.153 292.892 175.877 293.07 178.64 292.871C180.091 292.764 181.738 290.623 181.94 288.877C182.2 286.633 181.787 284.542 180.639 282.572C179.231 280.161 177.449 278.031 175.813 275.787C174.49 273.974 173.128 272.178 171.912 270.293C169.942 267.246 169.142 263.953 170.138 260.34C171.503 255.401 176.88 252.591 181.581 254.298C182.516 254.64 183.455 254.967 184.376 255.34C184.97 255.582 185.29 256.026 185.247 256.723C185.201 257.491 185.265 258.263 185.226 259.031C185.176 259.963 185.013 260.045 184.141 259.565C182.523 258.679 180.852 258.043 178.978 257.883C176.396 257.659 173.637 260.432 173.882 262.861C174.039 264.401 174.149 265.845 175.031 267.207C176.126 268.896 177.3 270.524 178.505 272.132C180.721 275.087 183.217 277.85 184.771 281.257C185.482 282.811 186.144 284.397 186.282 286.111C186.577 289.684 185.447 292.789 182.676 295.079C181.083 296.395 179.152 297.198 176.891 296.978Z" fill="#FAFAFA"/>
<path d="M190.891 275.418C190.891 269.077 190.891 262.737 190.891 256.397C190.891 255.924 190.891 255.447 190.912 254.974C190.93 254.565 191.151 254.32 191.57 254.284C191.748 254.27 191.926 254.263 192.104 254.263C195.855 254.263 195.205 254.003 195.208 257.197C195.233 269.522 195.219 281.847 195.219 294.169C195.219 294.585 195.194 295.001 195.219 295.413C195.272 296.253 194.877 296.58 194.059 296.576C190.183 296.551 190.923 296.918 190.902 293.724C190.863 287.622 190.891 281.52 190.891 275.414V275.418Z" fill="#FAFAFA"/>
</svg>
