<svg width="20" height="15" viewBox="0 0 20 15" fill="none" xmlns="http://www.w3.org/2000/svg">
<path d="M1.90289 15C1.37114 15 0.921053 14.825 0.552632 14.475C0.184211 14.125 0 13.6974 0 13.1923V1.80775C0 1.30258 0.184211 0.875 0.552632 0.525C0.921053 0.175 1.37114 0 1.90289 0H18.0971C18.6289 0 19.0789 0.175 19.4474 0.525C19.8158 0.875 20 1.30258 20 1.80775V13.1923C20 13.6974 19.8158 14.125 19.4474 14.475C19.0789 14.825 18.6289 15 18.0971 15H1.90289ZM18.4211 2.94225L10.5121 7.752C10.4312 7.7955 10.3475 7.82975 10.2611 7.85475C10.1747 7.87975 10.0877 7.89225 10 7.89225C9.91228 7.89225 9.82526 7.87975 9.73895 7.85475C9.65246 7.82975 9.56877 7.7955 9.4879 7.752L1.57895 2.94225V13.1923C1.57895 13.2821 1.6093 13.3558 1.67 13.4135C1.7307 13.4712 1.80833 13.5 1.90289 13.5H18.0971C18.1917 13.5 18.2693 13.4712 18.33 13.4135C18.3907 13.3558 18.4211 13.2821 18.4211 13.1923V2.94225ZM10 6.5L18.2592 1.5H1.74079L10 6.5ZM1.57895 3.173V2.02975V2.0595V2.02775V3.173Z" fill="white"/>
</svg>
