<svg width="60" height="60" viewBox="0 0 60 60" fill="none" xmlns="http://www.w3.org/2000/svg">
<rect x="1" y="1" width="58" height="58" rx="29" stroke="#FAFAFA" stroke-opacity="0.3" stroke-width="2"/>
<path d="M18.6641 40C17.9196 40 17.2895 39.755 16.7737 39.265C16.2579 38.775 16 38.1764 16 37.4692V21.5308C16 20.8236 16.2579 20.225 16.7737 19.735C17.2895 19.245 17.9196 19 18.6641 19H41.3359C42.0804 19 42.7105 19.245 43.2263 19.735C43.7421 20.225 44 20.8236 44 21.5308V37.4692C44 38.1764 43.7421 38.775 43.2263 39.265C42.7105 39.755 42.0804 40 41.3359 40H18.6641ZM41.7895 23.1192L30.7169 29.8528C30.6037 29.9137 30.4866 29.9617 30.3655 29.9967C30.2446 30.0317 30.1228 30.0492 30 30.0492C29.8772 30.0492 29.7554 30.0317 29.6345 29.9967C29.5134 29.9617 29.3963 29.9137 29.2831 29.8528L18.2105 23.1192V37.4692C18.2105 37.5949 18.253 37.6982 18.338 37.7789C18.423 37.8596 18.5317 37.9 18.6641 37.9H41.3359C41.4683 37.9 41.577 37.8596 41.662 37.7789C41.747 37.6982 41.7895 37.5949 41.7895 37.4692V23.1192ZM30 28.1L41.5629 21.1H18.4371L30 28.1ZM18.2105 23.4422V21.8417V21.8833V21.8388V23.4422Z" fill="white"/>
</svg>
