<svg width="55" height="55" viewBox="0 0 55 55" fill="none" xmlns="http://www.w3.org/2000/svg">
<g clip-path="url(#clip0_72_82)">
<path d="M27.7293 0.00541284C33.4194 0.00541284 39.1112 0.0126023 44.8013 2.07192e-05C46.9515 -0.00357403 48.9825 0.460149 50.7507 1.73808C52.1947 2.78236 53.3495 4.09444 54.0873 5.80554C54.7515 7.34589 54.9968 8.92938 54.9968 10.5794C55.0003 21.8148 55.0038 33.0484 54.995 44.2837C54.9933 46.5826 54.3835 48.7035 53.0288 50.5584C52.4926 51.2935 51.8232 51.8956 51.1222 52.478C50.055 53.3659 48.8283 53.8727 47.542 54.2322C46.8218 54.4335 46.0595 54.5 45.2937 54.4892C43.3801 54.4659 41.4664 54.4623 39.5528 54.4964C39.1094 54.5036 38.6678 54.4802 38.2262 54.4802C36.4545 54.4838 34.6828 54.4802 32.9112 54.4802C31.9193 54.4802 30.9274 54.4802 29.9356 54.4802C23.201 54.4731 16.4648 54.4659 9.73026 54.4623C7.72024 54.4623 5.96257 53.7146 4.3819 52.5121C3.23231 51.6386 2.29302 50.5404 1.63411 49.2337C0.964693 47.9073 0.523085 46.5035 0.524838 44.9793C0.531847 38.8718 0.559886 32.7626 0.500304 26.6551C0.486285 25.2226 0.593182 23.7955 0.538857 22.3612C0.481027 20.8729 0.52659 19.3811 0.52659 17.8893C0.52659 16.4172 0.52659 14.9434 0.52659 13.4713C0.52659 11.9993 0.461751 10.5219 0.544114 9.05519C0.645754 7.24883 1.26611 5.60244 2.32281 4.14117C3.52321 2.4822 5.02678 1.23841 6.96846 0.594952C8.16886 0.197732 9.39204 -0.00177666 10.659 2.07192e-05C16.3491 0.0126023 22.0392 0.00541284 27.7293 0.00541284ZM46.9112 24.11H46.9147C46.9147 20.2385 46.9077 16.3669 46.9234 12.4954C46.9252 12.0622 46.8078 11.931 46.3872 11.9382C45.0764 11.9633 43.7638 11.9633 42.453 11.9382C42.0167 11.9292 41.8747 12.0568 41.88 12.5169C41.9028 14.5516 41.8923 16.588 41.8888 18.6244C41.8888 19.4854 42.1113 19.6004 40.9512 19.6202C40.1031 19.6345 39.2531 19.5411 38.4015 19.7028C36.9978 19.9707 35.6712 20.4254 34.448 21.1929C33.5613 21.7501 32.8288 22.4456 32.1611 23.2832C31.3585 24.2879 30.8048 25.4041 30.4543 26.5994C29.9583 28.2853 30.0057 30.0252 30.3071 31.7632C31.0501 36.0446 34.3657 38.4584 38.2665 38.8017C39.9979 38.9545 41.7293 38.8988 43.4361 38.4836C44.5542 38.2104 45.667 37.9372 46.7167 37.4411C46.9515 37.3297 47.0041 37.2039 47.0268 36.9594C47.0777 36.4274 46.9007 35.9242 46.9024 35.3975C46.9147 31.6356 46.9094 27.8719 46.9094 24.11H46.9112ZM19.1863 23.1915C18.5729 21.9046 17.9841 20.7453 17.3375 19.6184C16.3474 17.8947 15.4449 16.1207 14.5967 14.3197C14.4881 14.0896 14.3303 13.9674 14.1113 13.9674C12.3922 13.9566 10.6731 13.9566 8.95219 13.9602C8.62974 13.9602 8.55789 14.1184 8.72437 14.4042C9.44637 15.6534 10.1614 16.9061 10.8833 18.1535C12.4009 20.7723 13.922 23.3911 15.4484 26.0062C15.5658 26.2075 15.4887 26.3154 15.387 26.4843C14.5214 27.9043 13.6644 29.3314 12.8198 30.7639C11.395 33.1796 9.98786 35.606 8.55264 38.0163C8.35987 38.3416 8.40193 38.4063 8.7454 38.4045C10.3769 38.3991 12.0066 38.4009 13.6381 38.4009C13.887 38.4009 14.0675 38.3183 14.1954 38.0738C15.6429 35.3059 17.1254 32.5577 18.5098 29.7574C18.5817 29.6118 18.6045 29.4177 18.7815 29.3458C18.9146 29.4338 18.9847 29.5578 19.0531 29.6873C20.4638 32.4013 21.9779 35.0578 23.2817 37.8294C23.4797 38.2518 23.7723 38.5124 24.1999 38.4495C24.4435 38.4135 24.6853 38.3919 24.9272 38.3901C26.2205 38.3812 27.5155 38.3866 28.8088 38.3866C29.0681 38.3866 29.3765 38.462 29.5097 38.1493C29.6184 37.8941 29.3906 37.6946 29.2854 37.4951C28.7089 36.4023 27.9623 35.4227 27.3578 34.3389C25.7964 31.5404 24.1211 28.8083 22.4791 26.0584C22.3722 25.8786 22.3634 25.8031 22.4791 25.6108C23.3342 24.1927 24.1579 22.7566 24.9973 21.3277C25.8121 19.9401 26.6323 18.5561 27.4471 17.1685C27.9869 16.2501 28.5179 15.328 29.0611 14.4132C29.2223 14.14 29.2293 13.9602 28.8613 13.9602C27.3543 13.9566 25.8472 13.9494 24.3401 13.9692C24.0247 13.9728 23.7478 14.0573 23.5971 14.4689C23.3658 15.1034 23.0205 15.6947 22.7104 16.2968C22.0059 17.661 21.2874 19.0198 20.5864 20.3858C20.1256 21.2827 19.684 22.1904 19.1828 23.1951L19.1863 23.1915Z" fill="#3A0C31"/>
<path d="M46.9134 24.1098C46.9134 27.8717 46.9187 31.6354 46.9064 35.3973C46.9046 35.9239 47.0816 36.4272 47.0308 36.9592C47.008 37.2054 46.9555 37.3295 46.7206 37.4409C45.6692 37.937 44.5564 38.212 43.4401 38.4834C41.7333 38.8986 40.0019 38.9543 38.2705 38.8015C34.3696 38.4582 31.0541 36.0443 30.3111 31.763C30.0096 30.0249 29.9623 28.2833 30.4583 26.5991C30.8105 25.4039 31.3625 24.2877 32.1651 23.283C32.8328 22.4454 33.5653 21.7498 34.452 21.1926C35.6734 20.4251 37 19.9686 38.4054 19.7026C39.2554 19.5408 40.1053 19.6325 40.9552 19.6199C42.1136 19.6001 41.891 19.4869 41.8927 18.6242C41.8963 16.5877 41.9068 14.5531 41.884 12.5167C41.8787 12.0566 42.0189 11.9289 42.457 11.9379C43.7678 11.9649 45.0804 11.9631 46.3912 11.9379C46.8118 11.9307 46.9292 12.062 46.9274 12.4951C46.9117 16.3667 46.9187 20.2382 46.9187 24.1098H46.9152H46.9134ZM41.8927 29.0975C41.8927 27.6452 41.8822 26.1911 41.898 24.7388C41.9033 24.2625 41.8927 24.0055 41.2584 23.9336C39.4394 23.7269 37.8464 24.1421 36.5724 25.4865C35.0811 27.0575 35.0846 29.0058 35.5035 30.9775C35.7278 32.0308 36.2728 32.9403 37.1577 33.5783C38.4983 34.5471 40.0072 34.5273 41.5423 34.326C41.8595 34.2847 41.8998 34.0726 41.898 33.785C41.8857 32.2231 41.8927 30.6612 41.8927 29.0993V29.0975Z" fill="#EF61F6"/>
<path d="M46.4134 23.6098H46.4186C46.4185 22.8658 46.4182 22.1216 46.4179 21.3774C46.4166 18.4168 46.4154 15.4548 46.4274 12.4931C46.4275 12.4726 46.4272 12.4542 46.4267 12.4377L46.4134 23.6098ZM46.4134 23.6098V24.1098M46.4134 23.6098V24.1098M46.4134 24.1098C46.4134 24.9781 46.4137 25.8464 46.414 26.7147C46.4149 29.6089 46.4158 32.5027 46.4064 35.3956C46.4055 35.6681 46.4455 35.9352 46.4789 36.1588C46.4835 36.1895 46.488 36.2194 46.4922 36.2484C46.5296 36.5045 46.5523 36.711 46.5331 36.9116L46.5329 36.9131M46.4134 24.1098L46.5329 36.9131M46.5329 36.9131C46.5302 36.9431 46.5274 36.9646 46.5248 36.9799C46.5197 36.9826 46.5135 36.9857 46.5063 36.9891C45.508 37.46 44.4441 37.7247 43.322 37.9975L43.3219 37.9975M46.5329 36.9131L43.3219 37.9975M43.3219 37.9975C41.6811 38.3967 40.0067 38.4528 38.3145 38.3034L38.3143 38.3034M43.3219 37.9975L38.3143 38.3034M38.3143 38.3034C34.5999 37.9765 31.5016 35.6988 30.8037 31.6775L38.3143 38.3034ZM32.5561 23.5946L32.5558 23.595C31.7973 24.5445 31.2736 25.6013 30.9379 26.7404C30.4712 28.3254 30.5099 29.9834 30.8037 31.6775L32.5561 23.5946ZM32.5561 23.5946C33.1957 22.7923 33.8876 22.1378 34.718 21.616C35.8752 20.8889 37.1398 20.451 38.4984 20.1939L38.4989 20.1938M32.5561 23.5946L38.4989 20.1938M38.4989 20.1938C38.8782 20.1216 39.2667 20.1042 39.679 20.1053C39.8342 20.1057 40.0053 20.1092 40.1817 20.1128C40.4416 20.118 40.713 20.1236 40.9626 20.1199L40.9637 20.1198C41.2502 20.115 41.4936 20.1044 41.6831 20.0686C41.8707 20.0331 42.1211 19.9524 42.2779 19.7091C42.4143 19.4975 42.4107 19.2562 42.4083 19.1314C42.4068 19.0541 42.4039 18.993 42.4009 18.9323C42.3967 18.8451 42.3925 18.7585 42.3927 18.6252V18.625C42.3934 18.2714 42.3942 17.9177 42.395 17.5638C42.3989 15.8819 42.4028 14.197 42.384 12.5111L42.384 12.511C42.3836 12.4829 42.384 12.4587 42.385 12.4379C42.4029 12.4374 42.4234 12.4374 42.4467 12.4378L42.457 11.9379M38.4989 20.1938L34.452 21.1926C35.6734 20.4251 37 19.9686 38.4054 19.7026C39.0077 19.588 39.6099 19.6006 40.2121 19.6132C40.4598 19.6184 40.7075 19.6236 40.9552 19.6199C41.9306 19.6033 41.9268 19.5203 41.9024 18.9795C41.8978 18.878 41.8925 18.7604 41.8927 18.6242C41.8934 18.2699 41.8942 17.9156 41.895 17.5614C41.8989 15.8797 41.9028 14.1988 41.884 12.5167C41.8787 12.0566 42.0189 11.9289 42.457 11.9379M42.457 11.9379L42.4468 12.4378M42.457 11.9379L42.4468 12.4378M42.4468 12.4378C43.7647 12.4649 45.0837 12.4631 46.4002 12.4379L42.4468 12.4378ZM35.0144 31.0817L35.0144 31.0814C34.5847 29.0586 34.5451 26.8961 36.2095 25.1426C37.6139 23.6606 39.3752 23.2164 41.3148 23.4368C41.6728 23.4774 42.0381 23.5863 42.2445 23.9236C42.3384 24.0769 42.3721 24.237 42.3865 24.3674C42.4005 24.4946 42.3992 24.63 42.398 24.7443L35.0144 31.0817ZM35.0144 31.0817C35.2618 32.2432 35.8692 33.2656 36.8651 33.9837M35.0144 31.0817L36.8651 33.9837M42.398 33.7811L42.398 33.782C42.3989 33.9249 42.3957 34.165 42.2823 34.3806C42.1404 34.6503 41.8877 34.7852 41.6069 34.8218M42.398 33.7811L36.8653 33.9839C36.8652 33.9838 36.8651 33.9838 36.8651 33.9837M42.398 33.7811C42.389 32.6382 42.3904 31.4961 42.3917 30.3514C42.3922 29.9345 42.3927 29.5171 42.3927 29.0993V29.0975C42.3927 28.6803 42.3919 28.264 42.391 27.8481M42.398 33.7811L42.391 27.8481M41.6069 34.8218L41.5423 34.326L41.6073 34.8218C41.6071 34.8218 41.607 34.8218 41.6069 34.8218ZM41.6069 34.8218C40.0479 35.0262 38.3698 35.0711 36.8651 33.9837M42.391 27.8481C42.3889 26.8115 42.3867 25.7783 42.398 24.7444L42.391 27.8481Z" stroke="#EF61F6" stroke-opacity="0.3"/>
<path d="M19.1869 23.1904C19.6881 22.1856 20.1297 21.278 20.5906 20.3811C21.2916 19.0151 22.0101 17.658 22.7146 16.292C23.0247 15.6899 23.37 15.0986 23.6013 14.4641C23.752 14.0525 24.0271 13.968 24.3443 13.9644C25.8514 13.9447 27.3584 13.9519 28.8655 13.9555C29.2335 13.9555 29.2265 14.137 29.0653 14.4084C28.522 15.3233 27.9911 16.2453 27.4513 17.1638C26.6364 18.5513 25.8163 19.9353 25.0014 21.3229C24.1638 22.7518 23.3384 24.1879 22.4832 25.606C22.3676 25.7984 22.3763 25.8738 22.4832 26.0536C24.1252 28.8054 25.8005 31.5356 27.3619 34.3341C27.9665 35.4179 28.7131 36.3975 29.2896 37.4903C29.3947 37.6916 29.6226 37.8893 29.5139 38.1445C29.3807 38.4573 29.0723 38.3818 28.8129 38.3818C27.5197 38.3818 26.2246 38.3782 24.9314 38.3854C24.6895 38.3854 24.4477 38.4087 24.2041 38.4447C23.7765 38.5076 23.4839 38.247 23.2858 37.8246C21.982 35.053 20.468 32.3965 19.0573 29.6825C18.9889 29.5513 18.9188 29.4291 18.7856 29.341C18.6087 29.4147 18.5859 29.607 18.514 29.7526C17.1279 32.5529 15.6471 35.3029 14.1996 38.069C14.0717 38.3135 13.8912 38.3962 13.6423 38.3962C12.0108 38.3962 10.3811 38.3944 8.74958 38.3997C8.40611 38.3997 8.36405 38.3368 8.55682 38.0115C9.99029 35.6012 11.3992 33.1748 12.8239 30.7591C13.6686 29.3266 14.5255 27.8995 15.3912 26.4796C15.4946 26.3106 15.57 26.2028 15.4526 26.0015C13.9262 23.3881 12.4051 20.7693 10.8875 18.1487C10.1638 16.9014 9.45055 15.6486 8.72856 14.3994C8.56208 14.1118 8.63568 13.9555 8.95637 13.9555C10.6755 13.9519 12.3946 13.9519 14.1155 13.9626C14.3345 13.9626 14.4922 14.0867 14.6009 14.3149C15.4491 16.1159 16.3515 17.8899 17.3417 19.6136C17.9883 20.7405 18.5771 21.8998 19.1905 23.1868L19.1869 23.1904Z" fill="#EF61F6"/>
<path d="M19.1056 23.2272L18.7391 23.4019C18.129 22.1218 17.5462 20.9747 16.9081 19.8626C15.9098 18.1248 15.0013 16.3386 14.149 14.529M19.1056 23.2272L12.8239 30.7591C12.263 31.7103 11.7044 32.6631 11.1459 33.616C10.2859 35.0831 9.42587 36.5503 8.55682 38.0115M19.1056 23.2272L19.545 23.5394L19.5485 23.5358L19.7918 23.2863L19.7458 23.1898M19.1056 23.2272L19.7458 23.1898M14.149 14.529C14.1489 14.5286 14.1487 14.5283 14.1485 14.528L14.6009 14.3149L14.1494 14.5298C14.1493 14.5295 14.1492 14.5293 14.149 14.529ZM14.149 14.529C14.1315 14.4923 14.1172 14.4724 14.1091 14.4626M14.1091 14.4626C14.1102 14.4626 14.1112 14.4626 14.1123 14.4626V14.4626H14.1155C14.1225 14.4626 14.1214 14.4635 14.1155 14.4616C14.1155 14.4616 14.1155 14.4616 14.1155 14.4616C14.1144 14.4613 14.1133 14.4609 14.1123 14.4605C14.1076 14.4586 14.1039 14.4564 14.102 14.455C14.1017 14.4548 14.1016 14.4547 14.1016 14.4547C14.1016 14.4547 14.1043 14.4569 14.1091 14.4626ZM14.1091 14.4626C12.5181 14.4527 10.9283 14.4519 9.33783 14.4547M9.33783 14.4547C9.27914 14.353 9.22036 14.2511 9.16145 14.1492L9.16128 14.1489C9.14207 14.1157 9.13693 14.1002 9.13681 14.1002C9.13676 14.1003 9.1374 14.1024 9.13827 14.1066C9.13985 14.1141 9.14299 14.1332 9.14204 14.16C9.14203 14.1602 9.14203 14.1603 9.14202 14.1604C9.14076 14.1947 9.13283 14.2417 9.10661 14.2939C9.06283 14.3811 8.99723 14.4253 8.95739 14.4443C8.95705 14.4444 8.95671 14.4446 8.95637 14.4447C8.95141 14.4471 8.94687 14.449 8.94283 14.4506C8.9293 14.4558 8.92141 14.4572 8.92142 14.4573C8.92142 14.4573 8.93193 14.4555 8.95637 14.4555L8.95741 14.4555C9.08422 14.4552 9.21103 14.4549 9.33783 14.4547ZM9.33783 14.4547C9.59986 14.9091 9.85989 15.362 10.1196 15.8144C10.5184 16.509 10.9165 17.2024 11.32 17.8978L11.3202 17.8982C12.8376 20.5184 14.3584 23.1366 15.8843 25.7493L15.8845 25.7495C15.9927 25.9352 16.0438 26.1427 15.9916 26.3662C15.9557 26.5204 15.8697 26.6574 15.8292 26.7221C15.8248 26.7291 15.8209 26.7353 15.8177 26.7405L15.3912 26.4796L15.8181 26.7398C14.9536 28.1579 14.098 29.5829 13.2546 31.0131L13.2546 31.0131C12.6952 31.9617 12.1371 32.9136 11.5787 33.8663C10.7902 35.2115 10.0009 36.5581 9.20557 37.8984M9.20557 37.8984C9.05343 37.8988 8.90127 37.8992 8.7491 37.8997C8.67921 37.8997 8.65477 37.8962 8.65474 37.8964C8.65473 37.8965 8.65528 37.8966 8.6563 37.8968C8.66274 37.8983 8.69736 37.9062 8.742 37.9327C8.744 37.9339 8.74602 37.9351 8.74805 37.9364L8.74868 38.1252L8.55682 38.0115M9.20557 37.8984C10.3589 37.8955 11.5115 37.8958 12.6639 37.896C12.9901 37.8961 13.3162 37.8962 13.6423 37.8962C13.6954 37.8962 13.7175 37.8895 13.723 37.8873M9.20557 37.8984C9.13268 38.0213 9.05974 38.144 8.98675 38.2668C8.96622 38.3014 8.95176 38.3277 8.94179 38.3474C8.93282 38.3651 8.92986 38.3729 8.92984 38.3729C8.92983 38.3729 8.9299 38.3727 8.93003 38.3723L8.93006 38.3722C8.93077 38.3702 8.93999 38.3437 8.942 38.3006C8.94279 38.2834 8.94246 38.2626 8.93973 38.2393L8.74958 38.1262V38.3997M8.55682 38.0115L8.74868 38.1256L8.74958 38.3997M8.55682 38.0115C8.36405 38.3368 8.40611 38.3997 8.74958 38.3997M18.5136 29.7524L18.5156 29.7493C18.5151 29.7504 18.5146 29.7515 18.514 29.7526C18.513 29.7546 18.512 29.7567 18.511 29.7588C18.5106 29.7585 18.5102 29.7583 18.5099 29.758L18.5136 29.7524ZM18.5136 29.7524L18.0659 29.5308C18.0658 29.5309 18.0657 29.5311 18.0656 29.5313L18.5136 29.7524ZM13.723 37.8873L14.1996 38.069M13.723 37.8873C13.7217 37.8885 13.722 37.888 13.7235 37.8872C13.7241 37.8868 13.7244 37.8867 13.7245 37.8867C13.7245 37.8867 13.724 37.8869 13.723 37.8873ZM8.74958 38.3997C10.0546 38.3954 11.3585 38.3957 12.6631 38.396C12.9894 38.3961 13.3158 38.3962 13.6423 38.3962C13.8912 38.3962 14.0717 38.3135 14.1996 38.069M14.1996 38.069L13.7566 37.8372C13.7566 37.8372 13.7566 37.8372 13.7566 37.8372L14.1996 38.069ZM24.1311 37.95L24.2041 38.4444L24.1313 37.95C24.1312 37.95 24.1312 37.95 24.1311 37.95ZM24.1311 37.95C24.3899 37.9118 24.6569 37.8855 24.9299 37.8854M24.1311 37.95L19.7458 23.1898M19.7458 23.1898C19.8673 22.9455 19.9852 22.7074 20.1008 22.474C20.4208 21.8277 20.7231 21.2172 21.0353 20.6096L21.0355 20.6093C21.4172 19.8655 21.8 19.1322 22.1838 18.3969C22.5081 17.7756 22.8332 17.1529 23.1589 16.5212L23.159 16.521C23.224 16.3948 23.2929 16.2651 23.3634 16.1324C23.6114 15.6654 23.8796 15.1603 24.0709 14.6357M19.7458 23.1898L19.6418 22.9717C19.585 22.8525 19.5284 22.7343 19.4719 22.6171C19.5321 22.4956 19.5917 22.3753 19.6507 22.2562C19.9717 21.608 20.2767 20.992 20.5906 20.3811C20.9711 19.6396 21.3568 18.9007 21.7426 18.1616C22.0675 17.5392 22.3925 16.9165 22.7146 16.292L19.7458 23.1898ZM24.0709 14.6357C24.0709 14.6358 24.0708 14.6359 24.0708 14.636L23.6013 14.4641L24.071 14.6354C24.071 14.6355 24.0709 14.6356 24.0709 14.6357ZM24.0709 14.6357C24.113 14.521 24.1512 14.4995 24.1587 14.4953L24.1592 14.495C24.1786 14.4838 24.2267 14.4658 24.35 14.4644L24.3509 14.4644C25.6764 14.447 27.0019 14.4505 28.3321 14.4541C28.3737 14.4542 28.4154 14.4543 28.457 14.4544M28.457 14.4544C28.1894 14.9078 27.9234 15.3641 27.6581 15.8192C27.4452 16.1844 27.2327 16.5489 27.0202 16.9104L27.0202 16.9106C26.613 17.6039 26.2045 18.2963 25.7957 18.9893C25.387 19.6821 24.978 20.3754 24.5703 21.0697L24.5701 21.07C24.3257 21.4869 24.0829 21.9035 23.8405 22.3193C23.2492 23.3338 22.6601 24.3445 22.0551 25.3478L22.0548 25.3484C21.988 25.4593 21.8963 25.6292 21.8998 25.8429C21.9033 26.0519 21.9981 26.216 22.0535 26.3092L22.0539 26.3098C22.433 26.9452 22.8133 27.5785 23.1932 28.211C24.4627 30.3248 25.7271 32.4302 26.9253 34.5777M28.457 14.4544C28.5927 14.4548 28.7285 14.4551 28.8643 14.4555H28.8655C28.8956 14.4555 28.9082 14.4577 28.9082 14.4576C28.9082 14.4576 28.8952 14.4553 28.8742 14.4461C28.8715 14.4449 28.8686 14.4436 28.8655 14.4421C28.8651 14.4419 28.8647 14.4418 28.8644 14.4416C28.8397 14.4295 28.8056 14.4083 28.7715 14.3727C28.731 14.3303 28.7017 14.2791 28.6855 14.2255C28.6801 14.2079 28.6765 14.1913 28.6743 14.1762C28.6743 14.1762 28.6743 14.1761 28.6742 14.1761C28.6699 14.1475 28.6702 14.1241 28.6714 14.108C28.6723 14.0955 28.674 14.0861 28.6752 14.0804C28.6764 14.0747 28.6774 14.0716 28.6774 14.0714L28.6774 14.0713C28.6774 14.0713 28.6768 14.0732 28.6753 14.077C28.6736 14.081 28.6712 14.0867 28.6676 14.094C28.6604 14.109 28.65 14.1286 28.6354 14.153L28.6354 14.1531C28.5758 14.2534 28.5164 14.3538 28.457 14.4544ZM26.9253 34.5777C27.2134 35.0941 27.5321 35.5865 27.84 36.0623C27.8656 36.1017 27.8911 36.1411 27.9164 36.1803C28.251 36.6978 28.5704 37.1987 28.8471 37.723M26.9253 34.5777L27.3534 34.3388L26.9253 34.5777C26.9253 34.5777 26.9253 34.5777 26.9253 34.5777ZM28.8471 37.723C28.879 37.784 28.9161 37.8414 28.9456 37.8854M28.8471 37.723C28.8469 37.7226 28.8466 37.7222 28.8464 37.7218L29.2896 37.4903L28.8474 37.7236C28.8473 37.7234 28.8472 37.7232 28.8471 37.723ZM28.9456 37.8854C28.9418 37.8852 28.9378 37.8851 28.9337 37.8849C28.8985 37.8834 28.8566 37.8818 28.8129 37.8818C28.4905 37.8818 28.1676 37.8816 27.8445 37.8813C26.874 37.8807 25.9012 37.88 24.9299 37.8854M28.9456 37.8854C28.9535 37.8858 28.9608 37.8861 28.9679 37.8864C28.99 37.8874 29.0089 37.8883 29.0294 37.8889C29.0888 37.8909 29.1171 37.889 29.1316 37.8867C29.134 37.8864 29.1348 37.8861 29.1345 37.8862C29.1333 37.8865 29.1163 37.8908 29.0942 37.9066C29.067 37.9259 29.0556 37.9458 29.054 37.9486M28.9456 37.8854C28.9528 37.8961 28.9594 37.9059 28.9655 37.9149L28.9704 37.922C29.0077 37.9771 29.0268 38.0062 29.0403 38.0316C29.0458 38.0419 29.0476 38.0469 29.0478 38.0472C29.0479 38.0476 29.0455 38.0412 29.0439 38.0294C29.0401 38.0008 29.0447 37.9702 29.0539 37.9487M24.9299 37.8854C24.9295 37.8854 24.929 37.8854 24.9286 37.8854L24.9314 38.3852V37.8854C24.9309 37.8854 24.9304 37.8854 24.9299 37.8854ZM29.054 37.9486L29.0539 37.9486C29.0539 37.9486 29.0539 37.9487 29.0539 37.9487M29.054 37.9486L29.5079 38.142L29.0539 37.9487M29.054 37.9486L29.0539 37.9487M29.0539 37.9487L29.0539 37.9487M29.0539 37.9487C29.0537 37.9491 29.0537 37.9491 29.0539 37.9487M24.3443 13.9644L24.3443 13.9647L24.3443 13.9644ZM24.3443 13.9644C25.674 13.947 27.0038 13.9505 28.3335 13.9541C28.5108 13.9546 28.6882 13.955 28.8655 13.9555C29.2335 13.9555 29.2265 14.137 29.0653 14.4084C28.738 14.9596 28.4151 15.5135 28.0921 16.0675C27.879 16.4331 27.6659 16.7987 27.4513 17.1638C27.0439 17.8575 26.6351 18.5504 26.2264 19.2433C25.8176 19.9362 25.4089 20.6291 25.0014 21.3229C24.7584 21.7375 24.5164 22.1527 24.2744 22.5679C23.6823 23.5836 23.0903 24.5994 22.4832 25.606L24.3443 13.9644ZM8.93963 38.2383L8.74958 38.1257V37.9373C8.79761 37.9674 8.85483 38.0184 8.89563 38.0968C8.92235 38.1481 8.93472 38.1972 8.93963 38.2383Z" stroke="#EF61F6" stroke-opacity="0.3"/>
<path d="M41.8914 29.0967C41.8914 30.6586 41.8844 32.2205 41.8966 33.7825C41.8984 34.07 41.8581 34.2821 41.5409 34.3235C40.0058 34.5248 38.497 34.5428 37.1564 33.5758C36.2732 32.9377 35.7264 32.0282 35.5021 30.975C35.0833 29.0032 35.0798 27.0531 36.5711 25.484C37.8468 24.1395 39.438 23.7244 41.257 23.9311C41.8914 24.0029 41.9002 24.26 41.8966 24.7363C41.8809 26.1886 41.8914 27.6426 41.8914 29.0949V29.0967Z" fill="#3A0C31"/>
<rect x="0.75" y="0.25" width="54" height="54" rx="5.75" stroke="#70266C" stroke-width="0.5"/>
</g>
<defs>
<clipPath id="clip0_72_82">
<rect width="54.5" height="54.5" fill="white" transform="translate(0.5)"/>
</clipPath>
</defs>
</svg>
