<svg width="119" height="68" viewBox="0 0 119 68" fill="none" xmlns="http://www.w3.org/2000/svg">
<path d="M9.39428 57.0303H7.03951V47.4015H8.61349C11.055 47.4015 11.9721 47.8774 12.9016 50.6111H12.9636V43.2034H12.9016C11.9597 45.9737 11.055 46.6205 8.61349 46.6205H7.03951V37.6995H9.09684C12.7777 37.6995 14.2649 39.5179 15.9257 42.52H15.9876L15.1573 36.9551H13.0132H0V37.0161C1.23935 37.8215 1.47483 38.566 1.47483 40.5186V54.199C1.47483 56.1638 1.22696 56.9082 0 57.7015V57.7625H15.7398L16.5577 51.6362H16.4958C14.835 54.858 13.1991 57.0303 9.39428 57.0303Z" fill="#BABDA6"/>
<path d="M9.39428 57.0303H7.03951V47.4015H8.61349C11.055 47.4015 11.9721 47.8774 12.9016 50.6111H12.9636V43.2034H12.9016C11.9597 45.9737 11.055 46.6205 8.61349 46.6205H7.03951V37.6995H9.09684C12.7777 37.6995 14.2649 39.5179 15.9257 42.52H15.9876L15.1573 36.9551H13.0132H0V37.0161C1.23935 37.8215 1.47483 38.566 1.47483 40.5186V54.199C1.47483 56.1638 1.22696 56.9082 0 57.7015V57.7625H15.7398L16.5577 51.6362H16.4958C14.835 54.858 13.1991 57.0303 9.39428 57.0303Z" fill="#BABDA6"/>
<path d="M25.8896 57.0303H24.8609V37.6995H25.7657C29.5457 37.6995 31.5658 41.1166 31.5658 47.2795C31.5658 53.7841 29.5457 57.0303 25.8896 57.0303ZM25.9144 36.9551H17.8214V37.0161C19.0608 37.8215 19.2962 38.566 19.2962 40.5186V54.199C19.2962 56.1638 19.0484 56.9082 17.8214 57.7015V57.7625H26.1622C32.5077 57.7625 37.5519 54.4309 37.5519 47.2673C37.5519 40.2867 32.5945 36.9551 25.9144 36.9551Z" fill="#BABDA6"/>
<path d="M25.8896 57.0303H24.8609V37.6995H25.7657C29.5457 37.6995 31.5658 41.1166 31.5658 47.2795C31.5658 53.7841 29.5457 57.0303 25.8896 57.0303ZM25.9144 36.9551H17.8214V37.0161C19.0608 37.8215 19.2962 38.566 19.2962 40.5186V54.199C19.2962 56.1638 19.0484 56.9082 17.8214 57.7015V57.7625H26.1622C32.5077 57.7625 37.5519 54.4309 37.5519 47.2673C37.5519 40.2867 32.5945 36.9551 25.9144 36.9551Z" fill="#BABDA6"/>
<path d="M38.6915 37.0161C39.9309 37.8215 40.1664 38.566 40.1664 40.5186V54.199C40.1664 56.1638 39.9185 56.9082 38.6915 57.7137V57.7747H47.2183V57.7137C45.9541 56.9082 45.7434 56.1638 45.7434 54.199V40.5308C45.7434 38.566 45.9541 37.8215 47.2183 37.0283V36.9551H38.7039V37.0161H38.6915Z" fill="#BABDA6"/>
<path d="M38.6915 37.0161C39.9309 37.8215 40.1664 38.566 40.1664 40.5186V54.199C40.1664 56.1638 39.9185 56.9082 38.6915 57.7137V57.7747H47.2183V57.7137C45.9541 56.9082 45.7434 56.1638 45.7434 54.199V40.5308C45.7434 38.566 45.9541 37.8215 47.2183 37.0283V36.9551H38.7039V37.0161H38.6915Z" fill="#BABDA6"/>
<path d="M65.3009 36.9551H51.0484H48.9291L48.1483 44.0943H48.2103C50.4783 39.7497 51.6805 37.6751 54.6425 37.6751H55.3985V54.2966C55.3985 56.2614 55.0391 56.8594 53.6758 57.7137V57.7747H62.6735V57.7137C61.3102 56.8472 60.9508 56.2614 60.9508 54.2966V37.6751H61.7068C64.6689 37.6751 65.9082 39.7619 68.139 44.0943H68.201L67.445 36.9551H65.3009Z" fill="#BABDA6"/>
<path d="M65.3009 36.9551H51.0484H48.9291L48.1483 44.0943H48.2103C50.4783 39.7497 51.6805 37.6751 54.6425 37.6751H55.3985V54.2966C55.3985 56.2614 55.0391 56.8594 53.6758 57.7137V57.7747H62.6735V57.7137C61.3102 56.8472 60.9508 56.2614 60.9508 54.2966V37.6751H61.7068C64.6689 37.6751 65.9082 39.7619 68.139 44.0943H68.201L67.445 36.9551H65.3009Z" fill="#BABDA6"/>
<path d="M69.1805 37.0161C70.4199 37.8215 70.6554 38.566 70.6554 40.5186V54.199C70.6554 56.1638 70.4075 56.9082 69.1805 57.7137V57.7747H77.7073V57.7137C76.4431 56.9082 76.2324 56.1638 76.2324 54.199V40.5308C76.2324 38.566 76.4431 37.8215 77.7073 37.0283V36.9551H69.1929V37.0161H69.1805Z" fill="#BABDA6"/>
<path d="M69.1805 37.0161C70.4199 37.8215 70.6554 38.566 70.6554 40.5186V54.199C70.6554 56.1638 70.4075 56.9082 69.1805 57.7137V57.7747H77.7073V57.7137C76.4431 56.9082 76.2324 56.1638 76.2324 54.199V40.5308C76.2324 38.566 76.4431 37.8215 77.7073 37.0283V36.9551H69.1929V37.0161H69.1805Z" fill="#BABDA6"/>
<path d="M88.6505 57.4837C85.8372 57.4837 84.9697 53.7981 84.9697 47.379C84.9697 40.9598 85.8496 37.2743 88.6505 37.2743C91.4887 37.2743 92.3686 40.9598 92.3686 47.379C92.3686 53.7859 91.4887 57.4837 88.6505 57.4837ZM88.6505 36.6641C82.9991 36.6641 78.8969 41.1184 78.8969 47.3668C78.8969 53.6151 82.9991 58.0694 88.6505 58.0694C94.302 58.0694 98.4414 53.6151 98.4414 47.3668C98.4414 41.1184 94.302 36.6641 88.6505 36.6641Z" fill="#BABDA6"/>
<path d="M88.6505 57.4837C85.8372 57.4837 84.9697 53.7981 84.9697 47.379C84.9697 40.9598 85.8496 37.2743 88.6505 37.2743C91.4887 37.2743 92.3686 40.9598 92.3686 47.379C92.3686 53.7859 91.4887 57.4837 88.6505 57.4837ZM88.6505 36.6641C82.9991 36.6641 78.8969 41.1184 78.8969 47.3668C78.8969 53.6151 82.9991 58.0694 88.6505 58.0694C94.302 58.0694 98.4414 53.6151 98.4414 47.3668C98.4414 41.1184 94.302 36.6641 88.6505 36.6641Z" fill="#BABDA6"/>
<path d="M113.189 37.0161C114.788 37.7849 115.42 39.0419 115.42 41.8V49.0612L107.054 36.9551H99.6553V37.0161C100.895 37.8215 101.13 38.566 101.13 40.5186V53.479C101.13 55.6512 100.498 56.896 99.1348 57.7015V57.7625H104.328V57.7015C102.729 56.9326 102.06 55.6756 102.06 52.9176V39.7253L114.651 57.8601H116.374V41.2386C116.374 39.0663 116.981 37.8215 118.332 37.0161V36.9551H113.164V37.0161H113.189Z" fill="#BABDA6"/>
<path d="M113.189 37.0161C114.788 37.7849 115.42 39.0419 115.42 41.8V49.0612L107.054 36.9551H99.6553V37.0161C100.895 37.8215 101.13 38.566 101.13 40.5186V53.479C101.13 55.6512 100.498 56.896 99.1348 57.7015V57.7625H104.328V57.7015C102.729 56.9326 102.06 55.6756 102.06 52.9176V39.7253L114.651 57.8601H116.374V41.2386C116.374 39.0663 116.981 37.8215 118.332 37.0161V36.9551H113.164V37.0161H113.189Z" fill="#BABDA6"/>
<path d="M66.7396 4.50619C66.7396 6.25132 66.1199 7.55713 65.2028 8.47241C66.1571 8.61885 67.0866 9.04598 67.8426 9.80262C68.6482 10.5959 69.0944 11.6088 69.082 12.6339C69.0696 13.72 68.5738 14.7573 67.6443 15.636C67.2105 16.0509 66.6652 16.356 66.0703 16.6001L66.3678 16.7832C66.7644 17.0761 66.8511 17.1615 67.1858 17.4544C68.7721 18.8578 69.6025 20.8958 69.6149 23.3488C69.6149 23.898 69.5653 24.4471 69.4662 24.9719L72.5769 32.6358H72.8124L80.1246 11.9017L87.3996 32.6358H87.635L97.1781 5.97064C98.1943 3.13937 99.3593 1.41864 100.97 0.369114V0.283688H93.3733V0.369114C95.1827 1.18677 95.9635 2.41934 95.9635 3.92041C95.9635 4.555 95.8272 5.23841 95.5917 5.97064L90.8202 19.7853L86.2842 5.5069C85.9619 4.555 85.776 3.77396 85.776 3.04174C85.776 1.90679 86.3337 1.07693 87.5359 0.356911V0.271484H74.7086V0.356911C76.1958 1.45525 76.8899 2.67562 77.8566 5.37265L79.4801 9.92465L76.1463 19.59L71.0525 5.5069C70.7303 4.555 70.4948 3.72515 70.4948 2.95631C70.4948 1.85797 71.003 1.04032 72.1184 0.356911V0.271484H63.7156C65.3019 1.02812 66.7396 2.70003 66.7396 4.50619Z" fill="#BABDA6"/>
<path d="M66.7396 4.50619C66.7396 6.25132 66.1199 7.55713 65.2028 8.47241C66.1571 8.61885 67.0866 9.04598 67.8426 9.80262C68.6482 10.5959 69.0944 11.6088 69.082 12.6339C69.0696 13.72 68.5738 14.7573 67.6443 15.636C67.2105 16.0509 66.6652 16.356 66.0703 16.6001L66.3678 16.7832C66.7644 17.0761 66.8511 17.1615 67.1858 17.4544C68.7721 18.8578 69.6025 20.8958 69.6149 23.3488C69.6149 23.898 69.5653 24.4471 69.4662 24.9719L72.5769 32.6358H72.8124L80.1246 11.9017L87.3996 32.6358H87.635L97.1781 5.97064C98.1943 3.13937 99.3593 1.41864 100.97 0.369114V0.283688H93.3733V0.369114C95.1827 1.18677 95.9635 2.41934 95.9635 3.92041C95.9635 4.555 95.8272 5.23841 95.5917 5.97064L90.8202 19.7853L86.2842 5.5069C85.9619 4.555 85.776 3.77396 85.776 3.04174C85.776 1.90679 86.3337 1.07693 87.5359 0.356911V0.271484H74.7086V0.356911C76.1958 1.45525 76.8899 2.67562 77.8566 5.37265L79.4801 9.92465L76.1463 19.59L71.0525 5.5069C70.7303 4.555 70.4948 3.72515 70.4948 2.95631C70.4948 1.85797 71.003 1.04032 72.1184 0.356911V0.271484H63.7156C65.3019 1.02812 66.7396 2.70003 66.7396 4.50619Z" fill="#BABDA6"/>
<path d="M43.3761 7.94774V17.5643C43.7727 16.8077 44.2684 16.0876 44.8385 15.453V13.6469V7.94774C44.8385 3.76185 45.8052 1.87027 48.222 0.698707V0.613281H47.8006H40.3893H39.9679V0.698707C42.4218 1.87027 43.3761 3.76185 43.3761 7.94774Z" fill="#BABDA6"/>
<path d="M43.3761 7.94774V17.5643C43.7727 16.8077 44.2684 16.0876 44.8385 15.453V13.6469V7.94774C44.8385 3.76185 45.8052 1.87027 48.222 0.698707V0.613281H47.8006H40.3893H39.9679V0.698707C42.4218 1.87027 43.3761 3.76185 43.3761 7.94774Z" fill="#BABDA6"/>
<path d="M25.8647 32.5265C23.386 31.3305 22.3574 29.4023 22.3574 25.1188V4.54328L41.8524 32.6241H44.517V30.94C44.4922 30.9034 44.455 30.879 44.4302 30.8424C42.0631 28.1209 41.2079 24.4964 41.8276 21.0428C41.9887 20.1519 42.2614 19.2732 42.6208 18.419L30.0785 0.259766H18.6269V0.357396C20.5479 1.60218 20.9197 2.74933 20.9197 5.78807V25.9975C20.9197 29.3535 19.9406 31.2939 17.8337 32.5387V32.6363H25.8771V32.5265H25.8647Z" fill="#BABDA6"/>
<path d="M25.8647 32.5265C23.386 31.3305 22.3574 29.4023 22.3574 25.1188V4.54328L41.8524 32.6241H44.517V30.94C44.4922 30.9034 44.455 30.879 44.4302 30.8424C42.0631 28.1209 41.2079 24.4964 41.8276 21.0428C41.9887 20.1519 42.2614 19.2732 42.6208 18.419L30.0785 0.259766H18.6269V0.357396C20.5479 1.60218 20.9197 2.74933 20.9197 5.78807V25.9975C20.9197 29.3535 19.9406 31.2939 17.8337 32.5387V32.6363H25.8771V32.5265H25.8647Z" fill="#BABDA6"/>
<path d="M47.6654 6.53089C47.6778 6.72615 47.7026 6.92142 47.7522 7.11668C47.9505 8.06857 48.3594 8.97165 49.0659 9.66726C49.8095 10.4117 50.8381 10.9487 51.8048 11.3514C52.945 11.8395 54.2092 12.169 55.4609 12.169C52.2634 12.169 48.7808 13.4138 46.3641 15.464C42.7204 18.5638 42.3114 24.3362 44.6538 28.3146C47.2812 32.8056 53.354 33.5378 58.076 32.8422C62.9838 32.11 68.1271 28.461 68.1271 23.128C68.1271 18.9055 65.227 16.0254 59.4888 16.6234C61.7073 16.2207 65.0907 16.1841 66.5531 14.805C67.9536 13.487 67.8916 11.8639 66.7266 10.7168C65.1898 9.20352 62.6987 9.44759 61.3107 10.7656C61.4222 10.668 61.9303 10.8022 62.0543 10.8388C62.3269 10.912 62.5748 11.0463 62.7979 11.2171C63.1945 11.5222 63.5043 11.9128 63.5415 12.4253C63.5787 12.9501 63.3308 13.3894 62.959 13.7433C62.1162 14.5732 61.1743 15.0247 59.9722 15.5373C58.6708 16.0864 57.3943 16.5502 56.2045 17.2946C55.1139 17.978 54.1844 18.9177 53.5647 20.0527C52.722 21.6147 52.5361 23.5063 53.2177 25.1538C54.0976 27.2895 56.787 29.3397 59.2162 28.278C60.1457 27.8631 60.8273 27.0576 61.0132 26.0691C61.2239 24.922 60.8645 23.6772 60.0217 22.8473C60.0713 22.8961 59.9846 23.3355 59.9598 23.3843C59.4268 25.2515 57.2704 25.9349 55.5353 25.4223C54.4942 25.1172 53.7506 24.2141 53.6515 23.128C53.5647 22.0419 54.2092 20.9679 55.1139 20.3822C55.9195 19.8574 57.1464 19.8086 58.076 19.8818C59.117 19.9672 60.1457 20.2967 61.0256 20.8581C62.141 21.5659 63.0086 22.6154 63.5167 23.8114C64.0744 25.1416 64.0744 26.5573 63.5663 27.9119C63.5415 27.9729 63.5167 28.0339 63.4919 28.0949C61.732 32.3174 54.9652 32.1954 52.0279 29.4007C49.289 26.8013 48.8304 22.5666 50.0945 19.1496C50.3672 18.4051 50.7018 17.5997 51.1604 16.9529C52.0899 15.6105 53.3168 14.4877 54.7297 13.6457C55.3246 13.2918 55.9567 12.9867 56.6135 12.7426C56.9481 12.6206 57.2828 12.5107 57.6298 12.4131C57.9396 12.3277 58.4973 12.1812 58.5841 12.1812C58.3362 12.1812 58.076 12.0714 57.8405 11.9982C57.5554 11.9128 57.2704 11.8029 57.0101 11.6687C56.1178 11.2049 55.4361 10.4483 54.9404 9.59404C54.6925 9.16691 54.4818 8.70316 54.3207 8.22722C54.1596 7.73907 54.0109 7.1899 53.9489 6.67734C53.8498 5.94512 53.9117 5.18848 54.1348 4.48066C54.519 3.19927 55.3866 2.19856 56.502 1.47854C56.7746 1.29548 57.0721 1.13684 57.3695 1.00259C58.6585 0.392406 60.5671 0.79513 61.2859 2.08873C61.5833 2.6379 61.6949 3.2847 61.5957 3.89488C61.4842 4.56609 61.1248 5.16407 60.6414 5.64002C60.1581 6.11597 59.5508 6.51869 58.9187 6.75056C58.6461 6.84819 58.3734 6.93362 58.0884 6.98243C57.8033 7.03125 57.5802 7.06786 57.2952 7.01905C57.2208 7.00684 57.0721 6.94582 56.9853 6.8726C57.4315 8.04416 58.6213 9.13029 60.9513 9.08148C63.1201 9.08148 65.3633 7.80009 65.3633 4.77355C65.3633 3.11384 64.0496 1.97889 62.6987 1.17345C60.7158 0.00188589 58.77 -0.0103177 56.7375 0.00188606C54.6677 0.00188606 52.3378 0.233757 50.5035 1.23447C48.5577 2.3084 47.5043 4.33422 47.6654 6.53089Z" fill="#BABDA6"/>
<path d="M47.6654 6.53089C47.6778 6.72615 47.7026 6.92142 47.7522 7.11668C47.9505 8.06857 48.3594 8.97165 49.0659 9.66726C49.8095 10.4117 50.8381 10.9487 51.8048 11.3514C52.945 11.8395 54.2092 12.169 55.4609 12.169C52.2634 12.169 48.7808 13.4138 46.3641 15.464C42.7204 18.5638 42.3114 24.3362 44.6538 28.3146C47.2812 32.8056 53.354 33.5378 58.076 32.8422C62.9838 32.11 68.1271 28.461 68.1271 23.128C68.1271 18.9055 65.227 16.0254 59.4888 16.6234C61.7073 16.2207 65.0907 16.1841 66.5531 14.805C67.9536 13.487 67.8916 11.8639 66.7266 10.7168C65.1898 9.20352 62.6987 9.44759 61.3107 10.7656C61.4222 10.668 61.9303 10.8022 62.0543 10.8388C62.3269 10.912 62.5748 11.0463 62.7979 11.2171C63.1945 11.5222 63.5043 11.9128 63.5415 12.4253C63.5787 12.9501 63.3308 13.3894 62.959 13.7433C62.1162 14.5732 61.1743 15.0247 59.9722 15.5373C58.6708 16.0864 57.3943 16.5502 56.2045 17.2946C55.1139 17.978 54.1844 18.9177 53.5647 20.0527C52.722 21.6147 52.5361 23.5063 53.2177 25.1538C54.0976 27.2895 56.787 29.3397 59.2162 28.278C60.1457 27.8631 60.8273 27.0576 61.0132 26.0691C61.2239 24.922 60.8645 23.6772 60.0217 22.8473C60.0713 22.8961 59.9846 23.3355 59.9598 23.3843C59.4268 25.2515 57.2704 25.9349 55.5353 25.4223C54.4942 25.1172 53.7506 24.2141 53.6515 23.128C53.5647 22.0419 54.2092 20.9679 55.1139 20.3822C55.9195 19.8574 57.1464 19.8086 58.076 19.8818C59.117 19.9672 60.1457 20.2967 61.0256 20.8581C62.141 21.5659 63.0086 22.6154 63.5167 23.8114C64.0744 25.1416 64.0744 26.5573 63.5663 27.9119C63.5415 27.9729 63.5167 28.0339 63.4919 28.0949C61.732 32.3174 54.9652 32.1954 52.0279 29.4007C49.289 26.8013 48.8304 22.5666 50.0945 19.1496C50.3672 18.4051 50.7018 17.5997 51.1604 16.9529C52.0899 15.6105 53.3168 14.4877 54.7297 13.6457C55.3246 13.2918 55.9567 12.9867 56.6135 12.7426C56.9481 12.6206 57.2828 12.5107 57.6298 12.4131C57.9396 12.3277 58.4973 12.1812 58.5841 12.1812C58.3362 12.1812 58.076 12.0714 57.8405 11.9982C57.5554 11.9128 57.2704 11.8029 57.0101 11.6687C56.1178 11.2049 55.4361 10.4483 54.9404 9.59404C54.6925 9.16691 54.4818 8.70316 54.3207 8.22722C54.1596 7.73907 54.0109 7.1899 53.9489 6.67734C53.8498 5.94512 53.9117 5.18848 54.1348 4.48066C54.519 3.19927 55.3866 2.19856 56.502 1.47854C56.7746 1.29548 57.0721 1.13684 57.3695 1.00259C58.6585 0.392406 60.5671 0.79513 61.2859 2.08873C61.5833 2.6379 61.6949 3.2847 61.5957 3.89488C61.4842 4.56609 61.1248 5.16407 60.6414 5.64002C60.1581 6.11597 59.5508 6.51869 58.9187 6.75056C58.6461 6.84819 58.3734 6.93362 58.0884 6.98243C57.8033 7.03125 57.5802 7.06786 57.2952 7.01905C57.2208 7.00684 57.0721 6.94582 56.9853 6.8726C57.4315 8.04416 58.6213 9.13029 60.9513 9.08148C63.1201 9.08148 65.3633 7.80009 65.3633 4.77355C65.3633 3.11384 64.0496 1.97889 62.6987 1.17345C60.7158 0.00188589 58.77 -0.0103177 56.7375 0.00188606C54.6677 0.00188606 52.3378 0.233757 50.5035 1.23447C48.5577 2.3084 47.5043 4.33422 47.6654 6.53089Z" fill="#BABDA6"/>
<path d="M117.292 67.887C117.528 67.8015 117.726 67.6795 117.887 67.5208C118.036 67.3744 118.16 67.1914 118.246 66.9839C118.333 66.7764 118.37 66.5323 118.37 66.2639V63.1275H118.011V63.8719C117.937 63.7621 117.838 63.6645 117.738 63.5546C117.639 63.457 117.515 63.3594 117.391 63.2861C117.267 63.2129 117.119 63.1519 116.958 63.1031C116.796 63.0543 116.623 63.0299 116.437 63.0299C116.214 63.0299 115.991 63.0665 115.768 63.1519C115.545 63.2373 115.359 63.3472 115.185 63.5058C115.012 63.6645 114.875 63.8475 114.776 64.0672C114.677 64.2869 114.615 64.5309 114.615 64.7994V64.8116C114.615 65.0801 114.665 65.3242 114.776 65.5316C114.875 65.7391 115.012 65.9222 115.185 66.0808C115.359 66.2395 115.545 66.3493 115.768 66.4347C115.978 66.5201 116.202 66.5568 116.437 66.5568C116.623 66.5568 116.796 66.5323 116.958 66.4835C117.119 66.4347 117.255 66.3737 117.391 66.2883C117.515 66.2028 117.639 66.1174 117.738 66.0198C117.838 65.9222 117.937 65.8123 118.023 65.6903V66.2273C118.023 66.4591 117.986 66.6788 117.912 66.8496C117.838 67.0327 117.738 67.1791 117.602 67.3012C117.466 67.4232 117.317 67.5086 117.131 67.5697C116.945 67.6307 116.747 67.6551 116.536 67.6551C115.978 67.6551 115.47 67.4842 115.012 67.1303L114.801 67.4232C115.322 67.8015 115.892 67.9968 116.536 67.9968C116.796 68.009 117.057 67.9724 117.292 67.887ZM115.904 66.1052C115.731 66.032 115.569 65.9344 115.433 65.8123C115.297 65.6903 115.198 65.5438 115.111 65.3608C115.037 65.1899 114.987 64.9947 114.987 64.7872V64.775C114.987 64.5553 115.024 64.3601 115.099 64.1892C115.173 64.0184 115.284 63.8719 115.408 63.7499C115.545 63.6279 115.693 63.5302 115.879 63.4692C116.053 63.4082 116.239 63.3716 116.437 63.3716C116.635 63.3716 116.821 63.4082 117.02 63.4692C117.205 63.5302 117.379 63.6279 117.515 63.7499C117.664 63.8719 117.776 64.0184 117.862 64.2014C117.949 64.3723 117.999 64.5675 117.999 64.7872V64.7994C117.999 65.0069 117.949 65.2021 117.862 65.373C117.776 65.5438 117.652 65.6903 117.515 65.8123C117.367 65.9344 117.205 66.032 117.02 66.1052C116.834 66.1784 116.635 66.2028 116.437 66.2028C116.276 66.215 116.09 66.1784 115.904 66.1052ZM106.076 66.8374H106.435V64.6896C106.435 64.4943 106.473 64.3235 106.535 64.1526C106.597 63.994 106.696 63.8475 106.807 63.7377C106.931 63.6156 107.068 63.5302 107.216 63.4692C107.377 63.4082 107.551 63.3716 107.737 63.3716C108.121 63.3716 108.418 63.4814 108.629 63.7133C108.84 63.9451 108.939 64.2502 108.939 64.6286V66.8374H109.298V64.5553C109.298 64.3357 109.261 64.1282 109.199 63.9452C109.137 63.7621 109.038 63.5912 108.902 63.457C108.765 63.3228 108.617 63.2129 108.431 63.1397C108.245 63.0665 108.034 63.0299 107.799 63.0299C107.452 63.0299 107.167 63.1031 106.956 63.2495C106.733 63.396 106.572 63.579 106.435 63.7987V63.1031H106.076V66.8374ZM100.003 62.1512H100.449V61.663H100.003V62.1512ZM100.04 66.8374H100.4V63.1275H100.04V66.8374ZM92.7406 66.8619H93.0505L94.7484 63.1275H94.3394L92.9018 66.4347L91.4765 63.1153H91.0551L92.7406 66.8619ZM85.3541 62.1512H85.8003V61.663H85.3541V62.1512ZM85.3913 66.8374H85.7507V63.1275H85.3913V66.8374ZM79.3061 66.8374H79.6655V61.5288H79.3061V66.8374ZM65.351 67.7771C65.5493 67.6185 65.7352 67.35 65.8963 66.9595L67.5322 63.1153H67.1356L65.7724 66.4347L64.2108 63.1153H63.7894L65.5989 66.8008C65.5245 66.9595 65.4625 67.0937 65.3882 67.2036C65.3138 67.3134 65.2518 67.411 65.1775 67.472C65.1031 67.5453 65.0288 67.5941 64.942 67.6185C64.8552 67.6429 64.7685 67.6673 64.6693 67.6673C64.5206 67.6673 64.4091 67.6551 64.3099 67.6307C64.2108 67.6063 64.124 67.5697 64.0249 67.5208L63.9009 67.8382C64.0249 67.887 64.1488 67.9358 64.2604 67.9602C64.3719 67.9846 64.4958 67.9968 64.6446 67.9968C64.9172 68.0212 65.1527 67.9358 65.351 67.7771ZM57.6422 66.7886C57.8653 66.7032 58.0512 66.569 58.2247 66.3981C58.3982 66.2273 58.5346 66.032 58.6461 65.7879C58.7576 65.5438 58.8072 65.2754 58.8072 64.9825V64.9703C58.8072 64.6652 58.7576 64.3967 58.6461 64.1648C58.5346 63.9207 58.3982 63.7255 58.2247 63.5546C58.0512 63.3838 57.8529 63.2617 57.6422 63.1763C57.4191 63.0909 57.1961 63.0421 56.973 63.0421C56.7871 63.0421 56.6136 63.0665 56.4648 63.1153C56.3037 63.1641 56.1674 63.2373 56.0435 63.3106C55.9195 63.396 55.808 63.4936 55.6964 63.6034C55.5973 63.7133 55.4981 63.8353 55.4238 63.9574V61.5288H55.0644V66.8374H55.4238V66.032C55.4981 66.154 55.5973 66.2639 55.6964 66.3615C55.7956 66.4713 55.9071 66.5568 56.0311 66.6422C56.155 66.7276 56.3037 66.7886 56.4524 66.8374C56.6136 66.8863 56.7871 66.9107 56.973 66.9107C57.1961 66.9229 57.4191 66.8741 57.6422 66.7886ZM56.3657 66.4591C56.1798 66.3859 56.0187 66.2761 55.8699 66.1296C55.7212 65.9954 55.6097 65.8245 55.5229 65.6293C55.4362 65.434 55.399 65.2143 55.399 64.9825V64.9703C55.399 64.7384 55.4362 64.5187 55.5229 64.3235C55.6097 64.1282 55.7212 63.9574 55.8699 63.8231C56.0187 63.6767 56.1798 63.579 56.3657 63.4936C56.5516 63.4204 56.7375 63.3716 56.9358 63.3716C57.1341 63.3716 57.32 63.4082 57.5059 63.4814C57.6918 63.5546 57.8405 63.6645 57.9768 63.7987C58.1132 63.9329 58.2247 64.1038 58.2991 64.2991C58.3734 64.4943 58.423 64.714 58.423 64.9581V64.9703C58.423 65.2143 58.3858 65.434 58.3115 65.6415C58.2371 65.8367 58.1256 66.0076 58.0016 66.1418C57.8653 66.2761 57.7166 66.3859 57.5307 66.4591C57.3448 66.5323 57.1589 66.569 56.9482 66.569C56.7375 66.5812 56.5516 66.5323 56.3657 66.4591ZM39.808 66.8374H40.1674V64.6896C40.1674 64.4943 40.2045 64.3235 40.2665 64.1526C40.3285 63.994 40.4276 63.8475 40.5392 63.7377C40.6631 63.6156 40.7994 63.5302 40.9482 63.4692C41.1093 63.4082 41.2828 63.3716 41.4687 63.3716C41.8529 63.3716 42.1503 63.4814 42.361 63.7133C42.5717 63.9451 42.6709 64.2502 42.6709 64.6286V66.8374H43.0303V64.5553C43.0303 64.3357 42.9931 64.1282 42.9311 63.9452C42.8692 63.7621 42.77 63.5912 42.6337 63.457C42.4973 63.3228 42.3486 63.2129 42.1627 63.1397C41.9768 63.0665 41.7661 63.0299 41.5307 63.0299C41.1836 63.0299 40.8986 63.1031 40.6879 63.2495C40.4648 63.396 40.3037 63.579 40.1674 63.7987V63.1031H39.808V66.8374ZM33.7351 66.7154C33.983 66.5812 34.1937 66.4103 34.392 66.215L34.1441 65.9954C33.983 66.1662 33.8095 66.3005 33.5988 66.4103C33.3881 66.5201 33.1402 66.5812 32.8428 66.5812C32.6569 66.5812 32.471 66.5445 32.3099 66.4835C32.1364 66.4225 31.9877 66.3249 31.8513 66.2028C31.715 66.0808 31.6035 65.9222 31.5167 65.7513C31.4299 65.5682 31.3804 65.373 31.3556 65.1411H34.4787C34.4787 65.1167 34.4911 65.0923 34.4911 65.0679V64.9947C34.4911 64.714 34.454 64.4577 34.3672 64.2258C34.2805 63.994 34.1689 63.7865 34.0202 63.6156C33.8715 63.4448 33.6856 63.2984 33.4749 63.2007C33.2642 63.1031 33.0287 63.0543 32.7561 63.0543C32.4958 63.0543 32.2603 63.1031 32.0496 63.2129C31.8389 63.3106 31.6406 63.457 31.4795 63.6279C31.3184 63.7987 31.1945 64.0062 31.1077 64.238C31.021 64.4699 30.9714 64.7262 30.9714 64.9947V65.0069C30.9714 65.2998 31.021 65.5683 31.1201 65.8001C31.2193 66.032 31.3556 66.2395 31.5291 66.4103C31.7026 66.5812 31.9009 66.7154 32.124 66.8008C32.3471 66.8985 32.5825 66.9351 32.8304 66.9351C33.1898 66.9229 33.4997 66.8496 33.7351 66.7154ZM31.368 64.7994C31.3804 64.592 31.4299 64.4089 31.5043 64.2258C31.5787 64.0428 31.6778 63.8963 31.8018 63.7621C31.9257 63.6279 32.062 63.5302 32.2231 63.457C32.3842 63.3838 32.5578 63.3472 32.7437 63.3472C32.9667 63.3472 33.1526 63.3838 33.3138 63.4692C33.4749 63.5546 33.6112 63.6523 33.7227 63.7865C33.8343 63.9207 33.921 64.0672 33.983 64.2502C34.045 64.4211 34.0822 64.6042 34.0946 64.7872H31.368V64.7994ZM23.9938 66.8619H24.3037L26.0016 63.1275H25.5926L24.155 66.4347L22.7297 63.1275H22.3083L23.9938 66.8619ZM16.5949 62.1512H17.0411V61.663H16.5949V62.1512ZM16.6445 66.8374H17.0039V63.1275H16.6445V66.8374ZM9.38189 66.8374H9.7413V65.312C9.7413 65.0069 9.79087 64.7506 9.87763 64.5187C9.96438 64.2869 10.0883 64.0916 10.237 63.933C10.3858 63.7743 10.5593 63.6523 10.7576 63.579C10.9559 63.4936 11.1666 63.457 11.3772 63.457H11.4144V63.0665C11.2285 63.0665 11.0426 63.0787 10.8815 63.1397C10.708 63.1885 10.5593 63.2617 10.4105 63.3594C10.2618 63.457 10.1379 63.579 10.0264 63.7255C9.91481 63.8719 9.81566 64.0184 9.7413 64.1892V63.1397H9.38189V66.8374ZM2.35477 66.8374C2.51588 66.7886 2.65221 66.7154 2.77615 66.6422C2.90008 66.5568 3.01162 66.4591 3.11077 66.3493C3.20992 66.2395 3.30907 66.1174 3.38343 65.9954V66.8252H3.74284V61.5166H3.38343V63.9207C3.30907 63.7987 3.20992 63.6889 3.11077 63.5912C3.01162 63.4814 2.90008 63.396 2.77615 63.3106C2.65221 63.2251 2.50349 63.1641 2.35477 63.1153C2.19365 63.0665 2.02014 63.0421 1.83424 63.0421C1.61116 63.0421 1.38807 63.0909 1.16499 63.1763C0.941907 63.2617 0.743611 63.396 0.582495 63.5668C0.408986 63.7377 0.272657 63.933 0.161116 64.177C0.0495742 64.4211 0 64.6896 0 64.9825V64.9947C0 65.2998 0.0495742 65.5683 0.161116 65.8001C0.272657 66.0442 0.408986 66.2395 0.582495 66.4103C0.756004 66.5812 0.9543 66.7032 1.16499 66.7886C1.37568 66.8741 1.61116 66.9229 1.83424 66.9229C2.03254 66.9229 2.20605 66.8985 2.35477 66.8374ZM1.31371 66.4591C1.12781 66.3859 0.979088 66.2761 0.842759 66.1418C0.70643 66.0076 0.594889 65.8367 0.520528 65.6415C0.446166 65.4462 0.396592 65.2265 0.396592 64.9825V64.9703C0.396592 64.7262 0.433773 64.5065 0.508134 64.2991C0.582495 64.1038 0.694037 63.9329 0.817972 63.7987C0.9543 63.6645 1.10302 63.5546 1.28893 63.4814C1.47483 63.4082 1.66073 63.3716 1.87142 63.3716C2.06972 63.3716 2.25562 63.4082 2.44152 63.4936C2.62742 63.5668 2.78854 63.6767 2.93726 63.8231C3.08598 63.9574 3.19753 64.1282 3.28428 64.3235C3.37104 64.5187 3.40822 64.7384 3.40822 64.9703V64.9825C3.40822 65.2143 3.37104 65.434 3.28428 65.6293C3.19753 65.8245 3.08598 65.9954 2.93726 66.1296C2.78854 66.2761 2.62742 66.3737 2.44152 66.4591C2.25562 66.5323 2.06972 66.5812 1.87142 66.5812C1.68552 66.5812 1.48722 66.5445 1.31371 66.4591Z" fill="white"/>
</svg>
