<svg width="28" height="26" viewBox="0 0 28 26" fill="none" xmlns="http://www.w3.org/2000/svg">
<path d="M12.6 14.4208L10.436 12.2771C10.2514 12.0925 10.0227 11.998 9.75004 11.9938C9.47737 11.9896 9.23759 12.0908 9.0307 12.2975C8.83759 12.4908 8.74104 12.725 8.74104 13.0001C8.74104 13.2752 8.83759 13.5095 9.0307 13.7028L11.7564 16.4285C11.9975 16.6693 12.2787 16.7898 12.6 16.7898C12.9214 16.7898 13.2026 16.6693 13.4437 16.4285L18.9694 10.9028C19.1676 10.7043 19.2654 10.4722 19.2627 10.2065C19.2603 9.94067 19.1625 9.70434 18.9694 9.49745C18.7625 9.29079 18.5248 9.18401 18.2564 9.17712C17.9881 9.17023 17.7506 9.27023 17.5437 9.47712L12.6 14.4208ZM9.21304 25.2438L7.36937 22.1438L3.88204 21.3948C3.58293 21.3368 3.34404 21.1796 3.16537 20.9231C2.9867 20.6667 2.91537 20.3889 2.95137 20.0898L3.29237 16.5028L0.920704 13.7898C0.715593 13.5711 0.613037 13.3079 0.613037 13.0001C0.613037 12.6923 0.715593 12.4291 0.920704 12.2105L3.29237 9.49745L2.95137 5.91045C2.91537 5.61134 2.9867 5.33356 3.16537 5.07712C3.34404 4.82068 3.58293 4.66345 3.88204 4.60545L7.36937 3.85645L9.21304 0.756453C9.3737 0.493342 9.59248 0.313896 9.86937 0.218119C10.1463 0.122341 10.4275 0.136896 10.713 0.261785L14 1.65145L17.287 0.261785C17.5726 0.136896 17.8538 0.122341 18.1307 0.218119C18.4076 0.313896 18.6264 0.493342 18.787 0.756453L20.6307 3.85645L24.118 4.60545C24.4171 4.66345 24.656 4.82068 24.8347 5.07712C25.0134 5.33356 25.0847 5.61134 25.0487 5.91045L24.7077 9.49745L27.0794 12.2105C27.2845 12.4291 27.387 12.6923 27.387 13.0001C27.387 13.3079 27.2845 13.5711 27.0794 13.7898L24.7077 16.5028L25.0487 20.0898C25.0847 20.3889 25.0134 20.6667 24.8347 20.9231C24.656 21.1796 24.4171 21.3368 24.118 21.3948L20.6307 22.1438L18.787 25.2438C18.6264 25.5069 18.4076 25.6863 18.1307 25.7821C17.8538 25.8779 17.5726 25.8633 17.287 25.7385L14 24.3488L10.713 25.7385C10.4275 25.8633 10.1463 25.8779 9.86937 25.7821C9.59248 25.6863 9.3737 25.5069 9.21304 25.2438Z" fill="#B4A699"/>
</svg>
