<svg width="28" height="28" viewBox="0 0 28 28" fill="none" xmlns="http://www.w3.org/2000/svg">
<path d="M14.0026 28C12.0662 28 10.246 27.6326 8.54221 26.8977C6.83839 26.1628 5.35635 25.1655 4.0961 23.9057C2.83586 22.646 1.83805 21.1646 1.10268 19.4615C0.367561 17.7584 0 15.9388 0 14.0026C0 12.0662 0.367438 10.246 1.10232 8.54221C1.83719 6.83839 2.83451 5.35635 4.09426 4.0961C5.35402 2.83586 6.83544 1.83805 8.53853 1.10268C10.2416 0.367561 12.0612 0 13.9974 0C15.9338 0 17.754 0.367438 19.4578 1.10232C21.1616 1.83719 22.6436 2.83451 23.9039 4.09426C25.1641 5.35402 26.1619 6.83544 26.8973 8.53853C27.6324 10.2416 28 12.0612 28 13.9974C28 15.9338 27.6326 17.754 26.8977 19.4578C26.1628 21.1616 25.1655 22.6436 23.9057 23.9039C22.646 25.1641 21.1646 26.1619 19.4615 26.8973C17.7584 27.6324 15.9388 28 14.0026 28ZM14 25.7895L12.9684 24.7579C12.8211 24.6105 12.7105 24.4509 12.6368 24.2789C12.5632 24.107 12.5263 23.9228 12.5263 23.7263V15.4737C11.7158 15.4737 11.0219 15.1851 10.4447 14.6079C9.86754 14.0307 9.57895 13.3368 9.57895 12.5263V11.0526L4.97368 6.44737C4.11403 7.47895 3.4386 8.63333 2.94737 9.91053C2.45614 11.1877 2.21053 12.5509 2.21053 14C2.21053 17.2912 3.35263 20.0789 5.63684 22.3632C7.92105 24.6474 10.7088 25.7895 14 25.7895ZM15.4737 25.7158C18.3965 25.3474 20.8465 24.0579 22.8237 21.8474C24.8009 19.6368 25.7895 17.0211 25.7895 14C25.7895 10.7333 24.6412 7.95175 22.3447 5.65526C20.0482 3.35877 17.2667 2.21053 14 2.21053C12.9193 2.21053 11.8816 2.35175 10.8868 2.63421C9.89211 2.91667 8.96491 3.30351 8.10526 3.79474V6.63158H13.3368C13.7789 6.63158 14.2026 6.72982 14.6079 6.92632C15.0132 7.12281 15.3509 7.39298 15.6211 7.73684L17.6842 10.3158H19.8947C20.3123 10.3158 20.6623 10.457 20.9447 10.7395C21.2272 11.0219 21.3684 11.3719 21.3684 11.7895V13.3368C21.3684 13.5579 21.3377 13.7667 21.2763 13.9632C21.2149 14.1596 21.1228 14.3561 21 14.5526L15.4737 22.8421V25.7158Z" fill="#B4A699"/>
</svg>
