<svg width="26" height="25" viewBox="0 0 26 25" fill="none" xmlns="http://www.w3.org/2000/svg">
<path d="M5.71808 12.5464C6.28742 11.1822 6.95619 9.87574 7.72442 8.62708C8.49286 7.37841 9.34975 6.19252 10.2951 5.06941L8.48475 4.68974C8.08297 4.60952 7.69242 4.62752 7.31308 4.74374C6.93353 4.85997 6.60097 5.06085 6.31542 5.34641L2.35908 9.30274C2.05997 9.60186 1.94719 9.96341 2.02075 10.3874C2.09408 10.8112 2.33164 11.1034 2.73342 11.2641L5.71808 12.5464ZM23.8691 0.148744C21.6675 0.114744 19.5825 0.570299 17.6141 1.51541C15.6459 2.46074 13.884 3.71119 12.3284 5.26674C11.33 6.26497 10.4487 7.34786 9.68475 8.51541C8.92053 9.68297 8.24697 10.9086 7.66408 12.1924C7.55297 12.4557 7.49742 12.7245 7.49742 12.9987C7.49742 13.2732 7.59997 13.513 7.80508 13.7181L11.6001 17.5001C11.8052 17.7052 12.0427 17.8099 12.3127 17.8141C12.583 17.8183 12.8496 17.7649 13.1128 17.6537C14.3965 17.0795 15.6222 16.4061 16.7898 15.6334C17.9573 14.8607 19.0402 13.9753 20.0384 12.9771C21.594 11.4215 22.8444 9.65952 23.7898 7.69108C24.7351 5.72285 25.1906 3.63786 25.1564 1.43608C25.1564 1.27541 25.1205 1.11897 25.0488 0.966743C24.977 0.814743 24.8786 0.676298 24.7538 0.551409C24.6291 0.426742 24.4906 0.32841 24.3384 0.25641C24.1864 0.184632 24.03 0.148744 23.8691 0.148744ZM15.9794 9.32574C15.5283 8.87441 15.3028 8.32352 15.3028 7.67308C15.3028 7.02263 15.5283 6.47185 15.9794 6.02074C16.4307 5.56941 16.9816 5.34374 17.6321 5.34374C18.2825 5.34374 18.8334 5.56941 19.2847 6.02074C19.7359 6.47185 19.9614 7.02263 19.9614 7.67308C19.9614 8.32352 19.7359 8.87441 19.2847 9.32574C18.8334 9.77708 18.2825 10.0027 17.6321 10.0027C16.9816 10.0027 16.4307 9.77708 15.9794 9.32574ZM12.7461 19.5871L14.0281 22.5717C14.189 22.9735 14.4813 23.2145 14.9051 23.2947C15.3291 23.3752 15.6906 23.2659 15.9897 22.9667L19.9461 19.0104C20.2316 18.7249 20.4325 18.3867 20.5488 17.9961C20.665 17.6056 20.6829 17.2095 20.6024 16.8077L20.2438 15.0104C19.1069 15.9555 17.9175 16.8123 16.6758 17.5807C15.4338 18.3492 14.1239 19.018 12.7461 19.5871ZM3.13075 17.4641C3.78053 16.8145 4.56908 16.4885 5.49642 16.4861C6.42375 16.4834 7.21219 16.8069 7.86175 17.4564C8.51131 18.106 8.83608 18.8944 8.83608 19.8217C8.83608 20.7491 8.51131 21.5375 7.86175 22.1871C6.9573 23.0915 5.89064 23.6415 4.66175 23.8371C3.43264 24.0329 2.19586 24.2051 0.951416 24.3537C1.10008 23.1009 1.27786 21.862 1.48475 20.6371C1.69164 19.4124 2.2403 18.3547 3.13075 17.4641Z" fill="#B4A699"/>
</svg>
