<svg width="32" height="32" viewBox="0 0 32 32" fill="none" xmlns="http://www.w3.org/2000/svg">
<path d="M10.9474 19.7895C10.3579 19.7895 9.85965 19.586 9.45263 19.1789C9.04561 18.7719 8.84211 18.2737 8.84211 17.6842C8.84211 17.0947 9.04561 16.5965 9.45263 16.1895C9.85965 15.7825 10.3579 15.5789 10.9474 15.5789C11.5368 15.5789 12.0351 15.7825 12.4421 16.1895C12.8491 16.5965 13.0526 17.0947 13.0526 17.6842C13.0526 18.2737 12.8491 18.7719 12.4421 19.1789C12.0351 19.586 11.5368 19.7895 10.9474 19.7895ZM21.0526 19.7895C20.4632 19.7895 19.9649 19.586 19.5579 19.1789C19.1509 18.7719 18.9474 18.2737 18.9474 17.6842C18.9474 17.0947 19.1509 16.5965 19.5579 16.1895C19.9649 15.7825 20.4632 15.5789 21.0526 15.5789C21.6421 15.5789 22.1404 15.7825 22.5474 16.1895C22.9544 16.5965 23.1579 17.0947 23.1579 17.6842C23.1579 18.2737 22.9544 18.7719 22.5474 19.1789C22.1404 19.586 21.6421 19.7895 21.0526 19.7895ZM16 29.4737C19.7614 29.4737 22.9474 28.1684 25.5579 25.5579C28.1684 22.9474 29.4737 19.7614 29.4737 16C29.4737 15.3263 29.4316 14.6737 29.3474 14.0421C29.2632 13.4105 29.1088 12.8 28.8842 12.2105C28.2947 12.3509 27.7053 12.4561 27.1158 12.5263C26.5263 12.5965 25.9088 12.6316 25.2632 12.6316C22.7088 12.6316 20.2947 12.0842 18.0211 10.9895C15.7474 9.89474 13.8105 8.36491 12.2105 6.4C11.3123 8.58947 10.0281 10.4912 8.35789 12.1053C6.68772 13.7193 4.74386 14.9333 2.52632 15.7474V16C2.52632 19.7614 3.83158 22.9474 6.44211 25.5579C9.05263 28.1684 12.2386 29.4737 16 29.4737ZM16.0029 32C13.7899 32 11.7098 31.5801 9.76253 30.7402C7.8153 29.9004 6.12154 28.7606 4.68126 27.3208C3.24098 25.8811 2.10063 24.1881 1.26021 22.2417C0.42007 20.2953 0 18.2157 0 16.0029C0 13.7899 0.41993 11.7098 1.25979 9.76253C2.09965 7.8153 3.23944 6.12154 4.67916 4.68126C6.11888 3.24098 7.81193 2.10063 9.75832 1.26021C11.7047 0.42007 13.7843 0 15.9971 0C18.2101 0 20.2902 0.419929 22.2375 1.25979C24.1847 2.09965 25.8785 3.23944 27.3187 4.67916C28.759 6.11888 29.8994 7.81193 30.7398 9.75832C31.5799 11.7047 32 13.7843 32 15.9971C32 18.2101 31.5801 20.2902 30.7402 22.2375C29.9004 24.1847 28.7606 25.8785 27.3208 27.3187C25.8811 28.759 24.1881 29.8994 22.2417 30.7398C20.2953 31.5799 18.2157 32 16.0029 32Z" fill="#B4A699"/>
</svg>
