<svg width="24" height="26" viewBox="0 0 24 26" fill="none" xmlns="http://www.w3.org/2000/svg">
<path d="M11 25.3898V13.5745L0.666626 7.60013V18.0565C0.666626 18.494 0.772626 18.8958 0.984626 19.2618C1.19663 19.6276 1.4924 19.9198 1.87196 20.1385L11 25.3898ZM13 25.3898L22.128 20.1385C22.5075 19.9198 22.8033 19.6276 23.0153 19.2618C23.2273 18.8958 23.3333 18.494 23.3333 18.0565V7.60013L13 13.5745V25.3898ZM18.0946 8.3258L22.246 5.92313L13.205 0.725796C12.8256 0.506907 12.424 0.397461 12 0.397461C11.576 0.397461 11.1743 0.506907 10.795 0.725796L7.86663 2.40546L18.0946 8.3258ZM12 11.8515L16.095 9.49513L5.86163 3.5668L1.74629 5.93079L12 11.8515Z" fill="#B4A699"/>
</svg>
