<svg width="24" height="32" viewBox="0 0 24 32" fill="none" xmlns="http://www.w3.org/2000/svg">
<path d="M12 32C11.2865 32 10.6557 31.8165 10.1076 31.4495C9.55941 31.0823 9.176 30.6006 8.95733 30.0046H8.44444C7.71733 30.0046 7.09111 29.7482 6.56578 29.2355C6.04045 28.7227 5.77778 28.1115 5.77778 27.4019V21.7093C3.984 20.6482 2.57259 19.2257 1.54356 17.4417C0.514518 15.6574 0 13.7476 0 11.7122C0 8.44669 1.16356 5.67827 3.49067 3.40696C5.81778 1.13565 8.65422 0 12 0C15.3458 0 18.1822 1.13565 20.5093 3.40696C22.8364 5.67827 24 8.44669 24 11.7122C24 13.7831 23.4855 15.7018 22.4564 17.4682C21.4274 19.2345 20.016 20.6482 18.2222 21.7093V27.4019C18.2222 28.1115 17.9596 28.7227 17.4342 29.2355C16.9089 29.7482 16.2827 30.0046 15.5556 30.0046H15.0427C14.824 30.6006 14.4406 31.0823 13.8924 31.4495C13.3443 31.8165 12.7135 32 12 32ZM8.44444 27.4019H15.5556V25.7734H8.44444V27.4019ZM8.44444 24.2387H15.5556V22.5569H8.44444V24.2387ZM13.06 19.9542V14.9023L16.1231 11.9122C16.3329 11.7078 16.4406 11.4682 16.4462 11.1934C16.4519 10.9187 16.3441 10.6735 16.1231 10.4577C15.9021 10.242 15.6536 10.1341 15.3778 10.1341C15.1019 10.1341 14.8535 10.242 14.6324 10.4577L12 13.027L9.36756 10.4577C9.15778 10.253 8.91215 10.1479 8.63067 10.1424C8.34919 10.1369 8.09793 10.242 7.87689 10.4577C7.65585 10.6735 7.54533 10.9159 7.54533 11.1852C7.54533 11.4541 7.65585 11.6965 7.87689 11.9122L10.94 14.9023V19.9542H13.06Z" fill="#F29400"/>
</svg>
