<svg width="33" height="32" viewBox="0 0 33 32" fill="none" xmlns="http://www.w3.org/2000/svg">
<path d="M16.343 32C14.13 32 12.0498 31.5801 10.1026 30.7402C8.15539 29.9004 6.46163 28.7606 5.02135 27.3208C3.58107 25.8811 2.44072 24.1881 1.6003 22.2417C0.760158 20.2953 0.340088 18.2157 0.340088 16.0029C0.340088 13.7899 0.760018 11.7098 1.59988 9.76253C2.43974 7.8153 3.57953 6.12154 5.01925 4.68126C6.45897 3.24098 8.15202 2.10063 10.0984 1.26021C12.0448 0.42007 14.1244 0 16.3371 0C18.5502 0 20.6303 0.419929 22.5776 1.25979C24.5248 2.09965 26.2185 3.23944 27.6588 4.67916C29.0991 6.11888 30.2395 7.81193 31.0799 9.75832C31.92 11.7047 32.3401 13.7843 32.3401 15.9971C32.3401 18.2101 31.9202 20.2902 31.0803 22.2375C30.2404 24.1847 29.1006 25.8785 27.6609 27.3187C26.2212 28.759 24.5282 29.8994 22.5818 30.7398C20.6354 31.5799 18.5558 32 16.343 32ZM16.3401 29.4737L15.1611 28.2947C14.9927 28.1263 14.8664 27.9439 14.7822 27.7474C14.698 27.5509 14.6559 27.3404 14.6559 27.1158V17.6842C13.7296 17.6842 12.9366 17.3544 12.2769 16.6947C11.6173 16.0351 11.2875 15.2421 11.2875 14.3158V12.6316L6.0243 7.36842C5.04184 8.54737 4.26991 9.86667 3.70851 11.3263C3.14711 12.786 2.8664 14.3439 2.8664 16C2.8664 19.7614 4.17167 22.9474 6.78219 25.5579C9.39272 28.1684 12.5787 29.4737 16.3401 29.4737ZM18.0243 29.3895C21.3646 28.9684 24.1646 27.4947 26.4243 24.9684C28.6839 22.4421 29.8138 19.4526 29.8138 16C29.8138 12.2667 28.5015 9.08772 25.8769 6.46316C23.2524 3.8386 20.0734 2.52632 16.3401 2.52632C15.105 2.52632 13.919 2.68772 12.7822 3.01053C11.6454 3.33333 10.5857 3.77544 9.60325 4.33684V7.57895H15.5822C16.0875 7.57895 16.5717 7.69123 17.0348 7.91579C17.498 8.14035 17.8839 8.44912 18.1927 8.8421L20.5506 11.7895H23.0769C23.5541 11.7895 23.9541 11.9509 24.2769 12.2737C24.5997 12.5965 24.7611 12.9965 24.7611 13.4737V15.2421C24.7611 15.4947 24.7261 15.7333 24.6559 15.9579C24.5857 16.1825 24.4804 16.407 24.3401 16.6316L18.0243 26.1053V29.3895Z" fill="#F29400"/>
</svg>
