<svg width="32" height="32" viewBox="0 0 32 32" fill="none" xmlns="http://www.w3.org/2000/svg">
<path d="M15.7986 32C11.9672 32 8.59013 30.8452 5.66753 28.5355C2.74493 26.2262 0.871762 23.2712 0.0480328 19.6706C-0.0545759 19.2966 0.00721165 18.9528 0.233396 18.6391C0.459262 18.3253 0.779318 18.1431 1.19356 18.0922C1.58335 18.0417 1.93279 18.1178 2.24189 18.3205C2.55099 18.5231 2.76669 18.8212 2.88899 19.2146C3.61456 22.1225 5.17783 24.5098 7.57881 26.3765C9.97979 28.2431 12.7197 29.1765 15.7986 29.1765C19.5154 29.1765 22.6683 27.898 25.2574 25.3412C27.8464 22.7843 29.1409 19.6706 29.1409 16C29.1409 12.3294 27.8464 9.21569 25.2574 6.65882C22.6683 4.10196 19.5154 2.82353 15.7986 2.82353C13.7166 2.82353 11.7654 3.28031 9.94517 4.19388C8.12458 5.10714 6.55686 6.36376 5.242 7.96376H8.79773C9.20276 7.96376 9.5422 8.09914 9.81603 8.36988C10.0902 8.64063 10.2273 8.976 10.2273 9.376C10.2273 9.77631 10.0902 10.1115 9.81603 10.3816C9.5422 10.6521 9.20276 10.7873 8.79773 10.7873H2.27334C1.78507 10.7873 1.37591 10.6242 1.04585 10.2979C0.715466 9.97192 0.550275 9.56784 0.550275 9.08565V2.64235C0.550275 2.24235 0.687352 1.90714 0.961504 1.63671C1.23566 1.36596 1.57541 1.23059 1.98076 1.23059C2.3858 1.23059 2.72523 1.36596 2.99907 1.63671C3.27258 1.90714 3.40934 2.24235 3.40934 2.64235V5.69035C4.9561 3.88769 6.80845 2.48863 8.96641 1.49318C11.1241 0.497725 13.4015 0 15.7986 0C18.0478 0 20.1544 0.419923 22.1186 1.25977C24.0828 2.09961 25.7955 3.2411 27.2568 4.68423C28.7181 6.12737 29.874 7.81867 30.7244 9.75812C31.5748 11.6979 32 13.7782 32 15.9991C32 18.2199 31.5748 20.3004 30.7244 22.2405C29.874 24.1809 28.7181 25.8726 27.2568 27.3158C25.7955 28.7589 24.0828 29.9004 22.1186 30.7402C20.1544 31.5801 18.0478 32 15.7986 32ZM17.283 15.4282L22.5246 20.6047C22.7886 20.8651 22.9236 21.1926 22.9296 21.5873C22.936 21.982 22.801 22.3156 22.5246 22.5882C22.2485 22.8609 21.9139 22.9972 21.5206 22.9972C21.127 22.9972 20.7921 22.8609 20.5161 22.5882L14.9409 17.0824C14.7627 16.906 14.632 16.714 14.5487 16.5064C14.4658 16.2987 14.4244 16.0841 14.4244 15.8626V8C14.4244 7.6 14.5613 7.26463 14.8351 6.99388C15.1093 6.72345 15.449 6.58824 15.8544 6.58824C16.2594 6.58824 16.5988 6.72345 16.8727 6.99388C17.1462 7.26463 17.283 7.6 17.283 8V15.4282Z" fill="#F29400"/>
</svg>
