<svg width="33" height="32" viewBox="0 0 33 32" fill="none" xmlns="http://www.w3.org/2000/svg">
<path d="M2.08169 32V21.797H31.2582V32H28.4346V24.5796H4.90522V32H2.08169ZM3.02522 19.3357C2.37204 19.3357 1.81627 19.1105 1.35792 18.66C0.899255 18.2095 0.669922 17.6624 0.669922 17.0187C0.669922 16.3753 0.898471 15.8276 1.35557 15.3755C1.81267 14.9238 2.3678 14.698 3.02098 14.698C3.67384 14.698 4.22945 14.9232 4.6878 15.3737C5.14647 15.8242 5.3758 16.3711 5.3758 17.0145C5.3758 17.6582 5.14725 18.2059 4.69016 18.6577C4.23306 19.1097 3.67808 19.3357 3.02522 19.3357ZM7.98239 19.2286V3.35309C7.98239 2.43111 8.31557 1.64177 8.98192 0.98506C9.64828 0.328355 10.4492 0 11.3847 0H21.9551C22.8906 0 23.6916 0.328355 24.3579 0.98506C25.0243 1.64177 25.3575 2.43111 25.3575 3.35309V19.2286H7.98239ZM30.3189 19.3357C29.666 19.3357 29.1104 19.1105 28.652 18.66C28.1934 18.2095 27.964 17.6624 27.964 17.0187C27.964 16.3753 28.1926 15.8276 28.6497 15.3755C29.1068 14.9238 29.6618 14.698 30.3146 14.698C30.9678 14.698 31.5236 14.9232 31.9819 15.3737C32.4406 15.8242 32.6699 16.3711 32.6699 17.0145C32.6699 17.6582 32.4414 18.2059 31.9843 18.6577C31.5272 19.1097 30.972 19.3357 30.3189 19.3357Z" fill="#F29400"/>
</svg>
