<svg width="120" height="90" viewBox="0 0 120 90" fill="none" xmlns="http://www.w3.org/2000/svg">
<path fill-rule="evenodd" clip-rule="evenodd" d="M4.29699 5.54975C16.1163 -5.91667 48.7549 0.97272 78.5541 20.8006H60.1384C36.2356 7.80847 12.5969 4.11347 4.01306 12.91C1.57656 15.4071 0.566307 18.673 0.81722 22.4454C-0.939173 15.5739 0.0974957 9.65597 4.29699 5.54975ZM102.16 24.0963H114.633L107.198 32.9285H94.738L102.16 24.0963Z" fill="#ABABAB"/>
<path fill-rule="evenodd" clip-rule="evenodd" d="M96.6813 53.3652C101.541 61.3333 102.439 68.4373 98.2198 72.7521C90.8113 80.3268 70.0911 76.7987 49.5558 65.1356H36.7725C45.6881 71.1874 55.4871 76.0989 65.8916 79.7309V79.7309C66.7896 80.0348 67.6876 80.3268 68.5724 80.5831C68.8101 80.6606 69.0478 80.7261 69.2855 80.7917C69.9458 80.9824 70.5665 81.1671 71.2004 81.34L72.0456 81.5605C72.6597 81.7214 73.2605 81.8704 73.8614 82.0075L74.6142 82.1862C75.4131 82.365 76.1989 82.526 76.978 82.6749H77.0903C77.9024 82.8239 78.7014 82.955 79.4938 83.0683L80.1541 83.1577C80.7153 83.2352 81.27 83.3067 81.8246 83.3603L82.5839 83.4378C83.1188 83.4855 83.6404 83.5212 84.1621 83.551L84.8224 83.5868C85.5223 83.5868 86.209 83.6344 86.8759 83.6285H86.9485C87.6088 83.6285 88.3153 83.5927 88.9756 83.5451L89.5567 83.4974C90.0189 83.4557 90.4745 83.408 90.9169 83.3543L91.5772 83.259C91.9998 83.1934 92.4224 83.116 92.8318 83.0325L93.3798 82.9133C93.9411 82.7822 94.4825 82.6392 95.0108 82.4723H95.0504C95.5786 82.2995 96.087 82.1028 96.5823 81.8763L97.0247 81.6737C97.3614 81.5128 97.685 81.3459 98.0085 81.1731L98.4707 80.899C98.7745 80.7142 99.0584 80.5175 99.3423 80.303C99.4678 80.2136 99.5998 80.1242 99.7187 80.0288C100.11 79.7275 100.476 79.4008 100.815 79.0515C106.275 73.5209 104.255 63.896 96.6813 53.3652Z" fill="#ABABAB"/>
<path fill-rule="evenodd" clip-rule="evenodd" d="M78.5599 32.7382H62.7127V60.2004H52.5771V32.7382H39.8334C41.8618 35.5357 42.9447 38.8053 42.95 42.1486V42.1486C42.95 52.0774 33.4417 60.2004 21.8205 60.2004H0.690918V24.0967H21.8205C27.1741 24.0718 32.3485 25.836 36.347 29.0492V24.0967H83.2942C113.371 45.7661 127.864 72.6442 115.688 84.4563C103.513 96.2684 69.1506 88.5864 38.6118 67.2865C65.3011 84.4087 93.925 90.3326 103.618 80.3978C110.307 73.5561 106.259 60.8918 94.7438 47.6911L84.2451 60.1766H72.0692V59.8548L88.0814 40.7838C85.0613 37.9575 81.8833 35.2722 78.5599 32.7382V32.7382ZM10.8133 32.7382V51.5589H21.8205C27.8556 51.5589 32.8342 47.3037 32.8342 42.1486C32.8342 36.9934 27.8622 32.7382 21.8205 32.7382H10.8133Z" fill="white"/>
</svg>
